<svg width="48" height="48" viewBox="0 0 48 48" fill="none" xmlns="http://www.w3.org/2000/svg">
<path d="M45.7984 24.1748L19.8634 39.2463C18.5231 40.026 16.3379 40.026 14.9866 39.2446L2.21888 31.8727C1.53901 31.4815 1.19865 30.965 1.20119 30.4494V35.6742C1.19949 36.1898 1.53985 36.7063 2.21888 37.0983L14.9874 44.4702C16.3396 45.2508 18.5231 45.2508 19.8634 44.4719L45.7984 29.4004C46.4648 29.0135 46.7992 28.5063 46.8 27.9975V22.7719C46.7984 23.2807 46.4639 23.7887 45.7984 24.1756V24.1748Z" fill="#568210"/>
<path opacity="0.6" d="M2.21888 32.1758L14.9874 39.5477C16.3396 40.3283 18.5231 40.3283 19.8634 39.5494L45.7984 24.4779C46.4622 24.0926 46.7967 23.5863 46.8 23.0792V22.7719C46.8 23.2807 46.4648 23.7879 45.7984 24.1756L19.8634 39.2471C18.5231 40.0269 16.3379 40.0269 14.9866 39.2454L2.21888 31.8727C1.53901 31.4815 1.19865 30.965 1.20119 30.4494V30.7517C1.19949 31.2664 1.53985 31.7838 2.21888 32.1758Z" fill="#ABE055"/>
<path d="M45.7821 21.3486C47.1343 22.1293 47.1385 23.3959 45.7982 24.1748L19.8632 39.2463C18.5229 40.0261 16.3377 40.0261 14.9864 39.2446L2.21866 31.8727C0.869074 31.0946 0.858914 29.8271 2.19919 29.0491L28.1342 13.9767C29.4745 13.1978 31.664 13.1978 33.0136 13.9767L45.7821 21.3486Z" fill="#7AB816"/>
<path d="M29.665 29.8805C26.5586 31.6864 21.5032 31.6864 18.3765 29.8805C15.248 28.0745 15.2319 25.1468 18.3392 23.3408C21.4465 21.5357 26.5011 21.5349 29.6286 23.3408C32.7562 25.1468 32.7732 28.0737 29.665 29.8796M27.8413 15.9189L5.55371 28.8712C7.07263 29.7484 7.08364 31.1708 5.57149 32.0505L14.6706 37.304C16.1827 36.4243 18.6389 36.4269 20.1587 37.3032L42.4472 24.3509C40.9282 23.4737 40.9198 22.0497 42.4294 21.1725L33.3303 15.9198C31.8207 16.7969 29.3611 16.7969 27.8413 15.9198" fill="#ABE055"/>
<path d="M19.7188 18.8679L37.3827 29.066L43.5185 25.5007L25.8545 15.3026L19.7188 18.8679Z" fill="#E8943E"/>
<path d="M37.3828 34.2908L43.5186 30.7254V25.5007L37.3828 29.066V34.2908Z" fill="#A4542B"/>
<g style="mix-blend-mode:overlay" opacity="0.6">
<path d="M37.3828 29.3682L43.5186 25.8029V25.5007L37.3828 29.066V29.3682Z" fill="black"/>
</g>
<path d="M45.7984 18.9509L19.8634 34.0232C18.5231 34.8022 16.3379 34.8022 14.9866 34.0215L2.21888 26.6479C1.53901 26.2568 1.19865 25.7403 1.20119 25.2255V30.4503C1.19949 30.9659 1.53985 31.4824 2.21888 31.8744L14.9874 39.2463C16.3396 40.0269 18.5231 40.0269 19.8634 39.248L45.7984 24.1765C46.4648 23.7896 46.7992 23.2824 46.8 22.7736V17.548C46.7984 18.0568 46.4639 18.564 45.7984 18.9509Z" fill="#568210"/>
<g style="mix-blend-mode:multiply" opacity="0.6">
<path d="M2.21888 31.8744L14.9874 39.2463C16.3396 40.027 18.5231 40.027 19.8634 39.248L45.7984 24.1766C46.4622 23.7913 46.7967 23.285 46.8 22.7779V22.4705C46.8 22.9785 46.4648 23.4865 45.7984 23.8743L19.8634 38.9458C18.5231 39.7247 16.3379 39.7247 14.9866 38.9441L2.21888 31.5713C1.53901 31.1802 1.19865 30.6637 1.20119 30.1481V30.4503C1.19949 30.966 1.53985 31.4824 2.21888 31.8744Z" fill="#568210"/>
</g>
<path opacity="0.6" d="M2.21888 26.9519L14.9874 34.3238C16.3396 35.1044 18.5231 35.1044 19.8634 34.3255L45.7984 19.254C46.4622 18.8688 46.7967 18.3625 46.8 17.8553V17.548C46.8 18.0568 46.4648 18.564 45.7984 18.9517L19.8634 34.0232C18.5231 34.8022 16.3379 34.8022 14.9866 34.0215L2.21888 26.6479C1.53901 26.2568 1.19865 25.7403 1.20119 25.2255V25.5278C1.19949 26.0434 1.53985 26.5599 2.21888 26.9519Z" fill="#ABE055"/>
<path d="M45.7821 16.1247C47.1343 16.9054 47.1385 18.172 45.7982 18.9509L19.8632 34.0233C18.5229 34.8022 16.3377 34.8022 14.9864 34.0216L2.21866 26.6479C0.869074 25.8699 0.858914 24.6024 2.19919 23.8243L28.1342 8.75198C29.4745 7.97305 31.664 7.97305 33.0136 8.75198L45.7821 16.1239V16.1247Z" fill="#7AB816"/>
<path d="M29.665 24.6566C26.5586 26.4625 21.5032 26.4625 18.3765 24.6566C15.248 22.8506 15.2319 19.9229 18.3392 18.1169C21.4465 16.3118 26.5011 16.311 29.6286 18.1169C32.7562 19.9229 32.7732 22.8506 29.665 24.6566ZM27.8413 10.6942L5.55371 23.6465C7.07263 24.5236 7.08364 25.9469 5.57149 26.8257L14.6706 32.0793C16.1827 31.2005 18.6389 31.2021 20.1587 32.0793L42.4472 19.127C40.9282 18.2499 40.9198 16.8258 42.4294 15.9478L33.3303 10.6951C31.8207 11.5722 29.3611 11.5722 27.8413 10.6951" fill="#ABE055"/>
<path d="M19.7188 13.6432L37.3827 23.8413L43.5185 20.276L25.8545 10.0779L19.7188 13.6432Z" fill="#E8943E"/>
<path d="M37.3828 29.0669L43.5186 25.5016V20.2759L37.3828 23.8412V29.0669Z" fill="#A4542B"/>
<g style="mix-blend-mode:multiply" opacity="0.7">
<path d="M37.3828 29.0668L43.5186 25.5015V25.1993L37.3828 28.7646V29.0668Z" fill="#A4542B"/>
</g>
<g style="mix-blend-mode:overlay" opacity="0.6">
<path d="M37.3828 24.1444L43.5186 20.5782V20.2759L37.3828 23.8421V24.1444Z" fill="black"/>
</g>
<path d="M45.7984 13.7262L19.8634 28.7976C18.5231 29.5766 16.3379 29.5766 14.9866 28.796L2.21888 21.424C1.53901 21.0329 1.19865 20.5164 1.20119 20.0008V25.2256C1.19949 25.7412 1.53985 26.2577 2.21888 26.6497L14.9874 34.0216C16.3396 34.8022 18.5231 34.8022 19.8634 34.0233L45.7984 18.9509C46.4648 18.564 46.7992 18.0569 46.8 17.548V12.3224C46.7984 12.8312 46.4639 13.3392 45.7984 13.7262Z" fill="#568210"/>
<g style="mix-blend-mode:multiply" opacity="0.6">
<path d="M2.21888 26.6496L14.9874 34.0215C16.3396 34.8022 18.5231 34.8022 19.8634 34.0232L45.7984 18.9509C46.4622 18.5657 46.7967 18.0594 46.8 17.5522V17.2449C46.8 17.7537 46.4648 18.2609 45.7984 18.6486L19.8634 33.7201C18.5231 34.4991 16.3379 34.4991 14.9866 33.7184L2.21888 26.3465C1.53901 25.9554 1.19865 25.4389 1.20119 24.9233V25.2255C1.19949 25.7412 1.53985 26.2576 2.21888 26.6496Z" fill="#568210"/>
</g>
<path opacity="0.6" d="M2.21888 21.7271L14.9874 29.099C16.3396 29.8796 18.5231 29.8796 19.8634 29.1007L45.7984 14.0292C46.4622 13.644 46.7967 13.1377 46.8 12.6305V12.3232C46.8 12.832 46.4648 13.3392 45.7984 13.727L19.8634 28.7984C18.5231 29.5774 16.3379 29.5774 14.9866 28.7967L2.21888 21.424C1.53901 21.0328 1.19865 20.5164 1.20119 20.0007V20.303C1.19949 20.8186 1.53985 21.3351 2.21888 21.7271Z" fill="#ABE055"/>
<path d="M45.7821 10.9C47.1343 11.6806 47.1385 12.9472 45.7982 13.7261L19.8632 28.7976C18.5229 29.5766 16.3377 29.5766 14.9864 28.7959L2.21866 21.424C0.869074 20.6459 0.858914 19.3785 2.19919 18.6004L28.1342 3.52805C29.4745 2.74911 31.664 2.74911 33.0136 3.52805L45.7821 10.9Z" fill="#7AB816"/>
<path d="M29.665 19.4318C26.5586 21.2377 21.5032 21.2377 18.3765 19.4318C15.248 17.6258 15.2319 14.6981 18.3392 12.8921C21.4465 11.087 26.5011 11.0862 29.6286 12.8921C32.7562 14.6981 32.7732 17.6258 29.665 19.4309M27.8413 5.46942L5.55371 18.4226C7.07263 19.3005 7.08364 20.7229 5.57149 21.6018L14.6706 26.8553C16.1827 25.9757 18.6389 25.9773 20.1587 26.8545L42.4472 13.9022C40.9282 13.0251 40.9198 11.601 42.4294 10.7238L33.3303 5.47027C31.8207 6.34741 29.3611 6.34741 27.8413 5.47027" fill="#ABE055"/>
<path d="M19.7188 8.41924L37.3827 18.6165L43.5185 15.052L25.8545 4.85309L19.7188 8.41924Z" fill="#E8943E"/>
<path d="M37.3828 23.8421L43.5186 20.2768V15.052L37.3828 18.6165V23.8421Z" fill="#A4542B"/>
<g style="mix-blend-mode:multiply" opacity="0.7">
<path d="M37.3828 23.8421L43.5186 20.2768V19.9745L37.3828 23.5399V23.8421Z" fill="#A4542B"/>
</g>
<g style="mix-blend-mode:overlay" opacity="0.6">
<path d="M37.3828 18.9196L43.5186 15.3543V15.052L37.3828 18.6173V18.9196Z" fill="black"/>
</g>
</svg>
