<svg width="72" height="92" viewBox="0 0 72 92" fill="none" xmlns="http://www.w3.org/2000/svg">
<rect x="0.5" y="0.5" width="71" height="63" rx="7.5" stroke="black"/>
<path d="M28.878 39.288C27.038 39.288 25.622 38.792 24.63 37.8C23.638 36.808 23.142 35.4 23.142 33.576V28.704C23.142 26.88 23.638 25.472 24.63 24.48C25.622 23.488 27.038 22.992 28.878 22.992C30.718 22.992 32.134 23.488 33.126 24.48C34.118 25.472 34.614 26.88 34.614 28.704V33.576C34.614 35.4 34.118 36.808 33.126 37.8C32.134 38.792 30.718 39.288 28.878 39.288ZM28.878 36.816C29.806 36.816 30.518 36.544 31.014 36C31.526 35.44 31.782 34.656 31.782 33.648V28.632C31.782 27.608 31.526 26.824 31.014 26.28C30.518 25.736 29.806 25.464 28.878 25.464C27.95 25.464 27.23 25.736 26.718 26.28C26.222 26.824 25.974 27.608 25.974 28.632V33.648C25.974 34.656 26.222 35.44 26.718 36C27.23 36.544 27.95 36.816 28.878 36.816ZM43.128 39.288C41.288 39.288 39.872 38.792 38.88 37.8C37.888 36.808 37.392 35.4 37.392 33.576V28.704C37.392 26.88 37.888 25.472 38.88 24.48C39.872 23.488 41.288 22.992 43.128 22.992C44.968 22.992 46.384 23.488 47.376 24.48C48.368 25.472 48.864 26.88 48.864 28.704V33.576C48.864 35.4 48.368 36.808 47.376 37.8C46.384 38.792 44.968 39.288 43.128 39.288ZM43.128 36.816C44.056 36.816 44.768 36.544 45.264 36C45.776 35.44 46.032 34.656 46.032 33.648V28.632C46.032 27.608 45.776 26.824 45.264 26.28C44.768 25.736 44.056 25.464 43.128 25.464C42.2 25.464 41.48 25.736 40.968 26.28C40.472 26.824 40.224 27.608 40.224 28.632V33.648C40.224 34.656 40.472 35.44 40.968 36C41.48 36.544 42.2 36.816 43.128 36.816Z" fill="black"/>
<path d="M19.7622 85C19.6555 85 19.6022 84.9467 19.6022 84.84V74.68C19.6022 74.5733 19.6555 74.52 19.7622 74.52H22.5622C24.2049 74.52 25.4315 74.904 26.2422 75.672C27.0529 76.4293 27.4582 77.5813 27.4582 79.128V79.928C27.4582 81.6347 27.0529 82.9093 26.2422 83.752C25.4422 84.584 24.2155 85 22.5622 85H19.7622ZM20.9622 83.848H22.4662C23.7142 83.848 24.6315 83.5387 25.2182 82.92C25.8049 82.3013 26.0982 81.336 26.0982 80.024V79.032C26.0982 77.88 25.8049 77.032 25.2182 76.488C24.6315 75.944 23.7142 75.672 22.4662 75.672H20.9622V83.848ZM28.2924 85C28.1751 85 28.1324 84.9413 28.1644 84.824L31.7004 74.648C31.7324 74.5627 31.7964 74.52 31.8924 74.52H33.3164C33.4124 74.52 33.4764 74.5627 33.5084 74.648L37.0924 84.824C37.1244 84.9413 37.0818 85 36.9644 85H35.8284C35.7324 85 35.6684 84.9573 35.6364 84.872L33.2364 77.672C33.1298 77.352 33.0231 77.032 32.9164 76.712C32.8098 76.392 32.6978 76.072 32.5804 75.752H32.5644C32.4578 76.0613 32.3511 76.376 32.2444 76.696C32.1378 77.0053 32.0311 77.3147 31.9244 77.624L29.5564 84.872C29.5244 84.9573 29.4604 85 29.3644 85H28.2924ZM30.0684 82.552L30.4044 81.368H34.7564L35.1084 82.552H30.0684ZM39.9866 85C39.8799 85 39.8266 84.9467 39.8266 84.84V81.4L36.4026 74.712C36.3812 74.6587 36.3812 74.616 36.4026 74.584C36.4239 74.5413 36.4612 74.52 36.5146 74.52H37.7306C37.8266 74.52 37.8906 74.5573 37.9226 74.632L39.6826 78.248C39.8212 78.5253 39.9599 78.8133 40.0986 79.112C40.2372 79.4 40.3759 79.6827 40.5146 79.96H40.5306C40.6799 79.6613 40.8239 79.368 40.9626 79.08C41.1012 78.792 41.2399 78.4987 41.3786 78.2L43.1226 74.632C43.1546 74.5573 43.2186 74.52 43.3146 74.52H44.4986C44.5519 74.52 44.5892 74.5413 44.6106 74.584C44.6319 74.616 44.6319 74.6587 44.6106 74.712L41.1866 81.4V84.84C41.1866 84.9467 41.1332 85 41.0266 85H39.9866ZM49.1121 85.192C47.8321 85.192 46.8934 84.92 46.2961 84.376C45.6987 83.8213 45.4321 83.1013 45.4961 82.216C45.5067 82.024 45.5707 81.928 45.6881 81.928H46.6961C46.8241 81.928 46.8881 82.0133 46.8881 82.184C46.8881 82.8347 47.0801 83.304 47.4641 83.592C47.8481 83.8693 48.4347 84.008 49.2241 84.008C49.9814 84.008 50.5521 83.8747 50.9361 83.608C51.3307 83.3307 51.5281 82.9147 51.5281 82.36C51.5281 82.0827 51.4801 81.848 51.3841 81.656C51.2987 81.4533 51.1494 81.2773 50.9361 81.128C50.7227 80.9787 50.4347 80.8293 50.0721 80.68L47.7201 79.704C47.2294 79.5013 46.8294 79.2773 46.5201 79.032C46.2214 78.776 46.0027 78.488 45.8641 78.168C45.7361 77.8373 45.6721 77.464 45.6721 77.048C45.6827 76.1627 45.9761 75.4907 46.5521 75.032C47.1387 74.5733 47.9867 74.344 49.0961 74.344C49.8534 74.344 50.5094 74.456 51.0641 74.68C51.6187 74.904 52.0401 75.2293 52.3281 75.656C52.6161 76.0827 52.7334 76.6053 52.6801 77.224C52.6587 77.4267 52.6001 77.528 52.5041 77.528H51.4801C51.4267 77.528 51.3841 77.5067 51.3521 77.464C51.3307 77.4213 51.3254 77.3413 51.3361 77.224C51.3787 76.68 51.1921 76.264 50.7761 75.976C50.3707 75.6773 49.7947 75.528 49.0481 75.528C48.3867 75.528 47.8854 75.6453 47.5441 75.88C47.2134 76.1147 47.0427 76.4773 47.0321 76.968C47.0321 77.224 47.0747 77.448 47.1601 77.64C47.2561 77.832 47.4107 78.008 47.6241 78.168C47.8481 78.328 48.1521 78.488 48.5361 78.648L50.8561 79.624C51.3467 79.8267 51.7414 80.0507 52.0401 80.296C52.3387 80.5413 52.5521 80.8293 52.6801 81.16C52.8187 81.48 52.8881 81.8693 52.8881 82.328C52.8881 83.224 52.5841 83.928 51.9761 84.44C51.3681 84.9413 50.4134 85.192 49.1121 85.192Z" fill="black"/>
</svg>
