<svg width="120" height="120" viewBox="0 0 120 120" fill="none" xmlns="http://www.w3.org/2000/svg">
<rect x="0.25" y="0.25" width="119.5" height="119.5" rx="7.75" stroke="#031023" stroke-opacity="0.88" stroke-width="0.5"/>
<path d="M53.3333 40V37.3333H58.6667V33.2C57.5778 32.9556 56.6056 32.4944 55.75 31.8167C54.8944 31.1389 54.2667 30.2889 53.8667 29.2667C52.2 29.0667 50.8056 28.3389 49.6833 27.0833C48.5611 25.8278 48 24.3556 48 22.6667V21.3333C48 20.6 48.2611 19.9722 48.7833 19.45C49.3056 18.9278 49.9333 18.6667 50.6667 18.6667H53.3333V16H66.6667V18.6667H69.3333C70.0667 18.6667 70.6944 18.9278 71.2167 19.45C71.7389 19.9722 72 20.6 72 21.3333V22.6667C72 24.3556 71.4389 25.8278 70.3167 27.0833C69.1944 28.3389 67.8 29.0667 66.1333 29.2667C65.7333 30.2889 65.1056 31.1389 64.25 31.8167C63.3944 32.4944 62.4222 32.9556 61.3333 33.2V37.3333H66.6667V40H53.3333ZM53.3333 26.4V21.3333H50.6667V22.6667C50.6667 23.5111 50.9111 24.2722 51.4 24.95C51.8889 25.6278 52.5333 26.1111 53.3333 26.4ZM60 30.6667C61.1111 30.6667 62.0556 30.2778 62.8333 29.5C63.6111 28.7222 64 27.7778 64 26.6667V18.6667H56V26.6667C56 27.7778 56.3889 28.7222 57.1667 29.5C57.9444 30.2778 58.8889 30.6667 60 30.6667ZM66.6667 26.4C67.4667 26.1111 68.1111 25.6278 68.6 24.95C69.0889 24.2722 69.3333 23.5111 69.3333 22.6667V21.3333H66.6667V26.4Z" fill="#4FA0DA"/>
<path d="M25.85 69.1C26.7 68.45 27.65 67.9375 28.7 67.5625C29.75 67.1875 30.85 67 32 67C33.15 67 34.25 67.1875 35.3 67.5625C36.35 67.9375 37.3 68.45 38.15 69.1C38.7333 68.4167 39.1875 67.6417 39.5125 66.775C39.8375 65.9083 40 64.9833 40 64C40 61.7833 39.2208 59.8958 37.6625 58.3375C36.1042 56.7792 34.2167 56 32 56C29.7833 56 27.8958 56.7792 26.3375 58.3375C24.7792 59.8958 24 61.7833 24 64C24 64.9833 24.1625 65.9083 24.4875 66.775C24.8125 67.6417 25.2667 68.4167 25.85 69.1ZM32 65C31.0167 65 30.1875 64.6625 29.5125 63.9875C28.8375 63.3125 28.5 62.4833 28.5 61.5C28.5 60.5167 28.8375 59.6875 29.5125 59.0125C30.1875 58.3375 31.0167 58 32 58C32.9833 58 33.8125 58.3375 34.4875 59.0125C35.1625 59.6875 35.5 60.5167 35.5 61.5C35.5 62.4833 35.1625 63.3125 34.4875 63.9875C33.8125 64.6625 32.9833 65 32 65ZM32 74C30.6167 74 29.3167 73.7375 28.1 73.2125C26.8833 72.6875 25.825 71.975 24.925 71.075C24.025 70.175 23.3125 69.1167 22.7875 67.9C22.2625 66.6833 22 65.3833 22 64C22 62.6167 22.2625 61.3167 22.7875 60.1C23.3125 58.8833 24.025 57.825 24.925 56.925C25.825 56.025 26.8833 55.3125 28.1 54.7875C29.3167 54.2625 30.6167 54 32 54C33.3833 54 34.6833 54.2625 35.9 54.7875C37.1167 55.3125 38.175 56.025 39.075 56.925C39.975 57.825 40.6875 58.8833 41.2125 60.1C41.7375 61.3167 42 62.6167 42 64C42 65.3833 41.7375 66.6833 41.2125 67.9C40.6875 69.1167 39.975 70.175 39.075 71.075C38.175 71.975 37.1167 72.6875 35.9 73.2125C34.6833 73.7375 33.3833 74 32 74ZM32 72C32.8833 72 33.7167 71.8708 34.5 71.6125C35.2833 71.3542 36 70.9833 36.65 70.5C36 70.0167 35.2833 69.6458 34.5 69.3875C33.7167 69.1292 32.8833 69 32 69C31.1167 69 30.2833 69.1292 29.5 69.3875C28.7167 69.6458 28 70.0167 27.35 70.5C28 70.9833 28.7167 71.3542 29.5 71.6125C30.2833 71.8708 31.1167 72 32 72ZM32 63C32.4333 63 32.7917 62.8583 33.075 62.575C33.3583 62.2917 33.5 61.9333 33.5 61.5C33.5 61.0667 33.3583 60.7083 33.075 60.425C32.7917 60.1417 32.4333 60 32 60C31.5667 60 31.2083 60.1417 30.925 60.425C30.6417 60.7083 30.5 61.0667 30.5 61.5C30.5 61.9333 30.6417 62.2917 30.925 62.575C31.2083 62.8583 31.5667 63 32 63Z" fill="black"/>
<path d="M50.7221 69C50.6048 69 50.5621 68.9413 50.5941 68.824L54.1301 58.648C54.1621 58.5627 54.2261 58.52 54.3221 58.52H55.7461C55.8421 58.52 55.9061 58.5627 55.9381 58.648L59.5221 68.824C59.5541 68.9413 59.5115 69 59.3941 69H58.2581C58.1621 69 58.0981 68.9573 58.0661 68.872L55.6661 61.672C55.5595 61.352 55.4528 61.032 55.3461 60.712C55.2395 60.392 55.1275 60.072 55.0101 59.752H54.9941C54.8875 60.0613 54.7808 60.376 54.6741 60.696C54.5675 61.0053 54.4608 61.3147 54.3541 61.624L51.9861 68.872C51.9541 68.9573 51.8901 69 51.7941 69H50.7221ZM52.4981 66.552L52.8341 65.368H57.1861L57.5381 66.552H52.4981ZM60.3889 71.224C60.1542 71.2773 60.0209 71.256 59.9889 71.16L59.7169 70.216C59.6849 70.0987 59.7809 70.0133 60.0049 69.96C60.4422 69.8533 60.7675 69.608 60.9809 69.224C61.2049 68.84 61.3169 68.328 61.3169 67.688V58.68C61.3169 58.5733 61.3702 58.52 61.4769 58.52H62.5169C62.6235 58.52 62.6769 58.5733 62.6769 58.68V67.624C62.6769 68.6587 62.4795 69.4693 62.0849 70.056C61.7009 70.6533 61.1355 71.0427 60.3889 71.224ZM65.5513 69C65.4446 69 65.3913 68.9467 65.3913 68.84V58.68C65.3913 58.5733 65.4446 58.52 65.5513 58.52H66.5913C66.6979 58.52 66.7513 58.5733 66.7513 58.68V61.768C66.7513 62.088 66.7513 62.4133 66.7513 62.744C66.7513 63.064 66.7459 63.384 66.7353 63.704H66.7513C66.9966 63.4267 67.2419 63.1547 67.4873 62.888C67.7326 62.6213 67.9779 62.3493 68.2233 62.072L71.3433 58.6C71.3859 58.5467 71.4499 58.52 71.5353 58.52H72.8953C72.9593 58.52 73.0019 58.5413 73.0233 58.584C73.0553 58.616 73.0446 58.6587 72.9913 58.712L69.2313 62.776L73.2793 68.808C73.3113 68.8613 73.3166 68.9093 73.2953 68.952C73.2846 68.984 73.2473 69 73.1833 69H71.8553C71.7806 69 71.7166 68.9627 71.6633 68.888L68.2873 63.816L66.7513 65.48V68.84C66.7513 68.9467 66.6979 69 66.5913 69H65.5513ZM75.8029 62.344L75.1629 61.864C75.1202 61.832 75.0989 61.7947 75.0989 61.752C75.0989 61.7093 75.1149 61.672 75.1469 61.64L76.2189 60.408L74.6189 60.056C74.5549 60.0453 74.5175 60.024 74.5069 59.992C74.5069 59.9493 74.5122 59.9067 74.5229 59.864L74.7789 59.128C74.8002 59.0747 74.8269 59.0427 74.8589 59.032C74.9015 59.0107 74.9442 59.0107 74.9869 59.032L76.4589 59.656L76.3149 58.04C76.2935 57.9333 76.3415 57.88 76.4589 57.88H77.2429C77.3602 57.88 77.4082 57.9333 77.3869 58.04L77.2429 59.672L78.7309 59.032C78.7735 59.0107 78.8162 59.0107 78.8589 59.032C78.9015 59.0427 78.9282 59.0747 78.9389 59.128L79.1949 59.864C79.2162 59.928 79.2162 59.976 79.1949 60.008C79.1842 60.0293 79.1522 60.0453 79.0989 60.056L77.4829 60.424L78.5549 61.64C78.5975 61.6827 78.6135 61.7253 78.6029 61.768C78.5922 61.8 78.5655 61.832 78.5229 61.864L77.8829 62.328C77.7975 62.392 77.7282 62.376 77.6749 62.28L76.8429 60.888L76.0109 62.296C75.9789 62.3387 75.9469 62.3653 75.9149 62.376C75.8829 62.3867 75.8455 62.376 75.8029 62.344ZM82.4279 62.344L81.7879 61.864C81.7452 61.832 81.7239 61.7947 81.7239 61.752C81.7239 61.7093 81.7399 61.672 81.7719 61.64L82.8439 60.408L81.2439 60.056C81.1799 60.0453 81.1425 60.024 81.1319 59.992C81.1319 59.9493 81.1372 59.9067 81.1479 59.864L81.4039 59.128C81.4252 59.0747 81.4519 59.0427 81.4839 59.032C81.5265 59.0107 81.5692 59.0107 81.6119 59.032L83.0839 59.656L82.9399 58.04C82.9185 57.9333 82.9665 57.88 83.0839 57.88H83.8679C83.9852 57.88 84.0332 57.9333 84.0119 58.04L83.8679 59.672L85.3559 59.032C85.3985 59.0107 85.4412 59.0107 85.4839 59.032C85.5265 59.0427 85.5532 59.0747 85.5639 59.128L85.8199 59.864C85.8412 59.928 85.8412 59.976 85.8199 60.008C85.8092 60.0293 85.7772 60.0453 85.7239 60.056L84.1079 60.424L85.1799 61.64C85.2225 61.6827 85.2385 61.7253 85.2279 61.768C85.2172 61.8 85.1905 61.832 85.1479 61.864L84.5079 62.328C84.4225 62.392 84.3532 62.376 84.2999 62.28L83.4679 60.888L82.6359 62.296C82.6039 62.3387 82.5719 62.3653 82.5399 62.376C82.5079 62.3867 82.4705 62.376 82.4279 62.344ZM89.0529 62.344L88.4129 61.864C88.3702 61.832 88.3489 61.7947 88.3489 61.752C88.3489 61.7093 88.3649 61.672 88.3969 61.64L89.4689 60.408L87.8689 60.056C87.8049 60.0453 87.7675 60.024 87.7569 59.992C87.7569 59.9493 87.7622 59.9067 87.7729 59.864L88.0289 59.128C88.0502 59.0747 88.0769 59.0427 88.1089 59.032C88.1515 59.0107 88.1942 59.0107 88.2369 59.032L89.7089 59.656L89.5649 58.04C89.5435 57.9333 89.5915 57.88 89.7089 57.88H90.4929C90.6102 57.88 90.6582 57.9333 90.6369 58.04L90.4929 59.672L91.9809 59.032C92.0235 59.0107 92.0662 59.0107 92.1089 59.032C92.1515 59.0427 92.1782 59.0747 92.1889 59.128L92.4449 59.864C92.4662 59.928 92.4662 59.976 92.4449 60.008C92.4342 60.0293 92.4022 60.0453 92.3489 60.056L90.7329 60.424L91.8049 61.64C91.8475 61.6827 91.8635 61.7253 91.8529 61.768C91.8422 61.8 91.8155 61.832 91.7729 61.864L91.1329 62.328C91.0475 62.392 90.9782 62.376 90.9249 62.28L90.0929 60.888L89.2609 62.296C89.2289 62.3387 89.1969 62.3653 89.1649 62.376C89.1329 62.3867 89.0955 62.376 89.0529 62.344Z" fill="black"/>
<path d="M39.7698 99.288C38.0258 99.288 36.6898 98.904 35.7618 98.136C34.8498 97.352 34.4258 96.144 34.4898 94.512C34.5058 94.32 34.6018 94.224 34.7778 94.224H36.9858C37.1618 94.224 37.2498 94.328 37.2498 94.536C37.2338 95.272 37.4258 95.848 37.8258 96.264C38.2418 96.68 38.9138 96.888 39.8418 96.888C40.7378 96.888 41.3858 96.736 41.7858 96.432C42.2018 96.128 42.4098 95.616 42.4098 94.896C42.4098 94.56 42.3618 94.272 42.2658 94.032C42.1698 93.792 42.0018 93.576 41.7618 93.384C41.5378 93.176 41.2258 92.984 40.8258 92.808L37.5138 91.248C36.5538 90.8 35.8338 90.248 35.3538 89.592C34.8898 88.92 34.6658 88.088 34.6818 87.096C34.6978 85.688 35.1618 84.656 36.0738 84C36.9858 83.344 38.2338 83.016 39.8178 83.016C41.5458 83.016 42.8658 83.4 43.7778 84.168C44.6898 84.936 45.1218 86.112 45.0738 87.696C45.0738 87.888 44.9858 87.984 44.8098 87.984H42.6018C42.4098 87.984 42.3218 87.888 42.3378 87.696C42.3378 86.928 42.1218 86.36 41.6898 85.992C41.2738 85.608 40.6498 85.416 39.8178 85.416C39.0818 85.416 38.5138 85.56 38.1138 85.848C37.7298 86.12 37.5298 86.544 37.5138 87.12C37.5138 87.632 37.6418 88.048 37.8978 88.368C38.1698 88.672 38.6098 88.968 39.2178 89.256L42.4578 90.792C43.0818 91.064 43.6018 91.384 44.0178 91.752C44.4338 92.104 44.7458 92.528 44.9538 93.024C45.1618 93.52 45.2658 94.152 45.2658 94.92C45.2658 96.376 44.7778 97.472 43.8018 98.208C42.8418 98.928 41.4978 99.288 39.7698 99.288ZM38.9298 101.112C38.7698 101.112 38.6898 101.032 38.6898 100.872V98.88L41.1858 98.76V100.872C41.1858 101.032 41.1058 101.112 40.9458 101.112H38.9298ZM38.6898 83.424V81.432C38.6898 81.272 38.7698 81.192 38.9298 81.192H40.9458C41.1058 81.192 41.1858 81.272 41.1858 81.432V83.544L38.6898 83.424ZM48.695 99C48.519 99 48.431 98.904 48.431 98.712V96.792C48.431 96.616 48.519 96.528 48.695 96.528H52.343V86.304L48.863 87.384C48.671 87.448 48.575 87.376 48.575 87.168V85.272C48.575 85.112 48.639 85.008 48.767 84.96L54.071 83.232C54.135 83.216 54.199 83.2 54.263 83.184C54.343 83.168 54.415 83.16 54.479 83.16H54.911C55.087 83.16 55.175 83.256 55.175 83.448V96.528H58.463C58.655 96.528 58.751 96.616 58.751 96.792V98.712C58.751 98.904 58.655 99 58.463 99H48.695ZM66.2022 99.288C64.3622 99.288 62.9462 98.792 61.9542 97.8C60.9622 96.808 60.4662 95.4 60.4662 93.576V88.704C60.4662 86.88 60.9622 85.472 61.9542 84.48C62.9462 83.488 64.3622 82.992 66.2022 82.992C68.0422 82.992 69.4582 83.488 70.4502 84.48C71.4422 85.472 71.9382 86.88 71.9382 88.704V93.576C71.9382 95.4 71.4422 96.808 70.4502 97.8C69.4582 98.792 68.0422 99.288 66.2022 99.288ZM66.2022 96.816C67.1302 96.816 67.8422 96.544 68.3382 96C68.8502 95.44 69.1062 94.656 69.1062 93.648V88.632C69.1062 87.608 68.8502 86.824 68.3382 86.28C67.8422 85.736 67.1302 85.464 66.2022 85.464C65.2742 85.464 64.5542 85.736 64.0422 86.28C63.5462 86.824 63.2982 87.608 63.2982 88.632V93.648C63.2982 94.656 63.5462 95.44 64.0422 96C64.5542 96.544 65.2742 96.816 66.2022 96.816ZM80.4522 99.288C78.6122 99.288 77.1962 98.792 76.2042 97.8C75.2122 96.808 74.7162 95.4 74.7162 93.576V88.704C74.7162 86.88 75.2122 85.472 76.2042 84.48C77.1962 83.488 78.6122 82.992 80.4522 82.992C82.2922 82.992 83.7082 83.488 84.7002 84.48C85.6922 85.472 86.1882 86.88 86.1882 88.704V93.576C86.1882 95.4 85.6922 96.808 84.7002 97.8C83.7082 98.792 82.2922 99.288 80.4522 99.288ZM80.4522 96.816C81.3802 96.816 82.0922 96.544 82.5882 96C83.1002 95.44 83.3562 94.656 83.3562 93.648V88.632C83.3562 87.608 83.1002 86.824 82.5882 86.28C82.0922 85.736 81.3802 85.464 80.4522 85.464C79.5242 85.464 78.8042 85.736 78.2922 86.28C77.7962 86.824 77.5482 87.608 77.5482 88.632V93.648C77.5482 94.656 77.7962 95.44 78.2922 96C78.8042 96.544 79.5242 96.816 80.4522 96.816Z" fill="#4FA0DA"/>
</svg>
