<svg width="316" height="118" viewBox="0 0 316 118" fill="none" xmlns="http://www.w3.org/2000/svg">
<g clip-path="url(#clip0_2001_4343)">
<mask id="path-1-inside-1_2001_4343" fill="white">
<path d="M0 16C0 7.16345 7.16344 0 16 0H136C144.837 0 152 7.16344 152 16V42C152 50.8366 144.837 58 136 58H16C7.16345 58 0 50.8366 0 42V16Z"/>
</mask>
<path d="M0 16C0 7.16345 7.16344 0 16 0H136C144.837 0 152 7.16344 152 16V42C152 50.8366 144.837 58 136 58H16C7.16345 58 0 50.8366 0 42V16Z" fill="#091516"/>
<g filter="url(#filter0_f_2001_4343)">
<ellipse cx="76" cy="69" rx="50" ry="27" fill="#6E1AFF"/>
</g>
<g clip-path="url(#clip1_2001_4343)">
<path d="M78.5494 12.3174C82.0978 12.3143 84.9574 15.1705 84.9617 18.7226C84.9659 22.2444 82.1026 25.1153 78.5808 25.1202C75.0301 25.1252 72.1575 22.2642 72.1592 18.7246C72.1609 15.1821 75.0149 12.3205 78.5494 12.3174ZM80.1592 17.3561C80.579 17.3532 80.8748 16.9614 80.7643 16.5568C80.7174 16.3848 80.6104 16.2622 80.464 16.1681C80.1182 15.9452 79.7422 15.7935 79.3427 15.7022C79.2376 15.6782 79.1777 15.6415 79.1876 15.5259C79.191 15.4881 79.1845 15.4485 79.1774 15.4104C79.1051 15.0132 78.6895 14.7809 78.3206 14.9374C78.0864 15.0369 77.9609 15.2225 77.9338 15.4751C77.9157 15.6429 77.9149 15.6415 77.7502 15.6892C77.651 15.718 77.5513 15.7466 77.4558 15.785C76.9334 15.9955 76.5732 16.3608 76.4136 16.9066C76.374 17.0419 76.352 17.1843 76.3387 17.3253C76.278 17.9663 76.5003 18.4776 77.0495 18.8316C77.3402 19.0189 77.6612 19.1365 77.9931 19.2255C78.274 19.3006 78.557 19.3676 78.8356 19.4506C79.002 19.5001 79.1664 19.5631 79.3224 19.6391C79.5077 19.7295 79.558 19.8546 79.5182 20.0549C79.4721 20.286 79.3269 20.4304 79.1116 20.5086C78.8819 20.5923 78.6429 20.5962 78.4033 20.5731C78.0041 20.5344 77.6406 20.3979 77.2962 20.1917C76.8978 19.9529 76.4215 20.1679 76.3415 20.6191C76.293 20.8934 76.4037 21.1127 76.6362 21.2649C76.969 21.4833 77.3349 21.626 77.7191 21.7243C77.8492 21.7577 77.9211 21.8392 77.9347 21.969C77.9694 22.2995 78.2321 22.5473 78.5525 22.5515C78.8718 22.5558 79.1531 22.3145 79.1789 21.9839C79.1907 21.832 79.2472 21.7774 79.3876 21.7424C79.7654 21.648 80.0953 21.463 80.3536 21.1649C81.131 20.2679 80.8689 18.9757 79.8001 18.47C79.5797 18.3658 79.343 18.292 79.1091 18.2208C78.8373 18.1383 78.5582 18.0804 78.2858 17.9993C78.1194 17.9499 77.955 17.8875 77.799 17.8118C77.614 17.7219 77.5629 17.5973 77.6007 17.397C77.6442 17.1659 77.7855 17.0097 78.0022 16.9402C78.1536 16.8916 78.3172 16.8633 78.4762 16.8594C78.9328 16.8481 79.3577 16.969 79.7453 17.2134C79.8727 17.2936 80.0024 17.3631 80.1589 17.3572L80.1592 17.3561Z" fill="white"/>
<path d="M70.8979 19.2319C71.1298 21.6565 72.1912 23.6106 74.1807 25.0006C76.1645 26.3869 78.3591 26.707 80.7173 26.09C78.8866 28.1535 75.3029 28.7954 72.6379 26.7548C69.911 24.6667 69.7771 21.1991 70.8976 19.2319H70.8979Z" fill="white"/>
<path d="M68.9061 14.2747C68.6614 14.5126 68.4159 14.7496 68.1729 14.9892C68.0438 15.1163 67.8966 15.1986 67.7107 15.2019C67.439 15.207 67.2344 15.0915 67.1124 14.8508C66.9864 14.6019 67.024 14.3629 67.1923 14.1436C67.2158 14.1131 67.2443 14.0863 67.272 14.0592C67.8986 13.4441 68.5264 12.8302 69.1519 12.2138C69.303 12.0646 69.4776 11.9866 69.6915 12.0019C69.8757 12.0149 70.0195 12.105 70.1472 12.2316C70.4865 12.568 70.8272 12.9028 71.1682 13.2373C71.4354 13.4998 71.703 13.7617 71.9717 14.0224C72.1236 14.1702 72.2059 14.3482 72.1886 14.5601C72.1674 14.8194 72.0369 15.0121 71.7928 15.1107C71.551 15.2084 71.3185 15.174 71.1235 14.9999C70.9215 14.8194 70.7331 14.6239 70.5387 14.4349C70.4571 14.3555 70.3757 14.2761 70.2944 14.1967L70.2559 14.214V14.4194C70.2559 15.4782 70.2559 16.5371 70.2559 17.5957C70.2559 17.6666 70.2585 17.7381 70.2517 17.8084C70.2181 18.1503 69.9378 18.4079 69.6036 18.4071C69.2711 18.4062 68.9903 18.1449 68.9589 17.8048C68.953 17.7406 68.9552 17.6756 68.9552 17.6112C68.9552 16.5719 68.9552 15.5325 68.9552 14.4928V14.2852L68.9066 14.2742L68.9061 14.2747Z" fill="white"/>
</g>
<path d="M44.471 39.586H43.967L41.027 48H39.319L42.791 38.2H45.619L49.105 48H47.397L44.471 39.586ZM41.223 44.234H46.935V45.606H41.223V44.234ZM54.7912 42.036L54.6092 42.078V37.92H56.1912V48H54.7632L54.6512 47.132C54.4085 47.4027 54.1005 47.6313 53.7272 47.818C53.3538 48.0047 52.9105 48.098 52.3972 48.098C51.7718 48.098 51.2212 47.9487 50.7452 47.65C50.2785 47.3513 49.9145 46.9313 49.6532 46.39C49.3918 45.8487 49.2612 45.2187 49.2612 44.5C49.2612 43.7813 49.3918 43.1513 49.6532 42.61C49.9145 42.0687 50.2785 41.6487 50.7452 41.35C51.2212 41.0513 51.7718 40.902 52.3972 40.902C52.9478 40.902 53.4285 41.014 53.8392 41.238C54.2498 41.4527 54.5672 41.7187 54.7912 42.036ZM50.9552 44.5C50.9552 45.144 51.1232 45.6667 51.4592 46.068C51.7952 46.4693 52.2338 46.67 52.7752 46.67C53.1018 46.67 53.4005 46.586 53.6712 46.418C53.9512 46.25 54.1752 46.0073 54.3432 45.69C54.5205 45.3633 54.6092 44.9667 54.6092 44.5C54.6092 44.0333 54.5205 43.6413 54.3432 43.324C54.1752 42.9973 53.9512 42.75 53.6712 42.582C53.4005 42.414 53.1018 42.33 52.7752 42.33C52.2338 42.33 51.7952 42.5307 51.4592 42.932C51.1232 43.3333 50.9552 43.856 50.9552 44.5ZM62.6994 42.036L62.5174 42.078V37.92H64.0994V48H62.6714L62.5594 47.132C62.3167 47.4027 62.0087 47.6313 61.6354 47.818C61.262 48.0047 60.8187 48.098 60.3054 48.098C59.68 48.098 59.1294 47.9487 58.6534 47.65C58.1867 47.3513 57.8227 46.9313 57.5614 46.39C57.3 45.8487 57.1694 45.2187 57.1694 44.5C57.1694 43.7813 57.3 43.1513 57.5614 42.61C57.8227 42.0687 58.1867 41.6487 58.6534 41.35C59.1294 41.0513 59.68 40.902 60.3054 40.902C60.856 40.902 61.3367 41.014 61.7474 41.238C62.158 41.4527 62.4754 41.7187 62.6994 42.036ZM58.8634 44.5C58.8634 45.144 59.0314 45.6667 59.3674 46.068C59.7034 46.4693 60.142 46.67 60.6834 46.67C61.01 46.67 61.3087 46.586 61.5794 46.418C61.8594 46.25 62.0834 46.0073 62.2514 45.69C62.4287 45.3633 62.5174 44.9667 62.5174 44.5C62.5174 44.0333 62.4287 43.6413 62.2514 43.324C62.0834 42.9973 61.8594 42.75 61.5794 42.582C61.3087 42.414 61.01 42.33 60.6834 42.33C60.142 42.33 59.7034 42.5307 59.3674 42.932C59.0314 43.3333 58.8634 43.856 58.8634 44.5ZM68.4594 43.1C68.4594 42.3627 68.5854 41.6907 68.8374 41.084C69.0987 40.468 69.4534 39.9407 69.9014 39.502C70.3587 39.054 70.8861 38.7087 71.4834 38.466C72.0901 38.2233 72.7387 38.102 73.4294 38.102C74.3907 38.102 75.2587 38.3307 76.0334 38.788C76.8174 39.2453 77.4147 39.9033 77.8254 40.762L76.4674 41.224C76.2527 40.8133 75.9774 40.482 75.6414 40.23C75.3054 39.978 74.9507 39.796 74.5774 39.684C74.2041 39.572 73.8354 39.516 73.4714 39.516C72.8367 39.516 72.2674 39.6653 71.7634 39.964C71.2594 40.2533 70.8627 40.6687 70.5734 41.21C70.2934 41.742 70.1534 42.372 70.1534 43.1C70.1534 43.8187 70.2934 44.4487 70.5734 44.99C70.8627 45.522 71.2594 45.9373 71.7634 46.236C72.2674 46.5347 72.8367 46.684 73.4714 46.684C73.8447 46.684 74.2227 46.628 74.6054 46.516C74.9974 46.3947 75.3661 46.1893 75.7114 45.9C76.0661 45.6013 76.3601 45.2047 76.5934 44.71L77.9374 45.144C77.5081 46.152 76.8967 46.8987 76.1034 47.384C75.3101 47.86 74.4187 48.098 73.4294 48.098C72.7387 48.098 72.0901 47.9767 71.4834 47.734C70.8861 47.4913 70.3587 47.146 69.9014 46.698C69.4534 46.25 69.0987 45.7227 68.8374 45.116C68.5854 44.5 68.4594 43.828 68.4594 43.1ZM79.0435 41H80.4715L80.5975 41.868C80.7841 41.6347 81.0035 41.4433 81.2555 41.294C81.5075 41.1353 81.7781 41.028 82.0675 40.972C82.3661 40.916 82.6648 40.9253 82.9635 41V42.456C82.7208 42.372 82.4595 42.3533 82.1795 42.4C81.9088 42.4373 81.6568 42.54 81.4235 42.708C81.1901 42.8667 80.9988 43.0953 80.8495 43.394C80.7001 43.6833 80.6255 44.0427 80.6255 44.472V48H79.0435V41ZM86.8474 48.098C86.1474 48.098 85.5314 47.944 84.9994 47.636C84.4768 47.328 84.0661 46.8987 83.7674 46.348C83.4781 45.7973 83.3334 45.1627 83.3334 44.444C83.3334 43.7627 83.4781 43.156 83.7674 42.624C84.0568 42.092 84.4581 41.672 84.9714 41.364C85.4848 41.056 86.0681 40.902 86.7214 40.902C87.3841 40.902 87.9674 41.0467 88.4714 41.336C88.9754 41.6253 89.3674 42.0313 89.6474 42.554C89.9368 43.0673 90.0814 43.6647 90.0814 44.346C90.0814 44.458 90.0768 44.5793 90.0674 44.71C90.0581 44.8313 90.0441 44.962 90.0254 45.102H85.0414C85.0881 45.4287 85.1908 45.7133 85.3494 45.956C85.5174 46.1893 85.7274 46.3713 85.9794 46.502C86.2314 46.6327 86.5208 46.698 86.8474 46.698C87.2394 46.698 87.5894 46.6187 87.8974 46.46C88.2148 46.3013 88.4341 46.0913 88.5554 45.83L89.9414 46.292C89.6614 46.852 89.2461 47.2953 88.6954 47.622C88.1448 47.9393 87.5288 48.098 86.8474 48.098ZM88.3594 43.814C88.3501 43.5247 88.2708 43.2633 88.1214 43.03C87.9721 42.7967 87.7761 42.6147 87.5334 42.484C87.2908 42.344 87.0201 42.274 86.7214 42.274C86.4601 42.274 86.2128 42.3393 85.9794 42.47C85.7461 42.6007 85.5454 42.7827 85.3774 43.016C85.2188 43.24 85.1161 43.506 85.0694 43.814H88.3594ZM96.2248 42.036L96.0428 42.078V37.92H97.6248V48H96.1968L96.0848 47.132C95.8421 47.4027 95.5341 47.6313 95.1608 47.818C94.7874 48.0047 94.3441 48.098 93.8308 48.098C93.2054 48.098 92.6548 47.9487 92.1788 47.65C91.7121 47.3513 91.3481 46.9313 91.0868 46.39C90.8254 45.8487 90.6948 45.2187 90.6948 44.5C90.6948 43.7813 90.8254 43.1513 91.0868 42.61C91.3481 42.0687 91.7121 41.6487 92.1788 41.35C92.6548 41.0513 93.2054 40.902 93.8308 40.902C94.3814 40.902 94.8621 41.014 95.2728 41.238C95.6834 41.4527 96.0008 41.7187 96.2248 42.036ZM92.3888 44.5C92.3888 45.144 92.5568 45.6667 92.8928 46.068C93.2288 46.4693 93.6674 46.67 94.2088 46.67C94.5354 46.67 94.8341 46.586 95.1048 46.418C95.3848 46.25 95.6088 46.0073 95.7768 45.69C95.9541 45.3633 96.0428 44.9667 96.0428 44.5C96.0428 44.0333 95.9541 43.6413 95.7768 43.324C95.6088 42.9973 95.3848 42.75 95.1048 42.582C94.8341 42.414 94.5354 42.33 94.2088 42.33C93.6674 42.33 93.2288 42.5307 92.8928 42.932C92.5568 43.3333 92.3888 43.856 92.3888 44.5ZM99.205 41H100.787V48H99.205V41ZM100.003 39.936C99.7136 39.936 99.471 39.838 99.275 39.642C99.079 39.446 98.981 39.2127 98.981 38.942C98.981 38.6527 99.079 38.41 99.275 38.214C99.471 38.018 99.7136 37.92 100.003 37.92C100.283 37.92 100.521 38.018 100.717 38.214C100.913 38.41 101.011 38.6527 101.011 38.942C101.011 39.2127 100.913 39.446 100.717 39.642C100.521 39.838 100.283 39.936 100.003 39.936ZM102.825 41V39.04H104.435V41H106.073V42.386H104.435V45.494C104.435 45.914 104.515 46.208 104.673 46.376C104.832 46.5347 105.037 46.6233 105.289 46.642C105.551 46.6513 105.812 46.6373 106.073 46.6V47.944C105.672 48.028 105.275 48.0513 104.883 48.014C104.501 47.986 104.155 47.8833 103.847 47.706C103.539 47.5193 103.292 47.2487 103.105 46.894C102.919 46.5393 102.825 46.0727 102.825 45.494V42.386H101.845V41H102.825ZM107.944 45.746C108.009 46.0073 108.121 46.208 108.28 46.348C108.448 46.488 108.63 46.586 108.826 46.642C109.022 46.6887 109.209 46.712 109.386 46.712C109.75 46.712 110.035 46.642 110.24 46.502C110.455 46.3527 110.562 46.166 110.562 45.942C110.562 45.7553 110.492 45.6107 110.352 45.508C110.212 45.4053 110.03 45.326 109.806 45.27C109.591 45.2047 109.367 45.1393 109.134 45.074C108.882 45.0087 108.611 44.934 108.322 44.85C108.042 44.766 107.776 44.6493 107.524 44.5C107.272 44.3507 107.067 44.1593 106.908 43.926C106.749 43.6927 106.67 43.4033 106.67 43.058C106.67 42.6193 106.791 42.2413 107.034 41.924C107.277 41.5973 107.608 41.3453 108.028 41.168C108.448 40.9907 108.919 40.902 109.442 40.902C110.067 40.902 110.609 41.0327 111.066 41.294C111.523 41.5553 111.855 41.938 112.06 42.442L110.674 42.89C110.609 42.7593 110.511 42.6473 110.38 42.554C110.259 42.4607 110.109 42.3953 109.932 42.358C109.764 42.3113 109.591 42.288 109.414 42.288C109.115 42.288 108.863 42.3487 108.658 42.47C108.453 42.5913 108.35 42.764 108.35 42.988C108.35 43.1 108.383 43.198 108.448 43.282C108.523 43.366 108.621 43.436 108.742 43.492C108.863 43.5387 109.008 43.5853 109.176 43.632C109.344 43.6693 109.521 43.716 109.708 43.772C110.007 43.856 110.301 43.9493 110.59 44.052C110.889 44.1453 111.159 44.2667 111.402 44.416C111.654 44.5653 111.85 44.7613 111.99 45.004C112.139 45.2467 112.223 45.5547 112.242 45.928C112.242 46.3293 112.125 46.698 111.892 47.034C111.659 47.3607 111.323 47.622 110.884 47.818C110.455 48.0047 109.941 48.098 109.344 48.098C108.653 48.098 108.061 47.9487 107.566 47.65C107.071 47.3513 106.735 46.8707 106.558 46.208L107.944 45.746Z" fill="white"/>
</g>
<path d="M16 0V1H136V0V-1H16V0ZM152 16H151V42H152H153V16H152ZM136 58V57H16V58V59H136V58ZM0 42H1V16H0H-1V42H0ZM16 58V57C7.71573 57 1 50.2843 1 42H0H-1C-1 51.3888 6.61116 59 16 59V58ZM152 42H151C151 50.2843 144.284 57 136 57V58V59C145.389 59 153 51.3888 153 42H152ZM136 0V1C144.284 1 151 7.71573 151 16H152H153C153 6.61116 145.389 -1 136 -1V0ZM16 0V-1C6.61116 -1 -1 6.61116 -1 16H0H1C1 7.71573 7.71573 1 16 1V0Z" fill="#17033F" mask="url(#path-1-inside-1_2001_4343)"/>
<g clip-path="url(#clip2_2001_4343)">
<mask id="path-8-inside-2_2001_4343" fill="white">
<path d="M164 16C164 7.16345 171.163 0 180 0H300C308.837 0 316 7.16344 316 16V42C316 50.8366 308.837 58 300 58H180C171.163 58 164 50.8366 164 42V16Z"/>
</mask>
<path d="M164 16C164 7.16345 171.163 0 180 0H300C308.837 0 316 7.16344 316 16V42C316 50.8366 308.837 58 300 58H180C171.163 58 164 50.8366 164 42V16Z" fill="#091516"/>
<g filter="url(#filter1_f_2001_4343)">
<ellipse cx="240" cy="69" rx="50" ry="27" fill="#FF6B00"/>
</g>
<g clip-path="url(#clip3_2001_4343)">
<path d="M242.549 12.3174C246.098 12.3143 248.957 15.1705 248.962 18.7226C248.966 22.2444 246.103 25.1153 242.581 25.1202C239.03 25.1252 236.157 22.2642 236.159 18.7246C236.161 15.1821 239.015 12.3205 242.549 12.3174ZM244.159 17.3561C244.579 17.3532 244.875 16.9614 244.764 16.5568C244.717 16.3848 244.61 16.2622 244.464 16.1681C244.118 15.9452 243.742 15.7935 243.343 15.7022C243.238 15.6782 243.178 15.6415 243.188 15.5259C243.191 15.4881 243.185 15.4485 243.177 15.4104C243.105 15.0132 242.69 14.7809 242.321 14.9374C242.086 15.0369 241.961 15.2225 241.934 15.4751C241.916 15.6429 241.915 15.6415 241.75 15.6892C241.651 15.718 241.551 15.7466 241.456 15.785C240.933 15.9955 240.573 16.3608 240.414 16.9066C240.374 17.0419 240.352 17.1843 240.339 17.3253C240.278 17.9663 240.5 18.4776 241.05 18.8316C241.34 19.0189 241.661 19.1365 241.993 19.2255C242.274 19.3006 242.557 19.3676 242.836 19.4506C243.002 19.5001 243.166 19.5631 243.322 19.6391C243.508 19.7295 243.558 19.8546 243.518 20.0549C243.472 20.286 243.327 20.4304 243.112 20.5086C242.882 20.5923 242.643 20.5962 242.403 20.5731C242.004 20.5344 241.641 20.3979 241.296 20.1917C240.898 19.9529 240.421 20.1679 240.342 20.6191C240.293 20.8934 240.404 21.1127 240.636 21.2649C240.969 21.4833 241.335 21.626 241.719 21.7243C241.849 21.7577 241.921 21.8392 241.935 21.969C241.969 22.2995 242.232 22.5473 242.553 22.5515C242.872 22.5558 243.153 22.3145 243.179 21.9839C243.191 21.832 243.247 21.7774 243.388 21.7424C243.765 21.648 244.095 21.463 244.354 21.1649C245.131 20.2679 244.869 18.9757 243.8 18.47C243.58 18.3658 243.343 18.292 243.109 18.2208C242.837 18.1383 242.558 18.0804 242.286 17.9993C242.119 17.9499 241.955 17.8875 241.799 17.8118C241.614 17.7219 241.563 17.5973 241.601 17.397C241.644 17.1659 241.785 17.0097 242.002 16.9402C242.154 16.8916 242.317 16.8633 242.476 16.8594C242.933 16.8481 243.358 16.969 243.745 17.2134C243.873 17.2936 244.002 17.3631 244.159 17.3572L244.159 17.3561Z" fill="white"/>
<path d="M234.898 19.2319C235.13 21.6565 236.191 23.6106 238.181 25.0006C240.165 26.3869 242.359 26.707 244.717 26.09C242.887 28.1535 239.303 28.7954 236.638 26.7548C233.911 24.6667 233.777 21.1991 234.898 19.2319H234.898Z" fill="white"/>
<path d="M234.322 16.1325C234.567 15.8946 234.813 15.6576 235.056 15.418C235.185 15.2909 235.332 15.2087 235.518 15.2053C235.79 15.2002 235.994 15.3157 236.116 15.5565C236.242 15.8053 236.205 16.0444 236.036 16.2636C236.013 16.2941 235.984 16.3209 235.957 16.3481C235.33 16.9631 234.702 17.577 234.077 18.1935C233.926 18.3426 233.751 18.4206 233.537 18.4053C233.353 18.3923 233.209 18.3022 233.081 18.1757C232.742 17.8392 232.401 17.5044 232.06 17.1699C231.793 16.9074 231.526 16.6456 231.257 16.3848C231.105 16.237 231.023 16.059 231.04 15.8472C231.061 15.5878 231.192 15.3951 231.436 15.2965C231.678 15.1988 231.91 15.2333 232.105 15.4073C232.307 15.5878 232.495 15.7833 232.69 15.9723C232.771 16.0517 232.853 16.1311 232.934 16.2105L232.973 16.1932L232.973 15.9879C232.973 14.929 232.973 13.8701 232.973 12.8115C232.973 12.7406 232.97 12.6691 232.977 12.5988C233.01 12.257 233.291 11.9993 233.625 12.0001C233.957 12.001 234.238 12.2623 234.27 12.6025C234.276 12.6666 234.273 12.7316 234.273 12.796C234.273 13.8354 234.273 14.8747 234.273 15.9144L234.273 16.122L234.322 16.1331L234.322 16.1325Z" fill="white"/>
</g>
<path d="M191.573 48H189.697L186.883 38.2H188.675L190.635 46.096L192.721 38.2H194.583L196.641 46.068L198.629 38.2H200.393L197.607 48H195.703L193.645 40.678L191.573 48ZM201.387 41H202.969V48H201.387V41ZM202.185 39.936C201.895 39.936 201.653 39.838 201.457 39.642C201.261 39.446 201.163 39.2127 201.163 38.942C201.163 38.6527 201.261 38.41 201.457 38.214C201.653 38.018 201.895 37.92 202.185 37.92C202.465 37.92 202.703 38.018 202.899 38.214C203.095 38.41 203.193 38.6527 203.193 38.942C203.193 39.2127 203.095 39.446 202.899 39.642C202.703 39.838 202.465 39.936 202.185 39.936ZM205.007 41V39.04H206.617V41H208.255V42.386H206.617V45.494C206.617 45.914 206.696 46.208 206.855 46.376C207.014 46.5347 207.219 46.6233 207.471 46.642C207.732 46.6513 207.994 46.6373 208.255 46.6V47.944C207.854 48.028 207.457 48.0513 207.065 48.014C206.682 47.986 206.337 47.8833 206.029 47.706C205.721 47.5193 205.474 47.2487 205.287 46.894C205.1 46.5393 205.007 46.0727 205.007 45.494V42.386H204.027V41H205.007ZM209.118 37.92H210.7V41.644C210.924 41.42 211.199 41.2427 211.526 41.112C211.852 40.972 212.216 40.902 212.618 40.902C213.14 40.902 213.598 41.0187 213.99 41.252C214.391 41.476 214.699 41.812 214.914 42.26C215.138 42.6987 215.25 43.2493 215.25 43.912V48H213.612V44.122C213.612 43.534 213.49 43.0907 213.248 42.792C213.014 42.4933 212.66 42.344 212.184 42.344C211.698 42.344 211.33 42.498 211.078 42.806C210.826 43.114 210.7 43.562 210.7 44.15V48H209.118V37.92ZM221.672 42.036L221.49 42.078V37.92H223.072V48H221.644L221.532 47.132C221.289 47.4027 220.981 47.6313 220.608 47.818C220.235 48.0047 219.791 48.098 219.278 48.098C218.653 48.098 218.102 47.9487 217.626 47.65C217.159 47.3513 216.795 46.9313 216.534 46.39C216.273 45.8487 216.142 45.2187 216.142 44.5C216.142 43.7813 216.273 43.1513 216.534 42.61C216.795 42.0687 217.159 41.6487 217.626 41.35C218.102 41.0513 218.653 40.902 219.278 40.902C219.829 40.902 220.309 41.014 220.72 41.238C221.131 41.4527 221.448 41.7187 221.672 42.036ZM217.836 44.5C217.836 45.144 218.004 45.6667 218.34 46.068C218.676 46.4693 219.115 46.67 219.656 46.67C219.983 46.67 220.281 46.586 220.552 46.418C220.832 46.25 221.056 46.0073 221.224 45.69C221.401 45.3633 221.49 44.9667 221.49 44.5C221.49 44.0333 221.401 43.6413 221.224 43.324C221.056 42.9973 220.832 42.75 220.552 42.582C220.281 42.414 219.983 42.33 219.656 42.33C219.115 42.33 218.676 42.5307 218.34 42.932C218.004 43.3333 217.836 43.856 217.836 44.5ZM224.428 41H225.856L225.982 41.868C226.169 41.6347 226.388 41.4433 226.64 41.294C226.892 41.1353 227.163 41.028 227.452 40.972C227.751 40.916 228.05 40.9253 228.348 41V42.456C228.106 42.372 227.844 42.3533 227.564 42.4C227.294 42.4373 227.042 42.54 226.808 42.708C226.575 42.8667 226.384 43.0953 226.234 43.394C226.085 43.6833 226.01 44.0427 226.01 44.472V48H224.428V41ZM233.268 48L233.128 47.146C232.904 47.4447 232.638 47.6733 232.33 47.832C232.022 47.9907 231.612 48.07 231.098 48.07C230.613 48.07 230.193 47.9907 229.838 47.832C229.484 47.664 229.208 47.4353 229.012 47.146C228.826 46.8473 228.732 46.502 228.732 46.11C228.732 45.522 228.947 45.032 229.376 44.64C229.815 44.2387 230.454 43.9913 231.294 43.898L233.128 43.702V43.156C233.128 42.932 233.03 42.7313 232.834 42.554C232.638 42.3673 232.326 42.274 231.896 42.274C231.523 42.274 231.196 42.3673 230.916 42.554C230.646 42.7313 230.464 43.002 230.37 43.366L228.998 42.862C229.176 42.246 229.526 41.7653 230.048 41.42C230.58 41.0747 231.224 40.902 231.98 40.902C232.895 40.902 233.581 41.1307 234.038 41.588C234.496 42.0453 234.724 42.6287 234.724 43.338V48H233.268ZM233.128 44.92L231.448 45.13C231.094 45.1767 230.828 45.2793 230.65 45.438C230.473 45.5873 230.384 45.7787 230.384 46.012C230.384 46.2267 230.468 46.4133 230.636 46.572C230.814 46.7213 231.052 46.796 231.35 46.796C231.733 46.796 232.055 46.726 232.316 46.586C232.587 46.446 232.788 46.2453 232.918 45.984C233.058 45.7227 233.128 45.4007 233.128 45.018V44.92ZM239.073 48H237.519L235.363 41H236.973L238.289 46.124L239.647 41H241.187L242.489 46.11L243.791 41H245.373L243.231 48H241.649L240.375 43.268L239.073 48ZM249.12 43.1C249.12 42.3627 249.246 41.6907 249.498 41.084C249.759 40.468 250.114 39.9407 250.562 39.502C251.019 39.054 251.546 38.7087 252.144 38.466C252.75 38.2233 253.399 38.102 254.09 38.102C255.051 38.102 255.919 38.3307 256.694 38.788C257.478 39.2453 258.075 39.9033 258.486 40.762L257.128 41.224C256.913 40.8133 256.638 40.482 256.302 40.23C255.966 39.978 255.611 39.796 255.238 39.684C254.864 39.572 254.496 39.516 254.132 39.516C253.497 39.516 252.928 39.6653 252.424 39.964C251.92 40.2533 251.523 40.6687 251.234 41.21C250.954 41.742 250.814 42.372 250.814 43.1C250.814 43.8187 250.954 44.4487 251.234 44.99C251.523 45.522 251.92 45.9373 252.424 46.236C252.928 46.5347 253.497 46.684 254.132 46.684C254.505 46.684 254.883 46.628 255.266 46.516C255.658 46.3947 256.026 46.1893 256.372 45.9C256.726 45.6013 257.02 45.2047 257.254 44.71L258.598 45.144C258.168 46.152 257.557 46.8987 256.764 47.384C255.97 47.86 255.079 48.098 254.09 48.098C253.399 48.098 252.75 47.9767 252.144 47.734C251.546 47.4913 251.019 47.146 250.562 46.698C250.114 46.25 249.759 45.7227 249.498 45.116C249.246 44.5 249.12 43.828 249.12 43.1ZM259.704 41H261.132L261.258 41.868C261.444 41.6347 261.664 41.4433 261.916 41.294C262.168 41.1353 262.438 41.028 262.728 40.972C263.026 40.916 263.325 40.9253 263.624 41V42.456C263.381 42.372 263.12 42.3533 262.84 42.4C262.569 42.4373 262.317 42.54 262.084 42.708C261.85 42.8667 261.659 43.0953 261.51 43.394C261.36 43.6833 261.286 44.0427 261.286 44.472V48H259.704V41ZM267.508 48.098C266.808 48.098 266.192 47.944 265.66 47.636C265.137 47.328 264.726 46.8987 264.428 46.348C264.138 45.7973 263.994 45.1627 263.994 44.444C263.994 43.7627 264.138 43.156 264.428 42.624C264.717 42.092 265.118 41.672 265.632 41.364C266.145 41.056 266.728 40.902 267.382 40.902C268.044 40.902 268.628 41.0467 269.132 41.336C269.636 41.6253 270.028 42.0313 270.308 42.554C270.597 43.0673 270.742 43.6647 270.742 44.346C270.742 44.458 270.737 44.5793 270.728 44.71C270.718 44.8313 270.704 44.962 270.686 45.102H265.702C265.748 45.4287 265.851 45.7133 266.01 45.956C266.178 46.1893 266.388 46.3713 266.64 46.502C266.892 46.6327 267.181 46.698 267.508 46.698C267.9 46.698 268.25 46.6187 268.558 46.46C268.875 46.3013 269.094 46.0913 269.216 45.83L270.602 46.292C270.322 46.852 269.906 47.2953 269.356 47.622C268.805 47.9393 268.189 48.098 267.508 48.098ZM269.02 43.814C269.01 43.5247 268.931 43.2633 268.782 43.03C268.632 42.7967 268.436 42.6147 268.194 42.484C267.951 42.344 267.68 42.274 267.382 42.274C267.12 42.274 266.873 42.3393 266.64 42.47C266.406 42.6007 266.206 42.7827 266.038 43.016C265.879 43.24 265.776 43.506 265.73 43.814H269.02ZM276.885 42.036L276.703 42.078V37.92H278.285V48H276.857L276.745 47.132C276.502 47.4027 276.194 47.6313 275.821 47.818C275.448 48.0047 275.004 48.098 274.491 48.098C273.866 48.098 273.315 47.9487 272.839 47.65C272.372 47.3513 272.008 46.9313 271.747 46.39C271.486 45.8487 271.355 45.2187 271.355 44.5C271.355 43.7813 271.486 43.1513 271.747 42.61C272.008 42.0687 272.372 41.6487 272.839 41.35C273.315 41.0513 273.866 40.902 274.491 40.902C275.042 40.902 275.522 41.014 275.933 41.238C276.344 41.4527 276.661 41.7187 276.885 42.036ZM273.049 44.5C273.049 45.144 273.217 45.6667 273.553 46.068C273.889 46.4693 274.328 46.67 274.869 46.67C275.196 46.67 275.494 46.586 275.765 46.418C276.045 46.25 276.269 46.0073 276.437 45.69C276.614 45.3633 276.703 44.9667 276.703 44.5C276.703 44.0333 276.614 43.6413 276.437 43.324C276.269 42.9973 276.045 42.75 275.765 42.582C275.494 42.414 275.196 42.33 274.869 42.33C274.328 42.33 273.889 42.5307 273.553 42.932C273.217 43.3333 273.049 43.856 273.049 44.5ZM279.865 41H281.447V48H279.865V41ZM280.663 39.936C280.374 39.936 280.131 39.838 279.935 39.642C279.739 39.446 279.641 39.2127 279.641 38.942C279.641 38.6527 279.739 38.41 279.935 38.214C280.131 38.018 280.374 37.92 280.663 37.92C280.943 37.92 281.181 38.018 281.377 38.214C281.573 38.41 281.671 38.6527 281.671 38.942C281.671 39.2127 281.573 39.446 281.377 39.642C281.181 39.838 280.943 39.936 280.663 39.936ZM283.486 41V39.04H285.096V41H286.734V42.386H285.096V45.494C285.096 45.914 285.175 46.208 285.334 46.376C285.492 46.5347 285.698 46.6233 285.95 46.642C286.211 46.6513 286.472 46.6373 286.734 46.6V47.944C286.332 48.028 285.936 48.0513 285.544 48.014C285.161 47.986 284.816 47.8833 284.508 47.706C284.2 47.5193 283.952 47.2487 283.766 46.894C283.579 46.5393 283.486 46.0727 283.486 45.494V42.386H282.506V41H283.486ZM288.604 45.746C288.67 46.0073 288.782 46.208 288.94 46.348C289.108 46.488 289.29 46.586 289.486 46.642C289.682 46.6887 289.869 46.712 290.046 46.712C290.41 46.712 290.695 46.642 290.9 46.502C291.115 46.3527 291.222 46.166 291.222 45.942C291.222 45.7553 291.152 45.6107 291.012 45.508C290.872 45.4053 290.69 45.326 290.466 45.27C290.252 45.2047 290.028 45.1393 289.794 45.074C289.542 45.0087 289.272 44.934 288.982 44.85C288.702 44.766 288.436 44.6493 288.184 44.5C287.932 44.3507 287.727 44.1593 287.568 43.926C287.41 43.6927 287.33 43.4033 287.33 43.058C287.33 42.6193 287.452 42.2413 287.694 41.924C287.937 41.5973 288.268 41.3453 288.688 41.168C289.108 40.9907 289.58 40.902 290.102 40.902C290.728 40.902 291.269 41.0327 291.726 41.294C292.184 41.5553 292.515 41.938 292.72 42.442L291.334 42.89C291.269 42.7593 291.171 42.6473 291.04 42.554C290.919 42.4607 290.77 42.3953 290.592 42.358C290.424 42.3113 290.252 42.288 290.074 42.288C289.776 42.288 289.524 42.3487 289.318 42.47C289.113 42.5913 289.01 42.764 289.01 42.988C289.01 43.1 289.043 43.198 289.108 43.282C289.183 43.366 289.281 43.436 289.402 43.492C289.524 43.5387 289.668 43.5853 289.836 43.632C290.004 43.6693 290.182 43.716 290.368 43.772C290.667 43.856 290.961 43.9493 291.25 44.052C291.549 44.1453 291.82 44.2667 292.062 44.416C292.314 44.5653 292.51 44.7613 292.65 45.004C292.8 45.2467 292.884 45.5547 292.902 45.928C292.902 46.3293 292.786 46.698 292.552 47.034C292.319 47.3607 291.983 47.622 291.544 47.818C291.115 48.0047 290.602 48.098 290.004 48.098C289.314 48.098 288.721 47.9487 288.226 47.65C287.732 47.3513 287.396 46.8707 287.218 46.208L288.604 45.746Z" fill="white"/>
</g>
<path d="M180 0V1H300V0V-1H180V0ZM316 16H315V42H316H317V16H316ZM300 58V57H180V58V59H300V58ZM164 42H165V16H164H163V42H164ZM180 58V57C171.716 57 165 50.2843 165 42H164H163C163 51.3888 170.611 59 180 59V58ZM316 42H315C315 50.2843 308.284 57 300 57V58V59C309.389 59 317 51.3888 317 42H316ZM300 0V1C308.284 1 315 7.71573 315 16H316H317C317 6.61116 309.389 -1 300 -1V0ZM180 0V-1C170.611 -1 163 6.61116 163 16H164H165C165 7.71573 171.716 1 180 1V0Z" fill="#461704" mask="url(#path-8-inside-2_2001_4343)"/>
<path d="M0 86C0 77.1634 7.16344 70 16 70H300C308.837 70 316 77.1634 316 86V102C316 110.837 308.837 118 300 118H16C7.16344 118 0 110.837 0 102V86Z" fill="url(#paint0_radial_2001_4343)"/>
<path d="M124.694 93.147C125.305 93.1627 125.787 93.6711 125.771 94.2832C125.755 94.8934 125.247 95.3756 124.637 95.3591C124.026 95.3434 123.544 94.835 123.56 94.2243C123.575 93.6136 124.084 93.1316 124.694 93.147ZM114.597 90.4162C114.994 90.4162 115.275 90.6969 115.275 91.046V92.1025H116.331C116.679 92.1025 116.96 92.3832 116.96 92.7802C116.96 93.1761 116.679 93.4568 116.331 93.4568H115.275V94.5146C115.275 94.8621 114.994 95.1428 114.597 95.1428C114.2 95.1428 113.92 94.8621 113.92 94.5146V93.4568H112.863C112.515 93.4568 112.235 93.1761 112.235 92.7802C112.235 92.3832 112.515 92.1025 112.863 92.1025H113.92V91.046C113.92 90.6969 114.2 90.4162 114.597 90.4162ZM122.854 90.2005C123.465 90.217 123.947 90.7246 123.932 91.3362C123.915 91.9466 123.406 92.429 122.796 92.412C122.186 92.3966 121.703 91.8879 121.719 91.2777C121.735 90.6668 122.243 90.1846 122.854 90.2005ZM114.392 87.1924C112.136 87.1924 110.919 88.61 110.728 90.3478L109.914 97.7776C109.724 99.5146 111.221 100.526 112.357 100.526C114.588 100.526 116.396 96.8918 117.603 96.8918H120.391C121.598 96.8918 123.405 100.526 125.637 100.526C126.773 100.526 128.311 99.5097 128.079 97.7776L127.265 90.3478C127.032 88.6162 125.856 87.1924 123.602 87.1924C121.945 87.1924 121.588 88.0921 119.753 88.0921H118.241C116.406 88.0921 116.047 87.1924 114.392 87.1924Z" fill="white"/>
<g filter="url(#filter2_d_2001_4343)">
<path d="M144.982 93.984C145.451 93.984 145.83 93.9147 146.118 93.776C146.416 93.6267 146.64 93.4187 146.79 93.152C146.939 92.8747 147.014 92.5493 147.014 92.176C147.014 91.6107 146.848 91.1733 146.518 90.864C146.187 90.544 145.675 90.384 144.982 90.384H142.502V93.984H144.982ZM148.934 92.176C148.934 92.5813 148.864 92.9813 148.726 93.376C148.587 93.7707 148.363 94.1387 148.054 94.48C147.744 94.8107 147.334 95.0773 146.822 95.28C146.32 95.472 145.707 95.568 144.982 95.568H142.502V100H140.598V88.8H144.982C145.878 88.8 146.614 88.9547 147.19 89.264C147.776 89.5627 148.214 89.9733 148.502 90.496C148.79 91.008 148.934 91.568 148.934 92.176ZM150.111 88.48H151.919V100H150.111V88.48ZM158.301 100L158.141 99.024C157.885 99.3653 157.581 99.6267 157.229 99.808C156.877 99.9893 156.408 100.08 155.821 100.08C155.266 100.08 154.786 99.9893 154.381 99.808C153.976 99.616 153.661 99.3547 153.437 99.024C153.224 98.6827 153.117 98.288 153.117 97.84C153.117 97.168 153.362 96.608 153.853 96.16C154.354 95.7013 155.085 95.4187 156.045 95.312L158.141 95.088V94.464C158.141 94.208 158.029 93.9787 157.805 93.776C157.581 93.5627 157.224 93.456 156.733 93.456C156.306 93.456 155.933 93.5627 155.613 93.776C155.304 93.9787 155.096 94.288 154.989 94.704L153.421 94.128C153.624 93.424 154.024 92.8747 154.621 92.48C155.229 92.0853 155.965 91.888 156.829 91.888C157.874 91.888 158.658 92.1493 159.181 92.672C159.704 93.1947 159.965 93.8613 159.965 94.672V100H158.301ZM158.141 96.48L156.221 96.72C155.816 96.7733 155.512 96.8907 155.309 97.072C155.106 97.2427 155.005 97.4613 155.005 97.728C155.005 97.9733 155.101 98.1867 155.293 98.368C155.496 98.5387 155.768 98.624 156.109 98.624C156.546 98.624 156.914 98.544 157.213 98.384C157.522 98.224 157.752 97.9947 157.901 97.696C158.061 97.3973 158.141 97.0293 158.141 96.592V96.48ZM166.942 92H168.846L164.142 103.2H162.35L163.79 99.776L160.67 92H162.67L164.782 97.664L166.942 92ZM182.826 88.8V100H180.89L175.674 91.792V100H173.77V88.8H175.722L180.938 96.976V88.8H182.826ZM188.148 100.112C187.38 100.112 186.692 99.9467 186.084 99.616C185.476 99.2747 185.001 98.8 184.66 98.192C184.318 97.5733 184.148 96.848 184.148 96.016C184.148 95.1733 184.324 94.4427 184.676 93.824C185.028 93.2053 185.513 92.7307 186.132 92.4C186.75 92.0587 187.438 91.888 188.196 91.888C188.964 91.888 189.652 92.0587 190.26 92.4C190.878 92.7307 191.369 93.2053 191.732 93.824C192.094 94.432 192.276 95.152 192.276 95.984C192.276 96.8267 192.089 97.5573 191.716 98.176C191.353 98.7947 190.857 99.2747 190.228 99.616C189.609 99.9467 188.916 100.112 188.148 100.112ZM188.132 98.496C188.505 98.496 188.857 98.4053 189.188 98.224C189.529 98.0427 189.806 97.7707 190.02 97.408C190.233 97.0347 190.34 96.56 190.34 95.984C190.34 95.4293 190.238 94.9707 190.036 94.608C189.833 94.2347 189.566 93.9573 189.236 93.776C188.905 93.5947 188.548 93.504 188.164 93.504C187.79 93.504 187.444 93.5947 187.124 93.776C186.814 93.9573 186.564 94.2347 186.372 94.608C186.18 94.9707 186.084 95.44 186.084 96.016C186.084 96.5707 186.174 97.0347 186.356 97.408C186.548 97.7707 186.798 98.0427 187.108 98.224C187.417 98.4053 187.758 98.496 188.132 98.496ZM197.006 100H195.23L192.766 92H194.606L196.11 97.856L197.662 92H199.422L200.91 97.84L202.398 92H204.206L201.758 100H199.95L198.494 94.592L197.006 100ZM205.287 88.8H207.319L207.095 96.592H205.511L205.287 88.8ZM206.311 100.112C205.98 100.112 205.697 100 205.463 99.776C205.228 99.5413 205.111 99.2533 205.111 98.912C205.111 98.5813 205.228 98.304 205.463 98.08C205.697 97.8453 205.98 97.728 206.311 97.728C206.641 97.728 206.919 97.8453 207.143 98.08C207.377 98.304 207.495 98.5813 207.495 98.912C207.495 99.2533 207.377 99.5413 207.143 99.776C206.919 100 206.641 100.112 206.311 100.112Z" fill="white"/>
</g>
<defs>
<filter id="filter0_f_2001_4343" x="-30" y="-14" width="212" height="166" filterUnits="userSpaceOnUse" color-interpolation-filters="sRGB">
<feFlood flood-opacity="0" result="BackgroundImageFix"/>
<feBlend mode="normal" in="SourceGraphic" in2="BackgroundImageFix" result="shape"/>
<feGaussianBlur stdDeviation="28" result="effect1_foregroundBlur_2001_4343"/>
</filter>
<filter id="filter1_f_2001_4343" x="134" y="-14" width="212" height="166" filterUnits="userSpaceOnUse" color-interpolation-filters="sRGB">
<feFlood flood-opacity="0" result="BackgroundImageFix"/>
<feBlend mode="normal" in="SourceGraphic" in2="BackgroundImageFix" result="shape"/>
<feGaussianBlur stdDeviation="28" result="effect1_foregroundBlur_2001_4343"/>
</filter>
<filter id="filter2_d_2001_4343" x="134.598" y="82.48" width="78.897" height="26.7202" filterUnits="userSpaceOnUse" color-interpolation-filters="sRGB">
<feFlood flood-opacity="0" result="BackgroundImageFix"/>
<feColorMatrix in="SourceAlpha" type="matrix" values="0 0 0 0 0 0 0 0 0 0 0 0 0 0 0 0 0 0 127 0" result="hardAlpha"/>
<feOffset/>
<feGaussianBlur stdDeviation="3"/>
<feComposite in2="hardAlpha" operator="out"/>
<feColorMatrix type="matrix" values="0 0 0 0 0 0 0 0 0 0 0 0 0 0 0 0 0 0 0.2 0"/>
<feBlend mode="normal" in2="BackgroundImageFix" result="effect1_dropShadow_2001_4343"/>
<feBlend mode="normal" in="SourceGraphic" in2="effect1_dropShadow_2001_4343" result="shape"/>
</filter>
<radialGradient id="paint0_radial_2001_4343" cx="0" cy="0" r="1" gradientUnits="userSpaceOnUse" gradientTransform="translate(158.718 118) rotate(-90) scale(48 316)">
<stop stop-color="#C5FAFF"/>
<stop offset="0.54" stop-color="#00C4D4"/>
</radialGradient>
<clipPath id="clip0_2001_4343">
<path d="M0 16C0 7.16345 7.16344 0 16 0H136C144.837 0 152 7.16344 152 16V42C152 50.8366 144.837 58 136 58H16C7.16345 58 0 50.8366 0 42V16Z" fill="white"/>
</clipPath>
<clipPath id="clip1_2001_4343">
<rect width="17.9239" height="16" fill="white" transform="translate(67.0381 12)"/>
</clipPath>
<clipPath id="clip2_2001_4343">
<path d="M164 16C164 7.16345 171.163 0 180 0H300C308.837 0 316 7.16344 316 16V42C316 50.8366 308.837 58 300 58H180C171.163 58 164 50.8366 164 42V16Z" fill="white"/>
</clipPath>
<clipPath id="clip3_2001_4343">
<rect width="17.9239" height="16" fill="white" transform="translate(231.038 12)"/>
</clipPath>
</defs>
</svg>
