<svg width="201" height="91" viewBox="0 0 201 91" fill="none" xmlns="http://www.w3.org/2000/svg">
<path d="M7.74 18.342C6.612 18.342 5.616 18.156 4.752 17.784C3.9 17.4 3.18 16.89 2.592 16.254C2.016 15.606 1.578 14.88 1.278 14.076C0.99 13.26 0.846 12.414 0.846 11.538V11.142C0.846 10.314 0.99 9.504 1.278 8.712C1.566 7.92 1.986 7.206 2.538 6.57C3.102 5.934 3.792 5.43 4.608 5.058C5.436 4.674 6.384 4.482 7.452 4.482C8.604 4.482 9.624 4.698 10.512 5.13C11.4 5.55 12.114 6.144 12.654 6.912C13.194 7.668 13.512 8.55 13.608 9.558H11.034C10.95 8.994 10.74 8.514 10.404 8.118C10.068 7.71 9.642 7.398 9.126 7.182C8.622 6.966 8.064 6.858 7.452 6.858C6.84 6.858 6.282 6.966 5.778 7.182C5.286 7.398 4.866 7.704 4.518 8.1C4.17 8.496 3.9 8.97 3.708 9.522C3.528 10.074 3.438 10.686 3.438 11.358C3.438 12.09 3.54 12.744 3.744 13.32C3.948 13.896 4.236 14.388 4.608 14.796C4.98 15.192 5.43 15.498 5.958 15.714C6.486 15.918 7.08 16.02 7.74 16.02C8.616 16.02 9.384 15.84 10.044 15.48C10.704 15.108 11.184 14.628 11.484 14.04L11.034 16.11V12.726H13.392V15.642C12.828 16.494 12.06 17.16 11.088 17.64C10.116 18.108 9 18.342 7.74 18.342ZM7.326 13.23V11.322H14.49V13.23H7.326ZM20.0966 18.342C19.2326 18.342 18.4706 18.204 17.8106 17.928C17.1506 17.652 16.5926 17.28 16.1366 16.812C15.6806 16.332 15.3326 15.792 15.0926 15.192C14.8646 14.592 14.7506 13.968 14.7506 13.32V12.942C14.7506 12.27 14.8706 11.634 15.1106 11.034C15.3626 10.422 15.7166 9.882 16.1726 9.414C16.6406 8.934 17.2046 8.562 17.8646 8.298C18.5246 8.022 19.2686 7.884 20.0966 7.884C20.9246 7.884 21.6686 8.022 22.3286 8.298C22.9886 8.562 23.5466 8.934 24.0026 9.414C24.4706 9.882 24.8246 10.422 25.0646 11.034C25.3046 11.634 25.4246 12.27 25.4246 12.942V13.32C25.4246 13.968 25.3046 14.592 25.0646 15.192C24.8366 15.792 24.4946 16.332 24.0386 16.812C23.5826 17.28 23.0246 17.652 22.3646 17.928C21.7046 18.204 20.9486 18.342 20.0966 18.342ZM20.0966 16.2C20.7086 16.2 21.2246 16.068 21.6446 15.804C22.0646 15.528 22.3826 15.162 22.5986 14.706C22.8146 14.238 22.9226 13.71 22.9226 13.122C22.9226 12.522 22.8086 11.994 22.5806 11.538C22.3646 11.07 22.0406 10.704 21.6086 10.44C21.1886 10.164 20.6846 10.026 20.0966 10.026C19.5086 10.026 18.9986 10.164 18.5666 10.44C18.1466 10.704 17.8226 11.07 17.5946 11.538C17.3666 11.994 17.2526 12.522 17.2526 13.122C17.2526 13.71 17.3606 14.238 17.5766 14.706C17.8046 15.162 18.1286 15.528 18.5486 15.804C18.9686 16.068 19.4846 16.2 20.0966 16.2ZM26.7414 18V4.86H29.2434V18H26.7414ZM25.5174 6.732V4.86H29.2434V6.732H25.5174ZM35.1497 18.324C34.4657 18.324 33.8357 18.198 33.2597 17.946C32.6837 17.694 32.1857 17.34 31.7657 16.884C31.3457 16.428 31.0217 15.9 30.7937 15.3C30.5657 14.688 30.4517 14.028 30.4517 13.32V12.942C30.4517 12.246 30.5597 11.592 30.7757 10.98C31.0037 10.368 31.3157 9.834 31.7117 9.378C32.1197 8.922 32.6057 8.568 33.1697 8.316C33.7457 8.052 34.3817 7.92 35.0777 7.92C35.8457 7.92 36.5177 8.088 37.0937 8.424C37.6817 8.748 38.1497 9.24 38.4977 9.9C38.8457 10.56 39.0377 11.388 39.0737 12.384L38.3357 11.52V4.86H40.8377V18H38.8577V13.842H39.2897C39.2537 14.838 39.0497 15.672 38.6777 16.344C38.3057 17.004 37.8137 17.502 37.2017 17.838C36.6017 18.162 35.9177 18.324 35.1497 18.324ZM35.7077 16.218C36.1997 16.218 36.6497 16.11 37.0577 15.894C37.4657 15.666 37.7897 15.342 38.0297 14.922C38.2817 14.49 38.4077 13.986 38.4077 13.41V12.69C38.4077 12.114 38.2817 11.634 38.0297 11.25C37.7777 10.854 37.4477 10.554 37.0397 10.35C36.6317 10.134 36.1877 10.026 35.7077 10.026C35.1677 10.026 34.6877 10.158 34.2677 10.422C33.8597 10.674 33.5357 11.034 33.2957 11.502C33.0677 11.97 32.9537 12.516 32.9537 13.14C32.9537 13.764 33.0737 14.31 33.3137 14.778C33.5537 15.234 33.8777 15.588 34.2857 15.84C34.7057 16.092 35.1797 16.218 35.7077 16.218ZM47.0597 18.342C46.2197 18.342 45.4817 18.198 44.8457 17.91C44.2217 17.622 43.6997 17.238 43.2797 16.758C42.8717 16.266 42.5597 15.72 42.3437 15.12C42.1397 14.52 42.0377 13.908 42.0377 13.284V12.942C42.0377 12.294 42.1397 11.67 42.3437 11.07C42.5597 10.458 42.8717 9.918 43.2797 9.45C43.6997 8.97 44.2157 8.592 44.8277 8.316C45.4397 8.028 46.1477 7.884 46.9517 7.884C48.0077 7.884 48.8897 8.118 49.5977 8.586C50.3177 9.042 50.8577 9.648 51.2177 10.404C51.5777 11.148 51.7577 11.952 51.7577 12.816V13.716H43.0997V12.186H50.1917L49.4177 12.942C49.4177 12.318 49.3277 11.784 49.1477 11.34C48.9677 10.896 48.6917 10.554 48.3197 10.314C47.9597 10.074 47.5037 9.954 46.9517 9.954C46.3997 9.954 45.9317 10.08 45.5477 10.332C45.1637 10.584 44.8697 10.95 44.6657 11.43C44.4737 11.898 44.3777 12.462 44.3777 13.122C44.3777 13.734 44.4737 14.28 44.6657 14.76C44.8577 15.228 45.1517 15.6 45.5477 15.876C45.9437 16.14 46.4477 16.272 47.0597 16.272C47.6717 16.272 48.1697 16.152 48.5537 15.912C48.9377 15.66 49.1837 15.354 49.2917 14.994H51.5957C51.4517 15.666 51.1757 16.254 50.7677 16.758C50.3597 17.262 49.8377 17.652 49.2017 17.928C48.5777 18.204 47.8637 18.342 47.0597 18.342ZM52.8478 18V8.226H54.8278V12.42H54.6478C54.6478 11.424 54.7798 10.596 55.0438 9.936C55.3078 9.264 55.6978 8.76 56.2138 8.424C56.7418 8.088 57.3958 7.92 58.1758 7.92H58.2838C59.4478 7.92 60.3298 8.298 60.9298 9.054C61.5298 9.798 61.8298 10.914 61.8298 12.402V18H59.3278V12.186C59.3278 11.586 59.1538 11.1 58.8058 10.728C58.4698 10.356 58.0018 10.17 57.4018 10.17C56.7898 10.17 56.2918 10.362 55.9078 10.746C55.5358 11.118 55.3498 11.622 55.3498 12.258V18H52.8478ZM69.1944 18V6.75H71.7504V18H69.1944ZM65.3964 7.11V4.86H75.5484V7.11H65.3964ZM75.8107 18V8.226H77.7907V12.366H77.7367C77.7367 10.962 78.0367 9.9 78.6367 9.18C79.2367 8.46 80.1187 8.1 81.2827 8.1H81.6427V10.278H80.9587C80.1187 10.278 79.4647 10.506 78.9967 10.962C78.5407 11.406 78.3127 12.054 78.3127 12.906V18H75.8107ZM86.6202 18.342C85.7802 18.342 85.0422 18.198 84.4062 17.91C83.7822 17.622 83.2602 17.238 82.8402 16.758C82.4322 16.266 82.1202 15.72 81.9042 15.12C81.7002 14.52 81.5982 13.908 81.5982 13.284V12.942C81.5982 12.294 81.7002 11.67 81.9042 11.07C82.1202 10.458 82.4322 9.918 82.8402 9.45C83.2602 8.97 83.7762 8.592 84.3882 8.316C85.0002 8.028 85.7082 7.884 86.5122 7.884C87.5682 7.884 88.4502 8.118 89.1582 8.586C89.8782 9.042 90.4182 9.648 90.7782 10.404C91.1382 11.148 91.3182 11.952 91.3182 12.816V13.716H82.6602V12.186H89.7522L88.9782 12.942C88.9782 12.318 88.8882 11.784 88.7082 11.34C88.5282 10.896 88.2522 10.554 87.8802 10.314C87.5202 10.074 87.0642 9.954 86.5122 9.954C85.9602 9.954 85.4922 10.08 85.1082 10.332C84.7242 10.584 84.4302 10.95 84.2262 11.43C84.0342 11.898 83.9382 12.462 83.9382 13.122C83.9382 13.734 84.0342 14.28 84.2262 14.76C84.4182 15.228 84.7122 15.6 85.1082 15.876C85.5042 16.14 86.0082 16.272 86.6202 16.272C87.2322 16.272 87.7302 16.152 88.1142 15.912C88.4982 15.66 88.7442 15.354 88.8522 14.994H91.1562C91.0122 15.666 90.7362 16.254 90.3282 16.758C89.9202 17.262 89.3982 17.652 88.7622 17.928C88.1382 18.204 87.4242 18.342 86.6202 18.342ZM98.3303 18V15.102H97.9163V11.88C97.9163 11.316 97.7783 10.896 97.5023 10.62C97.2263 10.344 96.8003 10.206 96.2243 10.206C95.9243 10.206 95.5643 10.212 95.1443 10.224C94.7243 10.236 94.2983 10.254 93.8663 10.278C93.4463 10.29 93.0683 10.308 92.7323 10.332V8.208C93.0083 8.184 93.3203 8.16 93.6683 8.136C94.0163 8.112 94.3703 8.1 94.7303 8.1C95.1023 8.088 95.4503 8.082 95.7743 8.082C96.7823 8.082 97.6163 8.214 98.2763 8.478C98.9483 8.742 99.4523 9.156 99.7883 9.72C100.136 10.284 100.31 11.022 100.31 11.934V18H98.3303ZM95.1803 18.252C94.4723 18.252 93.8483 18.126 93.3083 17.874C92.7803 17.622 92.3663 17.262 92.0663 16.794C91.7783 16.326 91.6343 15.762 91.6343 15.102C91.6343 14.382 91.8083 13.794 92.1563 13.338C92.5163 12.882 93.0143 12.54 93.6503 12.312C94.2983 12.084 95.0543 11.97 95.9183 11.97H98.1863V13.464H95.8823C95.3063 13.464 94.8623 13.608 94.5503 13.896C94.2503 14.172 94.1003 14.532 94.1003 14.976C94.1003 15.42 94.2503 15.78 94.5503 16.056C94.8623 16.332 95.3063 16.47 95.8823 16.47C96.2303 16.47 96.5483 16.41 96.8363 16.29C97.1363 16.158 97.3823 15.942 97.5743 15.642C97.7783 15.33 97.8923 14.91 97.9163 14.382L98.5283 15.084C98.4683 15.768 98.3003 16.344 98.0243 16.812C97.7603 17.28 97.3883 17.64 96.9083 17.892C96.4403 18.132 95.8643 18.252 95.1803 18.252ZM105.536 18.306C104.192 18.306 103.136 18.024 102.368 17.46C101.612 16.884 101.216 16.092 101.18 15.084H103.43C103.466 15.42 103.652 15.726 103.988 16.002C104.324 16.278 104.852 16.416 105.572 16.416C106.172 16.416 106.646 16.308 106.994 16.092C107.354 15.876 107.534 15.582 107.534 15.21C107.534 14.886 107.396 14.628 107.12 14.436C106.856 14.244 106.4 14.118 105.752 14.058L104.888 13.968C103.796 13.848 102.956 13.536 102.368 13.032C101.78 12.528 101.486 11.856 101.486 11.016C101.486 10.344 101.654 9.78 101.99 9.324C102.326 8.868 102.788 8.526 103.376 8.298C103.976 8.058 104.66 7.938 105.428 7.938C106.628 7.938 107.6 8.202 108.344 8.73C109.088 9.258 109.478 10.032 109.514 11.052H107.264C107.24 10.716 107.072 10.428 106.76 10.188C106.448 9.948 105.998 9.828 105.41 9.828C104.882 9.828 104.474 9.93 104.186 10.134C103.898 10.338 103.754 10.602 103.754 10.926C103.754 11.238 103.868 11.478 104.096 11.646C104.336 11.814 104.72 11.928 105.248 11.988L106.112 12.078C107.264 12.198 108.164 12.516 108.812 13.032C109.472 13.548 109.802 14.244 109.802 15.12C109.802 15.768 109.622 16.332 109.262 16.812C108.914 17.28 108.422 17.646 107.786 17.91C107.15 18.174 106.4 18.306 105.536 18.306ZM114.199 18.306C113.071 18.306 112.195 17.934 111.571 17.19C110.959 16.446 110.653 15.342 110.653 13.878V8.208H113.155V14.094C113.155 14.694 113.323 15.174 113.659 15.534C113.995 15.882 114.451 16.056 115.027 16.056C115.603 16.056 116.071 15.87 116.431 15.498C116.803 15.126 116.989 14.622 116.989 13.986V8.208H119.491V18H117.511V13.842H117.709C117.709 14.826 117.583 15.648 117.331 16.308C117.079 16.968 116.701 17.466 116.197 17.802C115.693 18.138 115.063 18.306 114.307 18.306H114.199ZM121.365 18V8.226H123.345V12.366H123.291C123.291 10.962 123.591 9.9 124.191 9.18C124.791 8.46 125.673 8.1 126.837 8.1H127.197V10.278H126.513C125.673 10.278 125.019 10.506 124.551 10.962C124.095 11.406 123.867 12.054 123.867 12.906V18H121.365ZM132.175 18.342C131.335 18.342 130.597 18.198 129.961 17.91C129.337 17.622 128.815 17.238 128.395 16.758C127.987 16.266 127.675 15.72 127.459 15.12C127.255 14.52 127.153 13.908 127.153 13.284V12.942C127.153 12.294 127.255 11.67 127.459 11.07C127.675 10.458 127.987 9.918 128.395 9.45C128.815 8.97 129.331 8.592 129.943 8.316C130.555 8.028 131.263 7.884 132.067 7.884C133.123 7.884 134.005 8.118 134.713 8.586C135.433 9.042 135.973 9.648 136.333 10.404C136.693 11.148 136.873 11.952 136.873 12.816V13.716H128.215V12.186H135.307L134.533 12.942C134.533 12.318 134.443 11.784 134.263 11.34C134.083 10.896 133.807 10.554 133.435 10.314C133.075 10.074 132.619 9.954 132.067 9.954C131.515 9.954 131.047 10.08 130.663 10.332C130.279 10.584 129.985 10.95 129.781 11.43C129.589 11.898 129.493 12.462 129.493 13.122C129.493 13.734 129.589 14.28 129.781 14.76C129.973 15.228 130.267 15.6 130.663 15.876C131.059 16.14 131.563 16.272 132.175 16.272C132.787 16.272 133.285 16.152 133.669 15.912C134.053 15.66 134.299 15.354 134.407 14.994H136.711C136.567 15.666 136.291 16.254 135.883 16.758C135.475 17.262 134.953 17.652 134.317 17.928C133.693 18.204 132.979 18.342 132.175 18.342Z" fill="white"/>
<path d="M4.144 32.6H4.928V46.2H4.144V32.6ZM1.984 42.152C2.048 42.44 2.18133 42.728 2.384 43.016C2.59733 43.2933 2.88533 43.528 3.248 43.72C3.62133 43.9013 4.096 43.992 4.672 43.992C5.49333 43.992 6.10133 43.8 6.496 43.416C6.89067 43.032 7.088 42.5787 7.088 42.056C7.088 41.64 6.976 41.2987 6.752 41.032C6.528 40.7653 6.224 40.5467 5.84 40.376C5.456 40.1947 5.024 40.0347 4.544 39.896C4.11733 39.7787 3.69067 39.6507 3.264 39.512C2.848 39.3627 2.46933 39.1813 2.128 38.968C1.78667 38.744 1.51467 38.456 1.312 38.104C1.10933 37.752 1.008 37.3147 1.008 36.792C1.008 36.1627 1.15733 35.6187 1.456 35.16C1.75467 34.6907 2.176 34.328 2.72 34.072C3.264 33.816 3.89867 33.688 4.624 33.688C5.25333 33.688 5.80267 33.7787 6.272 33.96C6.74133 34.1413 7.13067 34.3973 7.44 34.728C7.76 35.048 7.99467 35.4213 8.144 35.848L7.008 36.28C6.93333 36.0347 6.78933 35.8 6.576 35.576C6.36267 35.3413 6.08533 35.1493 5.744 35C5.40267 34.8507 5.01333 34.776 4.576 34.776C4.14933 34.776 3.76 34.8507 3.408 35C3.06667 35.1493 2.79467 35.3627 2.592 35.64C2.38933 35.9173 2.288 36.2533 2.288 36.648C2.288 37.0747 2.40533 37.416 2.64 37.672C2.88533 37.9173 3.20533 38.12 3.6 38.28C4.00533 38.4293 4.448 38.5733 4.928 38.712C5.36533 38.8507 5.78667 39 6.192 39.16C6.608 39.32 6.976 39.5173 7.296 39.752C7.62667 39.9867 7.888 40.28 8.08 40.632C8.272 40.984 8.368 41.416 8.368 41.928C8.368 42.4933 8.23467 43.0213 7.968 43.512C7.70133 43.992 7.296 44.3813 6.752 44.68C6.21867 44.968 5.53067 45.112 4.688 45.112C3.984 45.112 3.36533 45.0053 2.832 44.792C2.29867 44.568 1.86133 44.2693 1.52 43.896C1.17867 43.5227 0.944 43.096 0.816 42.616L1.984 42.152Z" fill="white"/>
<path d="M15.088 39.4C15.088 38.5787 15.1467 37.8213 15.264 37.128C15.3813 36.424 15.584 35.816 15.872 35.304C16.16 34.792 16.56 34.3973 17.072 34.12C17.5947 33.832 18.2507 33.688 19.04 33.688C19.8293 33.688 20.48 33.832 20.992 34.12C21.504 34.3973 21.904 34.792 22.192 35.304C22.48 35.816 22.6827 36.424 22.8 37.128C22.9173 37.8213 22.976 38.5787 22.976 39.4C22.976 40.232 22.9173 41 22.8 41.704C22.6827 42.3973 22.48 43 22.192 43.512C21.904 44.024 21.504 44.4187 20.992 44.696C20.48 44.9733 19.8293 45.112 19.04 45.112C18.2507 45.112 17.5947 44.9733 17.072 44.696C16.56 44.4187 16.16 44.024 15.872 43.512C15.584 43 15.3813 42.3973 15.264 41.704C15.1467 41 15.088 40.232 15.088 39.4ZM21.68 39.4C21.68 38.7707 21.648 38.184 21.584 37.64C21.5307 37.0853 21.4187 36.6 21.248 36.184C21.0773 35.7573 20.816 35.4267 20.464 35.192C20.112 34.9467 19.6373 34.824 19.04 34.824C18.4533 34.824 17.9787 34.9467 17.616 35.192C17.264 35.4267 16.9973 35.7573 16.816 36.184C16.6453 36.6 16.528 37.0853 16.464 37.64C16.4107 38.184 16.384 38.7707 16.384 39.4C16.384 40.0507 16.4107 40.6533 16.464 41.208C16.528 41.7627 16.6453 42.248 16.816 42.664C16.9973 43.08 17.264 43.4053 17.616 43.64C17.9787 43.864 18.4533 43.976 19.04 43.976C19.6373 43.976 20.112 43.864 20.464 43.64C20.816 43.4053 21.0773 43.08 21.248 42.664C21.4187 42.248 21.5307 41.7627 21.584 41.208C21.648 40.6533 21.68 40.0507 21.68 39.4ZM24.6505 39.4C24.6505 38.5787 24.7092 37.8213 24.8265 37.128C24.9438 36.424 25.1465 35.816 25.4345 35.304C25.7225 34.792 26.1225 34.3973 26.6345 34.12C27.1572 33.832 27.8132 33.688 28.6025 33.688C29.3918 33.688 30.0425 33.832 30.5545 34.12C31.0665 34.3973 31.4665 34.792 31.7545 35.304C32.0425 35.816 32.2452 36.424 32.3625 37.128C32.4798 37.8213 32.5385 38.5787 32.5385 39.4C32.5385 40.232 32.4798 41 32.3625 41.704C32.2452 42.3973 32.0425 43 31.7545 43.512C31.4665 44.024 31.0665 44.4187 30.5545 44.696C30.0425 44.9733 29.3918 45.112 28.6025 45.112C27.8132 45.112 27.1572 44.9733 26.6345 44.696C26.1225 44.4187 25.7225 44.024 25.4345 43.512C25.1465 43 24.9438 42.3973 24.8265 41.704C24.7092 41 24.6505 40.232 24.6505 39.4ZM31.2425 39.4C31.2425 38.7707 31.2105 38.184 31.1465 37.64C31.0932 37.0853 30.9812 36.6 30.8105 36.184C30.6398 35.7573 30.3785 35.4267 30.0265 35.192C29.6745 34.9467 29.1998 34.824 28.6025 34.824C28.0158 34.824 27.5412 34.9467 27.1785 35.192C26.8265 35.4267 26.5598 35.7573 26.3785 36.184C26.2078 36.6 26.0905 37.0853 26.0265 37.64C25.9732 38.184 25.9465 38.7707 25.9465 39.4C25.9465 40.0507 25.9732 40.6533 26.0265 41.208C26.0905 41.7627 26.2078 42.248 26.3785 42.664C26.5598 43.08 26.8265 43.4053 27.1785 43.64C27.5412 43.864 28.0158 43.976 28.6025 43.976C29.1998 43.976 29.6745 43.864 30.0265 43.64C30.3785 43.4053 30.6398 43.08 30.8105 42.664C30.9812 42.248 31.0932 41.7627 31.1465 41.208C31.2105 40.6533 31.2425 40.0507 31.2425 39.4ZM35.013 45.08C34.7677 45.08 34.5597 44.9947 34.389 44.824C34.229 44.6533 34.149 44.4453 34.149 44.2C34.149 43.9547 34.229 43.7467 34.389 43.576C34.5597 43.4053 34.7677 43.32 35.013 43.32C35.2477 43.32 35.4503 43.4053 35.621 43.576C35.7917 43.7467 35.877 43.9547 35.877 44.2C35.877 44.4453 35.7917 44.6533 35.621 44.824C35.4503 44.9947 35.2477 45.08 35.013 45.08ZM37.4786 39.4C37.4786 38.5787 37.5373 37.8213 37.6546 37.128C37.772 36.424 37.9746 35.816 38.2626 35.304C38.5506 34.792 38.9506 34.3973 39.4626 34.12C39.9853 33.832 40.6413 33.688 41.4306 33.688C42.22 33.688 42.8706 33.832 43.3826 34.12C43.8946 34.3973 44.2946 34.792 44.5826 35.304C44.8706 35.816 45.0733 36.424 45.1906 37.128C45.308 37.8213 45.3666 38.5787 45.3666 39.4C45.3666 40.232 45.308 41 45.1906 41.704C45.0733 42.3973 44.8706 43 44.5826 43.512C44.2946 44.024 43.8946 44.4187 43.3826 44.696C42.8706 44.9733 42.22 45.112 41.4306 45.112C40.6413 45.112 39.9853 44.9733 39.4626 44.696C38.9506 44.4187 38.5506 44.024 38.2626 43.512C37.9746 43 37.772 42.3973 37.6546 41.704C37.5373 41 37.4786 40.232 37.4786 39.4ZM44.0706 39.4C44.0706 38.7707 44.0386 38.184 43.9746 37.64C43.9213 37.0853 43.8093 36.6 43.6386 36.184C43.468 35.7573 43.2066 35.4267 42.8546 35.192C42.5026 34.9467 42.028 34.824 41.4306 34.824C40.844 34.824 40.3693 34.9467 40.0066 35.192C39.6546 35.4267 39.388 35.7573 39.2066 36.184C39.036 36.6 38.9186 37.0853 38.8546 37.64C38.8013 38.184 38.7746 38.7707 38.7746 39.4C38.7746 40.0507 38.8013 40.6533 38.8546 41.208C38.9186 41.7627 39.036 42.248 39.2066 42.664C39.388 43.08 39.6546 43.4053 40.0066 43.64C40.3693 43.864 40.844 43.976 41.4306 43.976C42.028 43.976 42.5026 43.864 42.8546 43.64C43.2066 43.4053 43.468 43.08 43.6386 42.664C43.8093 42.248 43.9213 41.7627 43.9746 41.208C44.0386 40.6533 44.0706 40.0507 44.0706 39.4ZM47.0411 39.4C47.0411 38.5787 47.0998 37.8213 47.2171 37.128C47.3345 36.424 47.5371 35.816 47.8251 35.304C48.1131 34.792 48.5131 34.3973 49.0251 34.12C49.5478 33.832 50.2038 33.688 50.9931 33.688C51.7825 33.688 52.4331 33.832 52.9451 34.12C53.4571 34.3973 53.8571 34.792 54.1451 35.304C54.4331 35.816 54.6358 36.424 54.7531 37.128C54.8705 37.8213 54.9291 38.5787 54.9291 39.4C54.9291 40.232 54.8705 41 54.7531 41.704C54.6358 42.3973 54.4331 43 54.1451 43.512C53.8571 44.024 53.4571 44.4187 52.9451 44.696C52.4331 44.9733 51.7825 45.112 50.9931 45.112C50.2038 45.112 49.5478 44.9733 49.0251 44.696C48.5131 44.4187 48.1131 44.024 47.8251 43.512C47.5371 43 47.3345 42.3973 47.2171 41.704C47.0998 41 47.0411 40.232 47.0411 39.4ZM53.6331 39.4C53.6331 38.7707 53.6011 38.184 53.5371 37.64C53.4838 37.0853 53.3718 36.6 53.2011 36.184C53.0305 35.7573 52.7691 35.4267 52.4171 35.192C52.0651 34.9467 51.5905 34.824 50.9931 34.824C50.4065 34.824 49.9318 34.9467 49.5691 35.192C49.2171 35.4267 48.9505 35.7573 48.7691 36.184C48.5985 36.6 48.4811 37.0853 48.4171 37.64C48.3638 38.184 48.3371 38.7707 48.3371 39.4C48.3371 40.0507 48.3638 40.6533 48.4171 41.208C48.4811 41.7627 48.5985 42.248 48.7691 42.664C48.9505 43.08 49.2171 43.4053 49.5691 43.64C49.9318 43.864 50.4065 43.976 50.9931 43.976C51.5905 43.976 52.0651 43.864 52.4171 43.64C52.7691 43.4053 53.0305 43.08 53.2011 42.664C53.3718 42.248 53.4838 41.7627 53.5371 41.208C53.6011 40.6533 53.6331 40.0507 53.6331 39.4Z" fill="white"/>
<path d="M0 67C0 60.3726 5.37258 55 12 55H138C144.627 55 150 60.3726 150 67V79C150 85.6274 144.627 91 138 91H12C5.37258 91 0 85.6274 0 79V67Z" fill="#00545D"/>
<g clip-path="url(#clip0_2001_4288)">
<path d="M28.4873 77.5561L27.8142 76.8829C29.8824 74.0984 29.6082 70.0906 27.013 67.4954C25.0074 65.4898 22.1576 64.8725 19.6802 65.6464L20.5461 67.5455C22.2663 67.0862 24.2035 67.548 25.5819 68.9264C27.3626 70.7071 27.6185 73.4215 26.3265 75.3952L25.4395 74.5081C25.2184 74.5018 25.0429 74.4594 25.0199 74.8084L25.0358 77.539C25.0422 77.7601 25.2266 77.9445 25.4477 77.9509L28.1875 77.976C28.4081 77.982 28.4934 77.7775 28.4873 77.5561ZM18.4266 76.0817C16.7788 74.4339 16.4371 71.9864 17.4193 70.0657L18.2246 70.871C18.4457 70.8774 18.6506 70.7918 18.6442 70.5707L18.6195 67.8313C18.6131 67.6102 18.4287 67.4258 18.2076 67.4194L15.477 67.4035C15.1279 67.4265 15.1703 67.602 15.1767 67.823L15.8517 68.4981C14.1288 71.0197 14.4343 74.9514 16.996 77.5131C18.8705 79.3876 21.4825 80.047 23.8389 79.4941L22.9803 77.5665C21.3879 77.828 19.6773 77.3324 18.4266 76.0817Z" fill="white"/>
</g>
<path d="M47.0872 71.154C47.0872 70.6687 46.9425 70.286 46.6532 70.006C46.3638 69.726 45.9158 69.586 45.3092 69.586H43.1392V72.736H45.3092C45.7198 72.736 46.0512 72.6753 46.3032 72.554C46.5645 72.4233 46.7605 72.2413 46.8912 72.008C47.0218 71.7653 47.0872 71.4807 47.0872 71.154ZM45.3092 68.2C46.0932 68.2 46.7372 68.3353 47.2412 68.606C47.7545 68.8673 48.1372 69.2267 48.3892 69.684C48.6412 70.132 48.7672 70.622 48.7672 71.154C48.7672 71.5087 48.7065 71.8587 48.5852 72.204C48.4638 72.5493 48.2678 72.8713 47.9972 73.17C47.7265 73.4593 47.3672 73.6927 46.9192 73.87C46.4805 74.038 45.9438 74.122 45.3092 74.122H43.1392V78H41.4732V68.2H45.3092ZM46.3032 73.576L48.9772 78H47.1012L44.5252 73.576H46.3032ZM53.076 78.098C52.376 78.098 51.76 77.944 51.228 77.636C50.7053 77.328 50.2946 76.8987 49.996 76.348C49.7066 75.7973 49.562 75.1627 49.562 74.444C49.562 73.7627 49.7066 73.156 49.996 72.624C50.2853 72.092 50.6866 71.672 51.2 71.364C51.7133 71.056 52.2966 70.902 52.95 70.902C53.6126 70.902 54.196 71.0467 54.7 71.336C55.204 71.6253 55.596 72.0313 55.876 72.554C56.1653 73.0673 56.31 73.6647 56.31 74.346C56.31 74.458 56.3053 74.5793 56.296 74.71C56.2866 74.8313 56.2726 74.962 56.254 75.102H51.27C51.3166 75.4287 51.4193 75.7133 51.578 75.956C51.746 76.1893 51.956 76.3713 52.208 76.502C52.46 76.6327 52.7493 76.698 53.076 76.698C53.468 76.698 53.818 76.6187 54.126 76.46C54.4433 76.3013 54.6626 76.0913 54.784 75.83L56.17 76.292C55.89 76.852 55.4746 77.2953 54.924 77.622C54.3733 77.9393 53.7573 78.098 53.076 78.098ZM54.588 73.814C54.5786 73.5247 54.4993 73.2633 54.35 73.03C54.2006 72.7967 54.0046 72.6147 53.762 72.484C53.5193 72.344 53.2486 72.274 52.95 72.274C52.6886 72.274 52.4413 72.3393 52.208 72.47C51.9746 72.6007 51.774 72.7827 51.606 73.016C51.4473 73.24 51.3446 73.506 51.298 73.814H54.588ZM57.6233 70.286C57.6233 69.7167 57.7166 69.25 57.9033 68.886C58.0993 68.5127 58.3979 68.242 58.7993 68.074C59.2099 67.906 59.7373 67.8547 60.3813 67.92V69.292C59.9426 69.2453 59.6346 69.3107 59.4573 69.488C59.2893 69.656 59.2053 69.9267 59.2053 70.3V71H60.4653V72.386H59.2053V78H57.6233V72.386H56.7693V71H57.6233V70.286ZM61.3403 71H62.7683L62.8943 71.868C63.081 71.6347 63.3003 71.4433 63.5523 71.294C63.8043 71.1353 64.075 71.028 64.3643 70.972C64.663 70.916 64.9617 70.9253 65.2603 71V72.456C65.0177 72.372 64.7563 72.3533 64.4763 72.4C64.2057 72.4373 63.9537 72.54 63.7203 72.708C63.487 72.8667 63.2957 73.0953 63.1463 73.394C62.997 73.6833 62.9223 74.0427 62.9223 74.472V78H61.3403V71ZM69.1443 78.098C68.4443 78.098 67.8283 77.944 67.2963 77.636C66.7736 77.328 66.363 76.8987 66.0643 76.348C65.775 75.7973 65.6303 75.1627 65.6303 74.444C65.6303 73.7627 65.775 73.156 66.0643 72.624C66.3536 72.092 66.755 71.672 67.2683 71.364C67.7816 71.056 68.365 70.902 69.0183 70.902C69.681 70.902 70.2643 71.0467 70.7683 71.336C71.2723 71.6253 71.6643 72.0313 71.9443 72.554C72.2336 73.0673 72.3783 73.6647 72.3783 74.346C72.3783 74.458 72.3736 74.5793 72.3643 74.71C72.355 74.8313 72.341 74.962 72.3223 75.102H67.3383C67.385 75.4287 67.4876 75.7133 67.6463 75.956C67.8143 76.1893 68.0243 76.3713 68.2763 76.502C68.5283 76.6327 68.8176 76.698 69.1443 76.698C69.5363 76.698 69.8863 76.6187 70.1943 76.46C70.5116 76.3013 70.731 76.0913 70.8523 75.83L72.2383 76.292C71.9583 76.852 71.543 77.2953 70.9923 77.622C70.4416 77.9393 69.8256 78.098 69.1443 78.098ZM70.6563 73.814C70.647 73.5247 70.5676 73.2633 70.4183 73.03C70.269 72.7967 70.073 72.6147 69.8303 72.484C69.5876 72.344 69.317 72.274 69.0183 72.274C68.757 72.274 68.5096 72.3393 68.2763 72.47C68.043 72.6007 67.8423 72.7827 67.6743 73.016C67.5156 73.24 67.413 73.506 67.3663 73.814H70.6563ZM74.3776 75.746C74.443 76.0073 74.555 76.208 74.7136 76.348C74.8816 76.488 75.0636 76.586 75.2596 76.642C75.4556 76.6887 75.6423 76.712 75.8196 76.712C76.1836 76.712 76.4683 76.642 76.6736 76.502C76.8883 76.3527 76.9956 76.166 76.9956 75.942C76.9956 75.7553 76.9256 75.6107 76.7856 75.508C76.6456 75.4053 76.4636 75.326 76.2396 75.27C76.025 75.2047 75.801 75.1393 75.5676 75.074C75.3156 75.0087 75.045 74.934 74.7556 74.85C74.4756 74.766 74.2096 74.6493 73.9576 74.5C73.7056 74.3507 73.5003 74.1593 73.3416 73.926C73.183 73.6927 73.1036 73.4033 73.1036 73.058C73.1036 72.6193 73.225 72.2413 73.4676 71.924C73.7103 71.5973 74.0416 71.3453 74.4616 71.168C74.8816 70.9907 75.353 70.902 75.8756 70.902C76.501 70.902 77.0423 71.0327 77.4996 71.294C77.957 71.5553 78.2883 71.938 78.4936 72.442L77.1076 72.89C77.0423 72.7593 76.9443 72.6473 76.8136 72.554C76.6923 72.4607 76.543 72.3953 76.3656 72.358C76.1976 72.3113 76.025 72.288 75.8476 72.288C75.549 72.288 75.297 72.3487 75.0916 72.47C74.8863 72.5913 74.7836 72.764 74.7836 72.988C74.7836 73.1 74.8163 73.198 74.8816 73.282C74.9563 73.366 75.0543 73.436 75.1756 73.492C75.297 73.5387 75.4416 73.5853 75.6096 73.632C75.7776 73.6693 75.955 73.716 76.1416 73.772C76.4403 73.856 76.7343 73.9493 77.0236 74.052C77.3223 74.1453 77.593 74.2667 77.8356 74.416C78.0876 74.5653 78.2836 74.7613 78.4236 75.004C78.573 75.2467 78.657 75.5547 78.6756 75.928C78.6756 76.3293 78.559 76.698 78.3256 77.034C78.0923 77.3607 77.7563 77.622 77.3176 77.818C76.8883 78.0047 76.375 78.098 75.7776 78.098C75.087 78.098 74.4943 77.9487 73.9996 77.65C73.505 77.3513 73.169 76.8707 72.9916 76.208L74.3776 75.746ZM79.6646 67.92H81.2466V71.644C81.4706 71.42 81.7459 71.2427 82.0726 71.112C82.3992 70.972 82.7632 70.902 83.1646 70.902C83.6872 70.902 84.1446 71.0187 84.5366 71.252C84.9379 71.476 85.2459 71.812 85.4606 72.26C85.6846 72.6987 85.7966 73.2493 85.7966 73.912V78H84.1586V74.122C84.1586 73.534 84.0372 73.0907 83.7946 72.792C83.5612 72.4933 83.2066 72.344 82.7306 72.344C82.2452 72.344 81.8766 72.498 81.6246 72.806C81.3726 73.114 81.2466 73.562 81.2466 74.15V78H79.6646V67.92ZM96.3707 70.972C96.3707 70.5333 96.2261 70.1927 95.9367 69.95C95.6567 69.7073 95.2601 69.586 94.7467 69.586H92.2407V72.344H94.7467C95.2601 72.344 95.6567 72.2273 95.9367 71.994C96.2261 71.7513 96.3707 71.4107 96.3707 70.972ZM90.5747 78V68.2H94.9147C95.6054 68.2 96.1794 68.3167 96.6367 68.55C97.1034 68.7833 97.4534 69.096 97.6867 69.488C97.9294 69.8707 98.0507 70.2953 98.0507 70.762C98.0507 71.1913 97.9714 71.5553 97.8127 71.854C97.6541 72.1527 97.4394 72.3907 97.1687 72.568C96.8981 72.7453 96.5947 72.8713 96.2587 72.946V73.058C96.6601 73.114 97.0147 73.2307 97.3227 73.408C97.6307 73.5853 97.8687 73.8373 98.0367 74.164C98.2047 74.4907 98.2887 74.8967 98.2887 75.382C98.2887 75.8767 98.1581 76.3247 97.8967 76.726C97.6447 77.118 97.2807 77.4307 96.8047 77.664C96.3287 77.888 95.7594 78 95.0967 78H90.5747ZM92.2407 76.614H94.9287C95.4607 76.614 95.8761 76.4927 96.1747 76.25C96.4734 76.0073 96.6227 75.6573 96.6227 75.2C96.6227 74.7147 96.4594 74.346 96.1327 74.094C95.8154 73.842 95.3954 73.716 94.8727 73.716H92.2407V76.614ZM103.583 78L103.443 77.146C103.219 77.4447 102.953 77.6733 102.645 77.832C102.337 77.9907 101.926 78.07 101.413 78.07C100.927 78.07 100.507 77.9907 100.153 77.832C99.798 77.664 99.5227 77.4353 99.3267 77.146C99.14 76.8473 99.0467 76.502 99.0467 76.11C99.0467 75.522 99.2613 75.032 99.6907 74.64C100.129 74.2387 100.769 73.9913 101.609 73.898L103.443 73.702V73.156C103.443 72.932 103.345 72.7313 103.149 72.554C102.953 72.3673 102.64 72.274 102.211 72.274C101.837 72.274 101.511 72.3673 101.231 72.554C100.96 72.7313 100.778 73.002 100.685 73.366L99.3127 72.862C99.49 72.246 99.84 71.7653 100.363 71.42C100.895 71.0747 101.539 70.902 102.295 70.902C103.209 70.902 103.895 71.1307 104.353 71.588C104.81 72.0453 105.039 72.6287 105.039 73.338V78H103.583ZM103.443 74.92L101.763 75.13C101.408 75.1767 101.142 75.2793 100.965 75.438C100.787 75.5873 100.699 75.7787 100.699 76.012C100.699 76.2267 100.783 76.4133 100.951 76.572C101.128 76.7213 101.366 76.796 101.665 76.796C102.047 76.796 102.369 76.726 102.631 76.586C102.901 76.446 103.102 76.2453 103.233 75.984C103.373 75.7227 103.443 75.4007 103.443 75.018V74.92ZM106.293 67.92H107.875V78H106.293V67.92ZM113.397 78L113.257 77.146C113.033 77.4447 112.767 77.6733 112.459 77.832C112.151 77.9907 111.74 78.07 111.227 78.07C110.742 78.07 110.322 77.9907 109.967 77.832C109.612 77.664 109.337 77.4353 109.141 77.146C108.954 76.8473 108.861 76.502 108.861 76.11C108.861 75.522 109.076 75.032 109.505 74.64C109.944 74.2387 110.583 73.9913 111.423 73.898L113.257 73.702V73.156C113.257 72.932 113.159 72.7313 112.963 72.554C112.767 72.3673 112.454 72.274 112.025 72.274C111.652 72.274 111.325 72.3673 111.045 72.554C110.774 72.7313 110.592 73.002 110.499 73.366L109.127 72.862C109.304 72.246 109.654 71.7653 110.177 71.42C110.709 71.0747 111.353 70.902 112.109 70.902C113.024 70.902 113.71 71.1307 114.167 71.588C114.624 72.0453 114.853 72.6287 114.853 73.338V78H113.397ZM113.257 74.92L111.577 75.13C111.222 75.1767 110.956 75.2793 110.779 75.438C110.602 75.5873 110.513 75.7787 110.513 76.012C110.513 76.2267 110.597 76.4133 110.765 76.572C110.942 76.7213 111.18 76.796 111.479 76.796C111.862 76.796 112.184 76.726 112.445 76.586C112.716 76.446 112.916 76.2453 113.047 75.984C113.187 75.7227 113.257 75.4007 113.257 75.018V74.92ZM116.108 71H117.536L117.648 71.686C117.881 71.4433 118.157 71.252 118.474 71.112C118.801 70.972 119.151 70.902 119.524 70.902C120.075 70.902 120.546 71.0187 120.938 71.252C121.339 71.476 121.647 71.812 121.862 72.26C122.077 72.6987 122.184 73.2493 122.184 73.912V78H120.602V74.122C120.602 73.534 120.481 73.0907 120.238 72.792C120.005 72.4933 119.65 72.344 119.174 72.344C118.689 72.344 118.32 72.498 118.068 72.806C117.816 73.1047 117.69 73.548 117.69 74.136V78H116.108V71ZM126.452 78.098C125.78 78.098 125.188 77.9487 124.674 77.65C124.161 77.342 123.76 76.922 123.47 76.39C123.19 75.858 123.05 75.2373 123.05 74.528C123.05 73.8093 123.195 73.1793 123.484 72.638C123.774 72.0967 124.175 71.672 124.688 71.364C125.211 71.056 125.813 70.902 126.494 70.902C127.213 70.902 127.852 71.0747 128.412 71.42C128.972 71.756 129.374 72.2133 129.616 72.792L128.174 73.268C128.053 72.9787 127.843 72.75 127.544 72.582C127.255 72.4047 126.924 72.316 126.55 72.316C126.177 72.316 125.855 72.4093 125.584 72.596C125.314 72.7733 125.104 73.0253 124.954 73.352C124.814 73.6787 124.744 74.066 124.744 74.514C124.744 75.186 124.908 75.718 125.234 76.11C125.561 76.4927 126.009 76.684 126.578 76.684C126.942 76.684 127.269 76.6047 127.558 76.446C127.848 76.278 128.072 76.0447 128.23 75.746L129.644 76.236C129.374 76.8053 128.949 77.258 128.37 77.594C127.801 77.93 127.162 78.098 126.452 78.098ZM133.762 78.098C133.062 78.098 132.446 77.944 131.914 77.636C131.391 77.328 130.98 76.8987 130.682 76.348C130.392 75.7973 130.248 75.1627 130.248 74.444C130.248 73.7627 130.392 73.156 130.682 72.624C130.971 72.092 131.372 71.672 131.886 71.364C132.399 71.056 132.982 70.902 133.636 70.902C134.298 70.902 134.882 71.0467 135.386 71.336C135.89 71.6253 136.282 72.0313 136.562 72.554C136.851 73.0673 136.996 73.6647 136.996 74.346C136.996 74.458 136.991 74.5793 136.982 74.71C136.972 74.8313 136.958 74.962 136.94 75.102H131.956C132.002 75.4287 132.105 75.7133 132.264 75.956C132.432 76.1893 132.642 76.3713 132.894 76.502C133.146 76.6327 133.435 76.698 133.762 76.698C134.154 76.698 134.504 76.6187 134.812 76.46C135.129 76.3013 135.348 76.0913 135.47 75.83L136.856 76.292C136.576 76.852 136.16 77.2953 135.61 77.622C135.059 77.9393 134.443 78.098 133.762 78.098ZM135.274 73.814C135.264 73.5247 135.185 73.2633 135.036 73.03C134.886 72.7967 134.69 72.6147 134.448 72.484C134.205 72.344 133.934 72.274 133.636 72.274C133.374 72.274 133.127 72.3393 132.894 72.47C132.66 72.6007 132.46 72.7827 132.292 73.016C132.133 73.24 132.03 73.506 131.984 73.814H135.274Z" fill="white"/>
<defs>
<clipPath id="clip0_2001_4288">
<rect width="20" height="20" fill="white" transform="translate(12 63)"/>
</clipPath>
</defs>
</svg>
