<svg width="316" height="255" viewBox="0 0 316 255" fill="none" xmlns="http://www.w3.org/2000/svg">
<path d="M0 16C0 7.16345 7.16344 0 16 0H300C308.837 0 316 7.16344 316 16V239C316 247.837 308.837 255 300 255H16C7.16344 255 0 247.837 0 239V16Z" fill="#091516"/>
<g clip-path="url(#clip0_2001_4298)">
<circle cx="22" cy="20" r="5" fill="black"/>
<path d="M26.1665 12.7836C27.4234 13.5093 28.469 14.5507 29.1997 15.8047C29.9304 17.0586 30.321 18.4817 30.3327 19.933C30.3444 21.3843 29.9769 22.8135 29.2665 24.0792C28.5561 25.3448 27.5275 26.4029 26.2825 27.1488C25.0375 27.8948 23.6193 28.3026 22.1683 28.332C20.7172 28.3613 19.2836 28.0112 18.0095 27.3163C16.7353 26.6213 15.6647 25.6057 14.9037 24.3698C14.1427 23.134 13.7177 21.7208 13.6707 20.2702L13.6665 20.0002L13.6707 19.7302C13.7173 18.2911 14.1361 16.8885 14.8862 15.6594C15.6363 14.4303 16.692 13.4164 17.9506 12.7168C19.2091 12.0172 20.6275 11.6556 22.0673 11.6673C23.5072 11.679 24.9195 12.0636 26.1665 12.7836ZM25.089 17.7444C24.9455 17.6009 24.7546 17.5147 24.5521 17.502C24.3496 17.4893 24.1493 17.5509 23.989 17.6752L23.9107 17.7444L21.1665 20.4877L20.089 19.4111L20.0107 19.3419C19.8503 19.2176 19.6501 19.1561 19.4477 19.1689C19.2452 19.1816 19.0543 19.2678 18.9109 19.4113C18.7674 19.5547 18.6812 19.7456 18.6685 19.9481C18.6557 20.1505 18.7172 20.3507 18.8415 20.5111L18.9107 20.5894L20.5773 22.2561L20.6557 22.3252C20.8018 22.4386 20.9815 22.5002 21.1665 22.5002C21.3515 22.5002 21.5312 22.4386 21.6773 22.3252L21.7557 22.2561L25.089 18.9227L25.1582 18.8444C25.2825 18.6841 25.3441 18.4839 25.3314 18.2813C25.3187 18.0788 25.2325 17.8879 25.089 17.7444Z" fill="#00BC38"/>
</g>
<path d="M46.1644 16.384H45.5884L42.2284 26H40.2764L44.2444 14.8H47.4764L51.4604 26H49.5084L46.1644 16.384ZM42.4524 21.696H48.9804V23.264H42.4524V21.696ZM55.5983 26.112C54.8303 26.112 54.153 25.9413 53.5663 25.6C52.9796 25.248 52.521 24.768 52.1903 24.16C51.8703 23.552 51.7103 22.8427 51.7103 22.032C51.7103 21.2107 51.8756 20.4907 52.2063 19.872C52.537 19.2533 52.9956 18.768 53.5823 18.416C54.1796 18.064 54.8676 17.888 55.6463 17.888C56.4676 17.888 57.1983 18.0853 57.8383 18.48C58.4783 18.864 58.937 19.3867 59.2143 20.048L57.5663 20.592C57.4276 20.2613 57.1876 20 56.8463 19.808C56.5156 19.6053 56.137 19.504 55.7103 19.504C55.2836 19.504 54.9156 19.6107 54.6063 19.824C54.297 20.0267 54.057 20.3147 53.8863 20.688C53.7263 21.0613 53.6463 21.504 53.6463 22.016C53.6463 22.784 53.833 23.392 54.2063 23.84C54.5796 24.2773 55.0916 24.496 55.7423 24.496C56.1583 24.496 56.5316 24.4053 56.8623 24.224C57.193 24.032 57.449 23.7653 57.6303 23.424L59.2463 23.984C58.937 24.6347 58.4516 25.152 57.7903 25.536C57.1396 25.92 56.409 26.112 55.5983 26.112ZM60.9512 18V15.76H62.7912V18H64.6632V19.584H62.7912V23.136C62.7912 23.616 62.8819 23.952 63.0632 24.144C63.2445 24.3253 63.4792 24.4267 63.7672 24.448C64.0659 24.4587 64.3645 24.4427 64.6632 24.4V25.936C64.2045 26.032 63.7512 26.0587 63.3032 26.016C62.8659 25.984 62.4712 25.8667 62.1192 25.664C61.7672 25.4507 61.4845 25.1413 61.2712 24.736C61.0579 24.3307 60.9512 23.7973 60.9512 23.136V19.584H59.8312V18H60.9512ZM65.9764 18H67.7844V26H65.9764V18ZM66.8884 16.784C66.5578 16.784 66.2804 16.672 66.0564 16.448C65.8324 16.224 65.7204 15.9573 65.7204 15.648C65.7204 15.3173 65.8324 15.04 66.0564 14.816C66.2804 14.592 66.5578 14.48 66.8884 14.48C67.2084 14.48 67.4804 14.592 67.7044 14.816C67.9284 15.04 68.0404 15.3173 68.0404 15.648C68.0404 15.9573 67.9284 16.224 67.7044 16.448C67.4804 16.672 67.2084 16.784 66.8884 16.784ZM70.9056 18L73.0016 24.08L75.1136 18H77.0176L73.9776 26H71.9936L68.9696 18H70.9056ZM81.5232 26.112C80.7232 26.112 80.0192 25.936 79.4112 25.584C78.8139 25.232 78.3445 24.7413 78.0032 24.112C77.6725 23.4827 77.5072 22.7573 77.5072 21.936C77.5072 21.1573 77.6725 20.464 78.0032 19.856C78.3339 19.248 78.7925 18.768 79.3792 18.416C79.9659 18.064 80.6325 17.888 81.3792 17.888C82.1365 17.888 82.8032 18.0533 83.3792 18.384C83.9552 18.7147 84.4032 19.1787 84.7232 19.776C85.0539 20.3627 85.2192 21.0453 85.2192 21.824C85.2192 21.952 85.2139 22.0907 85.2032 22.24C85.1925 22.3787 85.1765 22.528 85.1552 22.688H79.4592C79.5125 23.0613 79.6299 23.3867 79.8112 23.664C80.0032 23.9307 80.2432 24.1387 80.5312 24.288C80.8192 24.4373 81.1499 24.512 81.5232 24.512C81.9712 24.512 82.3712 24.4213 82.7232 24.24C83.0859 24.0587 83.3365 23.8187 83.4752 23.52L85.0592 24.048C84.7392 24.688 84.2645 25.1947 83.6352 25.568C83.0059 25.9307 82.3019 26.112 81.5232 26.112ZM83.2512 21.216C83.2405 20.8853 83.1499 20.5867 82.9792 20.32C82.8085 20.0533 82.5845 19.8453 82.3072 19.696C82.0299 19.536 81.7205 19.456 81.3792 19.456C81.0805 19.456 80.7979 19.5307 80.5312 19.68C80.2645 19.8293 80.0352 20.0373 79.8432 20.304C79.6619 20.56 79.5445 20.864 79.4912 21.216H83.2512Z" fill="#00BC38"/>
<path d="M26.1665 44.5002H17.8332C17.4936 44.4517 17.1474 44.483 16.822 44.5915C16.4966 44.7 16.2009 44.8828 15.9583 45.1253C15.7158 45.3679 15.533 45.6636 15.4245 45.989C15.316 46.3144 15.2847 46.6606 15.3332 47.0002V57.0002C15.2847 57.3398 15.316 57.686 15.4245 58.0114C15.533 58.3368 15.7158 58.6325 15.9583 58.875C16.2009 59.1176 16.4966 59.3004 16.822 59.4089C17.1474 59.5174 17.4936 59.5486 17.8332 59.5002H26.1665C26.5061 59.5486 26.8523 59.5174 27.1777 59.4089C27.5031 59.3004 27.7988 59.1176 28.0414 58.875C28.2839 58.6325 28.4667 58.3368 28.5752 58.0114C28.6837 57.686 28.715 57.3398 28.6665 57.0002V47.0002C28.715 46.6606 28.6837 46.3144 28.5752 45.989C28.4667 45.6636 28.2839 45.3679 28.0414 45.1253C27.7988 44.8828 27.5031 44.7 27.1777 44.5915C26.8523 44.483 26.5061 44.4517 26.1665 44.5002ZM20.7499 46.3752H23.2499C23.4156 46.3752 23.5746 46.441 23.6918 46.5582C23.809 46.6755 23.8749 46.8344 23.8749 47.0002C23.8749 47.1659 23.809 47.3249 23.6918 47.4421C23.5746 47.5593 23.4156 47.6252 23.2499 47.6252H20.7499C20.5841 47.6252 20.4251 47.5593 20.3079 47.4421C20.1907 47.3249 20.1249 47.1659 20.1249 47.0002C20.1249 46.8344 20.1907 46.6755 20.3079 46.5582C20.4251 46.441 20.5841 46.3752 20.7499 46.3752ZM23.7957 51.2919C23.7957 51.6462 23.6906 51.9926 23.4937 52.2872C23.2969 52.5819 23.0171 52.8115 22.6897 52.9471C22.3623 53.0827 22.002 53.1182 21.6545 53.0491C21.3069 52.98 20.9877 52.8093 20.7371 52.5588C20.4866 52.3082 20.3159 51.9889 20.2468 51.6414C20.1777 51.2938 20.2131 50.9336 20.3487 50.6062C20.4843 50.2788 20.714 49.999 21.0086 49.8021C21.3033 49.6053 21.6497 49.5002 22.004 49.5002C22.479 49.5008 22.9343 49.6898 23.2702 50.0257C23.6061 50.3615 23.795 50.8169 23.7957 51.2919ZM24.9165 56.5835C24.9165 56.694 24.8726 56.8 24.7945 56.8781C24.7163 56.9563 24.6104 57.0002 24.4999 57.0002H19.4999C19.3894 57.0002 19.2834 56.9563 19.2052 56.8781C19.1271 56.8 19.0832 56.694 19.0832 56.5835V56.3335C19.0811 56.0262 19.1423 55.7218 19.2629 55.4392C19.3835 55.1566 19.561 54.9018 19.7843 54.6908C20.0077 54.4797 20.272 54.3169 20.561 54.2124C20.85 54.1079 21.1574 54.0641 21.464 54.0835H22.5349C22.8416 54.0641 23.149 54.108 23.438 54.2124C23.727 54.3169 23.9914 54.4797 24.2148 54.6907C24.4382 54.9018 24.6158 55.1565 24.7365 55.4392C24.8572 55.7218 24.9185 56.0262 24.9165 56.3335V56.5835Z" fill="#D1D1D1"/>
<path d="M50.128 50.16C49.7227 49.36 49.184 48.7733 48.512 48.4C47.84 48.016 47.0933 47.824 46.272 47.824C45.4613 47.824 44.7307 48.0107 44.08 48.384C43.4293 48.7573 42.9173 49.2853 42.544 49.968C42.1707 50.6507 41.984 51.4613 41.984 52.4C41.984 53.328 42.1707 54.1333 42.544 54.816C42.9173 55.4987 43.4293 56.0267 44.08 56.4C44.7307 56.7733 45.4613 56.96 46.272 56.96C46.88 56.96 47.4453 56.8587 47.968 56.656C48.4907 56.4427 48.944 56.144 49.328 55.76C49.712 55.3653 50.0053 54.896 50.208 54.352V53.056H46.368V52.016H51.504V54.416C51.2587 55.1307 50.8853 55.7653 50.384 56.32C49.8827 56.8747 49.28 57.312 48.576 57.632C47.872 57.952 47.104 58.112 46.272 58.112C45.4827 58.112 44.7467 57.9733 44.064 57.696C43.392 57.4187 42.8 57.0293 42.288 56.528C41.7867 56.016 41.392 55.4133 41.104 54.72C40.8267 54.016 40.688 53.2427 40.688 52.4C40.688 51.5573 40.8267 50.7893 41.104 50.096C41.392 49.392 41.7867 48.7893 42.288 48.288C42.8 47.776 43.392 47.3813 44.064 47.104C44.7467 46.8267 45.4827 46.688 46.272 46.688C47.008 46.688 47.696 46.8107 48.336 47.056C48.9867 47.2907 49.5627 47.6373 50.064 48.096C50.5653 48.544 50.96 49.0933 51.248 49.744L50.128 50.16ZM58.0525 58L57.9565 56.56C57.7325 57.0507 57.4018 57.4347 56.9645 57.712C56.5272 57.9787 55.9725 58.112 55.3005 58.112C54.7245 58.112 54.2338 58.0213 53.8285 57.84C53.4232 57.6587 53.1085 57.4027 52.8845 57.072C52.6712 56.7307 52.5645 56.3307 52.5645 55.872C52.5645 55.2 52.8152 54.6507 53.3165 54.224C53.8178 53.7867 54.5432 53.52 55.4925 53.424L57.9565 53.152V52.512C57.9565 52.064 57.7912 51.7067 57.4605 51.44C57.1298 51.1627 56.6818 51.024 56.1165 51.024C55.5618 51.024 55.0978 51.152 54.7245 51.408C54.3618 51.664 54.1112 52.032 53.9725 52.512L52.8845 52.128C53.0978 51.424 53.4872 50.8747 54.0525 50.48C54.6285 50.0853 55.3272 49.888 56.1485 49.888C57.0978 49.888 57.8338 50.1333 58.3565 50.624C58.8898 51.104 59.1565 51.76 59.1565 52.592V58H58.0525ZM57.9565 54.176L55.4765 54.464C54.9432 54.528 54.5378 54.6773 54.2605 54.912C53.9832 55.136 53.8445 55.4347 53.8445 55.808C53.8445 56.1813 53.9778 56.48 54.2445 56.704C54.5218 56.928 54.9165 57.04 55.4285 57.04C56.0152 57.04 56.4952 56.9227 56.8685 56.688C57.2418 56.4533 57.5138 56.1387 57.6845 55.744C57.8658 55.3387 57.9565 54.9013 57.9565 54.432V54.176ZM60.9976 50H62.1016L62.1816 51.152C62.4163 50.768 62.731 50.464 63.1256 50.24C63.531 50.0053 64.011 49.888 64.5656 49.888C65.131 49.888 65.643 50.0267 66.1016 50.304C66.571 50.5707 66.9336 50.9707 67.1896 51.504C67.435 50.96 67.8083 50.5547 68.3096 50.288C68.811 50.0213 69.3656 49.888 69.9736 49.888C70.571 49.888 71.099 50.0213 71.5576 50.288C72.0163 50.544 72.3736 50.9333 72.6296 51.456C72.8856 51.968 73.0136 52.6133 73.0136 53.392V58H71.8136V53.536C71.8136 52.704 71.6323 52.0747 71.2696 51.648C70.9176 51.2107 70.411 50.992 69.7496 50.992C69.0776 50.992 68.5443 51.2267 68.1496 51.696C67.755 52.1547 67.5576 52.8373 67.5576 53.744V58H66.3576V53.536C66.3576 52.704 66.187 52.0747 65.8456 51.648C65.5043 51.2107 65.003 50.992 64.3416 50.992C63.6696 50.992 63.1416 51.2267 62.7576 51.696C62.3843 52.1547 62.1976 52.8373 62.1976 53.744V58H60.9976V50ZM78.2014 58.112C77.4547 58.112 76.788 57.9307 76.2014 57.568C75.6254 57.2053 75.172 56.7093 74.8414 56.08C74.5107 55.4507 74.3454 54.7307 74.3454 53.92C74.3454 53.1413 74.5107 52.448 74.8414 51.84C75.172 51.232 75.6254 50.7573 76.2014 50.416C76.7774 50.064 77.4334 49.888 78.1694 49.888C78.8947 49.888 79.54 50.048 80.1054 50.368C80.6814 50.688 81.1294 51.1307 81.4494 51.696C81.7694 52.2613 81.9187 52.9067 81.8974 53.632C81.8974 53.7493 81.892 53.872 81.8814 54C81.8707 54.128 81.86 54.2667 81.8494 54.416H75.6574C75.6787 54.9173 75.8014 55.36 76.0254 55.744C76.2494 56.128 76.5427 56.432 76.9054 56.656C77.2787 56.8693 77.7 56.976 78.1694 56.976C78.788 56.976 79.3107 56.8587 79.7374 56.624C80.1747 56.3893 80.4894 56.0533 80.6814 55.616L81.7214 56.032C81.4014 56.704 80.9374 57.2213 80.3294 57.584C79.7214 57.936 79.012 58.112 78.2014 58.112ZM80.5854 53.376C80.596 52.9173 80.4947 52.512 80.2814 52.16C80.0787 51.808 79.7907 51.5307 79.4174 51.328C79.044 51.1253 78.612 51.024 78.1214 51.024C77.6947 51.024 77.3054 51.1253 76.9534 51.328C76.6014 51.5307 76.308 51.8133 76.0734 52.176C75.8494 52.528 75.716 52.928 75.6734 53.376H80.5854ZM87.485 46.8H88.765V58H87.485V46.8ZM94.681 46.8C95.9183 46.8 96.9743 47.0293 97.849 47.488C98.7343 47.936 99.4117 48.5813 99.881 49.424C100.361 50.2667 100.601 51.2693 100.601 52.432C100.601 53.584 100.361 54.576 99.881 55.408C99.4117 56.24 98.7343 56.88 97.849 57.328C96.9743 57.776 95.9183 58 94.681 58H90.985V46.8H94.681ZM94.681 56.88C96.2063 56.88 97.3583 56.4907 98.137 55.712C98.9157 54.9333 99.305 53.84 99.305 52.432C99.305 51.0133 98.9157 49.9093 98.137 49.12C97.3583 48.32 96.2063 47.92 94.681 47.92H92.265V56.88H94.681ZM102.733 58.08C102.488 58.08 102.28 57.9947 102.109 57.824C101.949 57.6533 101.869 57.4453 101.869 57.2C101.869 56.9547 101.949 56.7467 102.109 56.576C102.28 56.4053 102.488 56.32 102.733 56.32C102.968 56.32 103.171 56.4053 103.341 56.576C103.512 56.7467 103.597 56.9547 103.597 57.2C103.597 57.4453 103.512 57.6533 103.341 57.824C103.171 57.9947 102.968 58.08 102.733 58.08ZM102.733 51.168C102.488 51.168 102.28 51.0827 102.109 50.912C101.949 50.7413 101.869 50.5333 101.869 50.288C101.869 50.0427 101.949 49.8347 102.109 49.664C102.28 49.4933 102.488 49.408 102.733 49.408C102.968 49.408 103.171 49.4933 103.341 49.664C103.512 49.8347 103.597 50.0427 103.597 50.288C103.597 50.5333 103.512 50.7413 103.341 50.912C103.171 51.0827 102.968 51.168 102.733 51.168Z" fill="#D1D1D1"/>
<path d="M15.072 88H13.168V76.8H15.296L19.072 85.504L22.848 76.8H24.96V88H23.072V80.432L19.792 88H18.352L15.072 80.432V88ZM26.5206 82.752H33.1286V84.352H26.5206V82.752ZM34.4753 79.872C34.5179 79.1893 34.7046 78.6133 35.0353 78.144C35.3766 77.664 35.8246 77.3013 36.3793 77.056C36.9446 76.8107 37.5899 76.688 38.3153 76.688C39.0833 76.688 39.7339 76.8373 40.2673 77.136C40.8113 77.424 41.2219 77.8133 41.4993 78.304C41.7766 78.784 41.9153 79.3067 41.9153 79.872C41.9153 80.2773 41.8299 80.6453 41.6593 80.976C41.4886 81.3067 41.2646 81.584 40.9873 81.808C40.7099 82.032 40.4219 82.192 40.1233 82.288V82.352C40.5286 82.48 40.8806 82.656 41.1793 82.88C41.4779 83.104 41.7073 83.392 41.8673 83.744C42.0379 84.0853 42.1233 84.5013 42.1233 84.992C42.1233 85.6107 41.9793 86.1547 41.6913 86.624C41.4033 87.0933 40.9766 87.4613 40.4113 87.728C39.8566 87.984 39.1739 88.112 38.3633 88.112C37.5739 88.112 36.8806 87.9947 36.2833 87.76C35.6859 87.5253 35.2166 87.152 34.8753 86.64C34.5339 86.128 34.3473 85.4667 34.3153 84.656H36.1553C36.1873 85.264 36.3739 85.7227 36.7153 86.032C37.0566 86.3413 37.6006 86.496 38.3473 86.496C38.7739 86.496 39.1259 86.432 39.4033 86.304C39.6806 86.176 39.8833 85.9893 40.0113 85.744C40.1393 85.4987 40.2033 85.2 40.2033 84.848C40.2033 84.1653 39.9846 83.712 39.5473 83.488C39.1099 83.264 38.4219 83.152 37.4833 83.152H37.0673V81.584H37.4993C38.0326 81.5733 38.4806 81.52 38.8433 81.424C39.2166 81.3173 39.4993 81.1573 39.6913 80.944C39.8939 80.7307 39.9953 80.448 39.9953 80.096C39.9953 79.6053 39.8513 79.184 39.5633 78.832C39.2859 78.48 38.8486 78.304 38.2513 78.304C37.8353 78.304 37.4886 78.3787 37.2113 78.528C36.9446 78.6773 36.7366 78.8693 36.5873 79.104C36.4379 79.3387 36.3473 79.5947 36.3153 79.872H34.4753ZM43.5065 79.872C43.5492 79.1893 43.7358 78.6133 44.0665 78.144C44.4078 77.664 44.8558 77.3013 45.4105 77.056C45.9758 76.8107 46.6212 76.688 47.3465 76.688C48.1145 76.688 48.7652 76.8373 49.2985 77.136C49.8425 77.424 50.2532 77.8133 50.5305 78.304C50.8078 78.784 50.9465 79.3067 50.9465 79.872C50.9465 80.2773 50.8612 80.6453 50.6905 80.976C50.5198 81.3067 50.2958 81.584 50.0185 81.808C49.7412 82.032 49.4532 82.192 49.1545 82.288V82.352C49.5598 82.48 49.9118 82.656 50.2105 82.88C50.5092 83.104 50.7385 83.392 50.8985 83.744C51.0692 84.0853 51.1545 84.5013 51.1545 84.992C51.1545 85.6107 51.0105 86.1547 50.7225 86.624C50.4345 87.0933 50.0078 87.4613 49.4425 87.728C48.8878 87.984 48.2052 88.112 47.3945 88.112C46.6052 88.112 45.9118 87.9947 45.3145 87.76C44.7172 87.5253 44.2478 87.152 43.9065 86.64C43.5652 86.128 43.3785 85.4667 43.3465 84.656H45.1865C45.2185 85.264 45.4052 85.7227 45.7465 86.032C46.0878 86.3413 46.6318 86.496 47.3785 86.496C47.8052 86.496 48.1572 86.432 48.4345 86.304C48.7118 86.176 48.9145 85.9893 49.0425 85.744C49.1705 85.4987 49.2345 85.2 49.2345 84.848C49.2345 84.1653 49.0158 83.712 48.5785 83.488C48.1412 83.264 47.4532 83.152 46.5145 83.152H46.0985V81.584H46.5305C47.0638 81.5733 47.5118 81.52 47.8745 81.424C48.2478 81.3173 48.5305 81.1573 48.7225 80.944C48.9252 80.7307 49.0265 80.448 49.0265 80.096C49.0265 79.6053 48.8825 79.184 48.5945 78.832C48.3172 78.48 47.8798 78.304 47.2825 78.304C46.8665 78.304 46.5198 78.3787 46.2425 78.528C45.9758 78.6773 45.7678 78.8693 45.6185 79.104C45.4692 79.3387 45.3785 79.5947 45.3465 79.872H43.5065ZM57.9298 85.536H52.1698V84.16L57.5298 76.8H59.8338V83.952H61.2738V85.536H59.8338V88H57.9298V85.536ZM57.9938 83.952V78.752L54.3298 83.952H57.9938ZM62.4425 82.752H69.0505V84.352H62.4425V82.752ZM77.7571 76.8V78.208L73.3571 88H71.4371L75.8851 78.384H70.0451V76.8H77.7571ZM78.6598 86.624L81.8598 83.648C82.4464 83.0827 82.9158 82.6027 83.2678 82.208C83.6198 81.8133 83.8704 81.4507 84.0198 81.12C84.1691 80.7787 84.2438 80.4267 84.2438 80.064C84.2438 79.552 84.1051 79.1307 83.8278 78.8C83.5504 78.4693 83.0758 78.304 82.4038 78.304C81.9984 78.304 81.6518 78.3947 81.3638 78.576C81.0864 78.7573 80.8678 79.0187 80.7078 79.36C80.5584 79.7013 80.4784 80.1013 80.4678 80.56H78.6438C78.6651 79.6747 78.8411 78.9493 79.1718 78.384C79.5131 77.808 79.9664 77.3813 80.5318 77.104C81.1078 76.8267 81.7371 76.688 82.4198 76.688C83.2198 76.688 83.8971 76.832 84.4518 77.12C85.0171 77.3973 85.4438 77.792 85.7318 78.304C86.0304 78.8053 86.1798 79.3867 86.1798 80.048C86.1798 80.528 86.0891 80.9973 85.9078 81.456C85.7371 81.904 85.4438 82.384 85.0278 82.896C84.6118 83.408 84.0411 83.9947 83.3158 84.656L81.3798 86.416H86.4518V88H78.6598V86.624ZM95.1478 76.8V78.208L90.7478 88H88.8278L93.2758 78.384H87.4358V76.8H95.1478ZM96.1144 82.752H102.722V84.352H96.1144V82.752ZM105.221 78.384H103.717V76.8H107.109V88H105.221V78.384ZM110.581 82.096C110.09 81.8613 109.69 81.5467 109.381 81.152C109.082 80.7467 108.933 80.2347 108.933 79.616C108.933 79.0827 109.072 78.5973 109.349 78.16C109.637 77.712 110.064 77.3547 110.629 77.088C111.194 76.8213 111.914 76.688 112.789 76.688C113.653 76.688 114.368 76.8213 114.933 77.088C115.509 77.3547 115.936 77.712 116.213 78.16C116.501 78.5973 116.645 79.0827 116.645 79.616C116.645 80.2027 116.485 80.7093 116.165 81.136C115.845 81.5627 115.456 81.8827 114.997 82.096C115.584 82.32 116.053 82.6667 116.405 83.136C116.768 83.6053 116.949 84.1707 116.949 84.832C116.949 85.5147 116.768 86.1013 116.405 86.592C116.042 87.072 115.552 87.4453 114.933 87.712C114.314 87.9787 113.6 88.112 112.789 88.112C111.989 88.112 111.274 87.9787 110.645 87.712C110.016 87.4453 109.525 87.072 109.173 86.592C108.821 86.1013 108.645 85.5147 108.645 84.832C108.645 84.1707 108.821 83.6053 109.173 83.136C109.525 82.656 109.994 82.3093 110.581 82.096ZM114.709 79.84C114.709 79.2853 114.544 78.8907 114.213 78.656C113.882 78.4107 113.408 78.288 112.789 78.288C112.192 78.288 111.717 78.4053 111.365 78.64C111.024 78.8747 110.853 79.28 110.853 79.856C110.853 80.3467 111.029 80.7467 111.381 81.056C111.733 81.3547 112.202 81.504 112.789 81.504C113.376 81.504 113.84 81.3493 114.181 81.04C114.533 80.7307 114.709 80.3307 114.709 79.84ZM112.789 82.912C112.352 82.912 111.962 82.9813 111.621 83.12C111.29 83.2587 111.034 83.4667 110.853 83.744C110.672 84.0107 110.581 84.3573 110.581 84.784C110.581 85.328 110.768 85.7547 111.141 86.064C111.514 86.3627 112.064 86.512 112.789 86.512C113.504 86.512 114.053 86.3627 114.437 86.064C114.821 85.7547 115.013 85.328 115.013 84.784C115.013 84.3787 114.917 84.0373 114.725 83.76C114.544 83.4827 114.288 83.2747 113.957 83.136C113.626 82.9867 113.237 82.912 112.789 82.912ZM123.633 85.536H117.873V84.16L123.233 76.8H125.537V83.952H126.977V85.536H125.537V88H123.633V85.536ZM123.697 83.952V78.752L120.033 83.952H123.697Z" fill="white"/>
<path d="M218 76C218 69.3726 223.373 64 230 64H292C298.627 64 304 69.3726 304 76V88C304 94.6274 298.627 100 292 100H230C223.373 100 218 94.6274 218 88V76Z" fill="#00545D"/>
<path d="M233.343 85.9475C233.088 85.8018 232.875 85.5912 232.727 85.3371C232.579 85.0829 232.501 84.7942 232.5 84.5V76.1667C232.5 75.25 233.25 74.5 234.167 74.5H242.5C243.125 74.5 243.465 74.8208 243.75 75.3333M235.833 80.0558C235.833 79.4664 236.067 78.9011 236.484 78.4843C236.901 78.0675 237.466 77.8333 238.056 77.8333H245.277C245.569 77.8333 245.858 77.8908 246.128 78.0025C246.398 78.1142 246.643 78.2779 246.849 78.4843C247.055 78.6907 247.219 78.9357 247.331 79.2053C247.443 79.475 247.5 79.764 247.5 80.0558V87.2775C247.5 87.5694 247.443 87.8584 247.331 88.128C247.219 88.3977 247.055 88.6427 246.849 88.849C246.643 89.0554 246.398 89.2191 246.128 89.3308C245.858 89.4425 245.569 89.5 245.277 89.5H238.056C237.764 89.5 237.475 89.4425 237.205 89.3308C236.936 89.2191 236.691 89.0554 236.484 88.849C236.278 88.6427 236.114 88.3977 236.003 88.128C235.891 87.8584 235.833 87.5694 235.833 87.2775V80.0558Z" stroke="white" stroke-width="1.5" stroke-linecap="round" stroke-linejoin="round"/>
<path d="M258.809 82.1C258.809 81.3627 258.935 80.6907 259.187 80.084C259.448 79.468 259.803 78.9407 260.251 78.502C260.708 78.054 261.236 77.7087 261.833 77.466C262.44 77.2233 263.088 77.102 263.779 77.102C264.74 77.102 265.608 77.3307 266.383 77.788C267.167 78.2453 267.764 78.9033 268.175 79.762L266.817 80.224C266.602 79.8133 266.327 79.482 265.991 79.23C265.655 78.978 265.3 78.796 264.927 78.684C264.554 78.572 264.185 78.516 263.821 78.516C263.186 78.516 262.617 78.6653 262.113 78.964C261.609 79.2533 261.212 79.6687 260.923 80.21C260.643 80.742 260.503 81.372 260.503 82.1C260.503 82.8187 260.643 83.4487 260.923 83.99C261.212 84.522 261.609 84.9373 262.113 85.236C262.617 85.5347 263.186 85.684 263.821 85.684C264.194 85.684 264.572 85.628 264.955 85.516C265.347 85.3947 265.716 85.1893 266.061 84.9C266.416 84.6013 266.71 84.2047 266.943 83.71L268.287 84.144C267.858 85.152 267.246 85.8987 266.453 86.384C265.66 86.86 264.768 87.098 263.779 87.098C263.088 87.098 262.44 86.9767 261.833 86.734C261.236 86.4913 260.708 86.146 260.251 85.698C259.803 85.25 259.448 84.7227 259.187 84.116C258.935 83.5 258.809 82.828 258.809 82.1ZM272.515 87.098C271.843 87.098 271.241 86.9533 270.709 86.664C270.177 86.3653 269.762 85.95 269.463 85.418C269.164 84.8767 269.015 84.242 269.015 83.514C269.015 82.7767 269.169 82.1373 269.477 81.596C269.785 81.0547 270.21 80.6393 270.751 80.35C271.292 80.0513 271.894 79.902 272.557 79.902C273.229 79.902 273.831 80.0513 274.363 80.35C274.904 80.6393 275.334 81.0547 275.651 81.596C275.968 82.128 276.127 82.758 276.127 83.486C276.127 84.2233 275.964 84.8627 275.637 85.404C275.32 85.9453 274.886 86.3653 274.335 86.664C273.794 86.9533 273.187 87.098 272.515 87.098ZM272.501 85.684C272.828 85.684 273.136 85.6047 273.425 85.446C273.724 85.2873 273.966 85.0493 274.153 84.732C274.34 84.4053 274.433 83.99 274.433 83.486C274.433 83.0007 274.344 82.5993 274.167 82.282C273.99 81.9553 273.756 81.7127 273.467 81.554C273.178 81.3953 272.865 81.316 272.529 81.316C272.202 81.316 271.899 81.3953 271.619 81.554C271.348 81.7127 271.129 81.9553 270.961 82.282C270.793 82.5993 270.709 83.01 270.709 83.514C270.709 83.9993 270.788 84.4053 270.947 84.732C271.115 85.0493 271.334 85.2873 271.605 85.446C271.876 85.6047 272.174 85.684 272.501 85.684ZM278.51 85.964L278.692 85.922V89.8H277.11V80H278.538L278.65 80.868C278.883 80.5973 279.187 80.3687 279.56 80.182C279.933 79.9953 280.386 79.902 280.918 79.902C281.525 79.902 282.061 80.0513 282.528 80.35C283.004 80.6487 283.373 81.0687 283.634 81.61C283.905 82.142 284.04 82.772 284.04 83.5C284.04 84.2187 283.905 84.8487 283.634 85.39C283.373 85.9313 283.009 86.3513 282.542 86.65C282.075 86.9487 281.534 87.098 280.918 87.098C280.358 87.098 279.873 86.9907 279.462 86.776C279.051 86.552 278.734 86.2813 278.51 85.964ZM282.346 83.5C282.346 82.856 282.173 82.3333 281.828 81.932C281.492 81.5307 281.058 81.33 280.526 81.33C280.19 81.33 279.882 81.414 279.602 81.582C279.331 81.75 279.112 81.9927 278.944 82.31C278.776 82.6273 278.692 83.024 278.692 83.5C278.692 83.9667 278.776 84.3633 278.944 84.69C279.112 85.0073 279.331 85.25 279.602 85.418C279.882 85.586 280.19 85.67 280.526 85.67C281.058 85.67 281.492 85.4693 281.828 85.068C282.173 84.6667 282.346 84.144 282.346 83.5ZM289.806 80H291.472L287.356 89.8H285.788L287.048 86.804L284.318 80H286.068L287.916 84.956L289.806 80Z" fill="white"/>
<line x1="304" y1="108.5" x2="12" y2="108.5" stroke="#002226"/>
<g clip-path="url(#clip1_2001_4298)">
<path d="M27.0001 125.333C27.1256 125.333 27.2494 125.362 27.3624 125.416C27.4754 125.471 27.5746 125.55 27.6526 125.648L27.7143 125.738L30.2143 129.905C30.2961 130.042 30.3371 130.199 30.3324 130.358C30.3277 130.517 30.2774 130.672 30.1876 130.803L30.1209 130.889L23.0126 138.833C22.8806 138.968 22.7231 139.075 22.5492 139.148C22.3753 139.221 22.1887 139.259 22.0001 139.258C21.6668 139.258 21.3459 139.142 21.0751 138.911L20.9626 138.806L13.8793 130.889C13.7727 130.77 13.7025 130.623 13.6771 130.466C13.6517 130.308 13.6721 130.147 13.7359 130L13.7859 129.904L16.2968 125.719L16.3501 125.644C16.3882 125.597 16.4316 125.554 16.4793 125.516L16.5534 125.463L16.6268 125.421L16.6684 125.402L16.7184 125.381L16.8093 125.354L16.9026 125.338L17.0001 125.333H27.0001ZM19.5951 128.619C19.4056 128.506 19.1789 128.472 18.9647 128.526C18.7505 128.579 18.5663 128.716 18.4526 128.905L17.9526 129.738L17.9026 129.835C17.8388 129.982 17.8188 130.145 17.845 130.303C17.8711 130.461 17.9424 130.608 18.0501 130.727L19.7168 132.56L19.7918 132.633C19.946 132.765 20.1432 132.837 20.3462 132.834C20.5492 132.831 20.7441 132.753 20.8943 132.617L20.9668 132.542C21.0988 132.388 21.1699 132.19 21.1668 131.987C21.1638 131.784 21.0867 131.59 20.9501 131.439L19.6993 130.064L19.8809 129.762L19.9268 129.676C20.0105 129.49 20.023 129.279 19.9619 129.085C19.9007 128.89 19.7702 128.724 19.5951 128.619Z" fill="#D1D1D1"/>
</g>
<path d="M48.704 127.92H42.64V131.744H47.2V132.864H42.64V136.88H48.704V138H41.36V126.8H48.704V127.92ZM50.482 130H51.586L51.65 131.136C51.906 130.741 52.242 130.437 52.658 130.224C53.074 130 53.5593 129.888 54.114 129.888C54.722 129.888 55.2553 130.021 55.714 130.288C56.1727 130.544 56.53 130.933 56.786 131.456C57.042 131.968 57.17 132.613 57.17 133.392V138H55.97V133.536C55.97 132.704 55.7887 132.075 55.426 131.648C55.074 131.211 54.562 130.992 53.89 130.992C53.1967 130.992 52.6527 131.221 52.258 131.68C51.874 132.139 51.682 132.816 51.682 133.712V138H50.482V130ZM59.5096 130V127.76H60.7096V130H62.8376V131.12H60.7096V135.424C60.7096 135.915 60.811 136.272 61.0136 136.496C61.227 136.72 61.4936 136.853 61.8136 136.896C62.1443 136.939 62.4856 136.939 62.8376 136.896V137.936C62.4216 138.032 62.011 138.059 61.6056 138.016C61.211 137.973 60.8536 137.856 60.5336 137.664C60.2243 137.461 59.9736 137.179 59.7816 136.816C59.6003 136.453 59.5096 135.989 59.5096 135.424V131.12H58.3096V130H59.5096ZM64.1226 130H65.2266L65.2906 131.168C65.504 130.88 65.76 130.635 66.0586 130.432C66.368 130.229 66.704 130.091 67.0666 130.016C67.44 129.931 67.8346 129.925 68.2506 130V131.2C67.8026 131.115 67.3973 131.115 67.0346 131.2C66.6826 131.285 66.3786 131.445 66.1226 131.68C65.8666 131.915 65.6693 132.213 65.5306 132.576C65.392 132.928 65.3226 133.339 65.3226 133.808V138H64.1226V130ZM69.6283 130H70.8123V138H69.6283V130ZM70.2363 128.4C69.9909 128.4 69.7883 128.32 69.6283 128.16C69.4683 128 69.3883 127.803 69.3883 127.568C69.3883 127.323 69.4683 127.12 69.6283 126.96C69.7883 126.8 69.9909 126.72 70.2363 126.72C70.4603 126.72 70.6523 126.8 70.8123 126.96C70.9829 127.12 71.0683 127.323 71.0683 127.568C71.0683 127.803 70.9829 128 70.8123 128.16C70.6523 128.32 70.4603 128.4 70.2363 128.4ZM76.3733 138.112C75.6266 138.112 74.9599 137.931 74.3733 137.568C73.7973 137.205 73.3439 136.709 73.0133 136.08C72.6826 135.451 72.5173 134.731 72.5173 133.92C72.5173 133.141 72.6826 132.448 73.0133 131.84C73.3439 131.232 73.7973 130.757 74.3733 130.416C74.9493 130.064 75.6053 129.888 76.3413 129.888C77.0666 129.888 77.7119 130.048 78.2773 130.368C78.8533 130.688 79.3013 131.131 79.6213 131.696C79.9413 132.261 80.0906 132.907 80.0693 133.632C80.0693 133.749 80.0639 133.872 80.0533 134C80.0426 134.128 80.0319 134.267 80.0213 134.416H73.8293C73.8506 134.917 73.9733 135.36 74.1973 135.744C74.4213 136.128 74.7146 136.432 75.0773 136.656C75.4506 136.869 75.8719 136.976 76.3413 136.976C76.9599 136.976 77.4826 136.859 77.9093 136.624C78.3466 136.389 78.6613 136.053 78.8533 135.616L79.8933 136.032C79.5733 136.704 79.1093 137.221 78.5013 137.584C77.8933 137.936 77.1839 138.112 76.3733 138.112ZM78.7573 133.376C78.7679 132.917 78.6666 132.512 78.4533 132.16C78.2506 131.808 77.9626 131.531 77.5893 131.328C77.2159 131.125 76.7839 131.024 76.2933 131.024C75.8666 131.024 75.4773 131.125 75.1253 131.328C74.7733 131.531 74.4799 131.813 74.2453 132.176C74.0213 132.528 73.8879 132.928 73.8453 133.376H78.7573ZM82.2005 135.552C82.2645 135.872 82.3818 136.139 82.5525 136.352C82.7232 136.555 82.9418 136.709 83.2085 136.816C83.4858 136.923 83.8058 136.976 84.1685 136.976C84.7338 136.976 85.1605 136.869 85.4485 136.656C85.7472 136.432 85.8965 136.155 85.8965 135.824C85.8965 135.547 85.8058 135.323 85.6245 135.152C85.4538 134.981 85.2245 134.843 84.9365 134.736C84.6485 134.619 84.3285 134.517 83.9765 134.432C83.6992 134.368 83.4005 134.293 83.0805 134.208C82.7605 134.112 82.4565 133.984 82.1685 133.824C81.8805 133.664 81.6458 133.456 81.4645 133.2C81.2832 132.944 81.1925 132.608 81.1925 132.192C81.1925 131.733 81.3152 131.333 81.5605 130.992C81.8165 130.64 82.1632 130.368 82.6005 130.176C83.0485 129.984 83.5605 129.888 84.1365 129.888C84.7978 129.888 85.3845 130.032 85.8965 130.32C86.4192 130.608 86.7818 131.056 86.9845 131.664L85.8645 132.048C85.7898 131.771 85.6512 131.557 85.4485 131.408C85.2565 131.259 85.0378 131.157 84.7925 131.104C84.5578 131.051 84.3232 131.024 84.0885 131.024C83.6085 131.024 83.2192 131.12 82.9205 131.312C82.6325 131.493 82.4885 131.771 82.4885 132.144C82.4885 132.347 82.5365 132.517 82.6325 132.656C82.7285 132.784 82.8618 132.891 83.0325 132.976C83.2032 133.061 83.4058 133.136 83.6405 133.2C83.8752 133.253 84.1312 133.317 84.4085 133.392C84.7178 133.467 85.0325 133.563 85.3525 133.68C85.6725 133.787 85.9712 133.931 86.2485 134.112C86.5258 134.283 86.7498 134.507 86.9205 134.784C87.1018 135.051 87.1925 135.387 87.1925 135.792C87.1925 136.261 87.0645 136.672 86.8085 137.024C86.5525 137.365 86.1952 137.632 85.7365 137.824C85.2885 138.016 84.7658 138.112 84.1685 138.112C83.3472 138.112 82.6645 137.931 82.1205 137.568C81.5872 137.195 81.2298 136.651 81.0485 135.936L82.2005 135.552ZM89.3583 138.08C89.1129 138.08 88.9049 137.995 88.7343 137.824C88.5743 137.653 88.4943 137.445 88.4943 137.2C88.4943 136.955 88.5743 136.747 88.7343 136.576C88.9049 136.405 89.1129 136.32 89.3583 136.32C89.5929 136.32 89.7956 136.405 89.9663 136.576C90.1369 136.747 90.2223 136.955 90.2223 137.2C90.2223 137.445 90.1369 137.653 89.9663 137.824C89.7956 137.995 89.5929 138.08 89.3583 138.08ZM89.3583 131.168C89.1129 131.168 88.9049 131.083 88.7343 130.912C88.5743 130.741 88.4943 130.533 88.4943 130.288C88.4943 130.043 88.5743 129.835 88.7343 129.664C88.9049 129.493 89.1129 129.408 89.3583 129.408C89.5929 129.408 89.7956 129.493 89.9663 129.664C90.1369 129.835 90.2223 130.043 90.2223 130.288C90.2223 130.533 90.1369 130.741 89.9663 130.912C89.7956 131.083 89.5929 131.168 89.3583 131.168Z" fill="#D1D1D1"/>
<path d="M100.944 132.4C100.944 131.568 101.008 130.805 101.136 130.112C101.264 129.408 101.488 128.805 101.808 128.304C102.128 127.792 102.555 127.397 103.088 127.12C103.632 126.832 104.315 126.688 105.136 126.688C105.957 126.688 106.635 126.832 107.168 127.12C107.701 127.397 108.128 127.792 108.448 128.304C108.768 128.805 108.992 129.408 109.12 130.112C109.248 130.805 109.312 131.568 109.312 132.4C109.312 133.243 109.248 134.016 109.12 134.72C108.992 135.424 108.768 136.027 108.448 136.528C108.128 137.029 107.701 137.419 107.168 137.696C106.635 137.973 105.957 138.112 105.136 138.112C104.315 138.112 103.632 137.973 103.088 137.696C102.555 137.419 102.128 137.029 101.808 136.528C101.488 136.027 101.264 135.424 101.136 134.72C101.008 134.016 100.944 133.243 100.944 132.4ZM107.392 132.4C107.392 131.867 107.371 131.355 107.328 130.864C107.285 130.373 107.189 129.936 107.04 129.552C106.891 129.157 106.667 128.853 106.368 128.64C106.069 128.416 105.659 128.304 105.136 128.304C104.613 128.304 104.197 128.416 103.888 128.64C103.589 128.853 103.365 129.157 103.216 129.552C103.067 129.936 102.971 130.373 102.928 130.864C102.885 131.355 102.864 131.867 102.864 132.4C102.864 132.965 102.885 133.499 102.928 134C102.971 134.491 103.067 134.923 103.216 135.296C103.365 135.669 103.589 135.963 103.888 136.176C104.197 136.389 104.613 136.496 105.136 136.496C105.659 136.496 106.069 136.389 106.368 136.176C106.667 135.963 106.891 135.669 107.04 135.296C107.189 134.923 107.285 134.491 107.328 134C107.371 133.499 107.392 132.965 107.392 132.4Z" fill="white"/>
<line x1="304" y1="156.5" x2="12" y2="156.5" stroke="#002226"/>
<g clip-path="url(#clip2_2001_4298)">
<path d="M24.0998 167.667C24.9573 167.667 25.779 168.007 26.3848 168.613L29.3865 171.615C29.6865 171.915 29.9245 172.271 30.0869 172.663C30.2493 173.055 30.3328 173.475 30.3328 173.899C30.3328 174.324 30.2493 174.744 30.0869 175.136C29.9245 175.528 29.6865 175.884 29.3865 176.184L27.184 178.387C26.6497 178.92 25.9454 179.25 25.1933 179.319C24.4412 179.388 23.6888 179.191 23.0665 178.763L22.979 178.698L18.0773 183.601C17.698 183.979 17.2072 184.225 16.6773 184.303L16.494 184.326L16.3098 184.333H15.3332C14.4882 184.333 13.7773 183.701 13.674 182.814L13.6665 182.667V181.69C13.6665 181.103 13.8732 180.535 14.2748 180.057L14.399 179.922L14.744 179.577C14.9002 179.421 15.1122 179.333 15.3332 179.333H16.1665V178.5C16.1665 178.296 16.2415 178.099 16.3771 177.946C16.5127 177.794 16.6996 177.696 16.9023 177.672L16.9998 177.667H17.8332V176.833C17.8332 176.65 17.8935 176.472 18.0048 176.327L18.0773 176.243L19.3007 175.019L19.2373 174.933C18.9046 174.449 18.7094 173.884 18.6723 173.297L18.6665 173.101C18.6665 172.243 19.0073 171.422 19.6132 170.816L21.8157 168.613C22.4216 168.007 23.2431 167.667 24.0998 167.667ZM24.5123 171.833H24.4957C24.2768 171.833 24.0601 171.876 23.8579 171.96C23.6557 172.044 23.4719 172.167 23.3172 172.321C23.1624 172.476 23.0396 172.66 22.9559 172.862C22.8721 173.064 22.829 173.281 22.829 173.5C22.829 173.719 22.8721 173.935 22.9559 174.138C23.0396 174.34 23.1624 174.524 23.3172 174.678C23.4719 174.833 23.6557 174.956 23.8579 175.04C24.0601 175.123 24.2768 175.167 24.4957 175.167H24.5123C24.9544 175.167 25.3783 174.991 25.6909 174.678C26.0034 174.366 26.179 173.942 26.179 173.5C26.179 173.058 26.0034 172.634 25.6909 172.321C25.3783 172.009 24.9544 171.833 24.5123 171.833Z" fill="#D1D1D1"/>
</g>
<path d="M45.312 176.304C45.9093 176.304 46.3947 176.213 46.768 176.032C47.1413 175.851 47.4133 175.595 47.584 175.264C47.7653 174.933 47.856 174.549 47.856 174.112C47.856 173.419 47.6533 172.88 47.248 172.496C46.8533 172.112 46.208 171.92 45.312 171.92H42.64V176.304H45.312ZM49.12 174.112C49.12 174.549 49.0453 174.971 48.896 175.376C48.7573 175.771 48.5333 176.123 48.224 176.432C47.9147 176.741 47.52 176.987 47.04 177.168C46.56 177.339 45.984 177.424 45.312 177.424H42.64V182H41.36V170.8H45.312C46.1867 170.8 46.9013 170.949 47.456 171.248C48.0213 171.547 48.4373 171.947 48.704 172.448C48.9813 172.949 49.12 173.504 49.12 174.112ZM55.5369 182L55.4409 180.56C55.2169 181.051 54.8862 181.435 54.4489 181.712C54.0115 181.979 53.4569 182.112 52.7849 182.112C52.2089 182.112 51.7182 182.021 51.3129 181.84C50.9075 181.659 50.5929 181.403 50.3689 181.072C50.1555 180.731 50.0489 180.331 50.0489 179.872C50.0489 179.2 50.2995 178.651 50.8009 178.224C51.3022 177.787 52.0275 177.52 52.9769 177.424L55.4409 177.152V176.512C55.4409 176.064 55.2755 175.707 54.9449 175.44C54.6142 175.163 54.1662 175.024 53.6009 175.024C53.0462 175.024 52.5822 175.152 52.2089 175.408C51.8462 175.664 51.5955 176.032 51.4569 176.512L50.3689 176.128C50.5822 175.424 50.9715 174.875 51.5369 174.48C52.1129 174.085 52.8115 173.888 53.6329 173.888C54.5822 173.888 55.3182 174.133 55.8409 174.624C56.3742 175.104 56.6409 175.76 56.6409 176.592V182H55.5369ZM55.4409 178.176L52.9609 178.464C52.4275 178.528 52.0222 178.677 51.7449 178.912C51.4675 179.136 51.3289 179.435 51.3289 179.808C51.3289 180.181 51.4622 180.48 51.7289 180.704C52.0062 180.928 52.4009 181.04 52.9129 181.04C53.4995 181.04 53.9795 180.923 54.3529 180.688C54.7262 180.453 54.9982 180.139 55.1689 179.744C55.3502 179.339 55.4409 178.901 55.4409 178.432V178.176ZM59.138 179.552C59.202 179.872 59.3193 180.139 59.49 180.352C59.6607 180.555 59.8793 180.709 60.146 180.816C60.4233 180.923 60.7433 180.976 61.106 180.976C61.6713 180.976 62.098 180.869 62.386 180.656C62.6847 180.432 62.834 180.155 62.834 179.824C62.834 179.547 62.7433 179.323 62.562 179.152C62.3913 178.981 62.162 178.843 61.874 178.736C61.586 178.619 61.266 178.517 60.914 178.432C60.6367 178.368 60.338 178.293 60.018 178.208C59.698 178.112 59.394 177.984 59.106 177.824C58.818 177.664 58.5833 177.456 58.402 177.2C58.2207 176.944 58.13 176.608 58.13 176.192C58.13 175.733 58.2527 175.333 58.498 174.992C58.754 174.64 59.1007 174.368 59.538 174.176C59.986 173.984 60.498 173.888 61.074 173.888C61.7353 173.888 62.322 174.032 62.834 174.32C63.3567 174.608 63.7193 175.056 63.922 175.664L62.802 176.048C62.7273 175.771 62.5887 175.557 62.386 175.408C62.194 175.259 61.9753 175.157 61.73 175.104C61.4953 175.051 61.2607 175.024 61.026 175.024C60.546 175.024 60.1567 175.12 59.858 175.312C59.57 175.493 59.426 175.771 59.426 176.144C59.426 176.347 59.474 176.517 59.57 176.656C59.666 176.784 59.7993 176.891 59.97 176.976C60.1407 177.061 60.3433 177.136 60.578 177.2C60.8127 177.253 61.0687 177.317 61.346 177.392C61.6553 177.467 61.97 177.563 62.29 177.68C62.61 177.787 62.9087 177.931 63.186 178.112C63.4633 178.283 63.6873 178.507 63.858 178.784C64.0393 179.051 64.13 179.387 64.13 179.792C64.13 180.261 64.002 180.672 63.746 181.024C63.49 181.365 63.1327 181.632 62.674 181.824C62.226 182.016 61.7033 182.112 61.106 182.112C60.2847 182.112 59.602 181.931 59.058 181.568C58.5247 181.195 58.1673 180.651 57.986 179.936L59.138 179.552ZM66.2318 179.552C66.2958 179.872 66.4131 180.139 66.5838 180.352C66.7544 180.555 66.9731 180.709 67.2398 180.816C67.5171 180.923 67.8371 180.976 68.1998 180.976C68.7651 180.976 69.1918 180.869 69.4798 180.656C69.7784 180.432 69.9278 180.155 69.9278 179.824C69.9278 179.547 69.8371 179.323 69.6558 179.152C69.4851 178.981 69.2558 178.843 68.9678 178.736C68.6798 178.619 68.3598 178.517 68.0078 178.432C67.7304 178.368 67.4318 178.293 67.1118 178.208C66.7918 178.112 66.4878 177.984 66.1998 177.824C65.9118 177.664 65.6771 177.456 65.4958 177.2C65.3144 176.944 65.2238 176.608 65.2238 176.192C65.2238 175.733 65.3464 175.333 65.5918 174.992C65.8478 174.64 66.1944 174.368 66.6318 174.176C67.0798 173.984 67.5918 173.888 68.1678 173.888C68.8291 173.888 69.4158 174.032 69.9278 174.32C70.4504 174.608 70.8131 175.056 71.0158 175.664L69.8958 176.048C69.8211 175.771 69.6824 175.557 69.4798 175.408C69.2878 175.259 69.0691 175.157 68.8238 175.104C68.5891 175.051 68.3544 175.024 68.1198 175.024C67.6398 175.024 67.2504 175.12 66.9518 175.312C66.6638 175.493 66.5198 175.771 66.5198 176.144C66.5198 176.347 66.5678 176.517 66.6638 176.656C66.7598 176.784 66.8931 176.891 67.0638 176.976C67.2344 177.061 67.4371 177.136 67.6718 177.2C67.9064 177.253 68.1624 177.317 68.4398 177.392C68.7491 177.467 69.0638 177.563 69.3838 177.68C69.7038 177.787 70.0024 177.931 70.2798 178.112C70.5571 178.283 70.7811 178.507 70.9518 178.784C71.1331 179.051 71.2238 179.387 71.2238 179.792C71.2238 180.261 71.0958 180.672 70.8398 181.024C70.5838 181.365 70.2264 181.632 69.7678 181.824C69.3198 182.016 68.7971 182.112 68.1998 182.112C67.3784 182.112 66.6958 181.931 66.1518 181.568C65.6184 181.195 65.2611 180.651 65.0798 179.936L66.2318 179.552ZM75.4535 182H74.3655L71.8535 174H73.0695L74.9095 180.512L76.9735 174H78.0615L80.0935 180.496L81.9175 174H83.1015L80.6055 182H79.5015L77.4855 175.792L75.4535 182ZM87.688 182.112C86.9307 182.112 86.2533 181.947 85.656 181.616C85.0587 181.285 84.5893 180.816 84.248 180.208C83.9067 179.589 83.736 178.859 83.736 178.016C83.736 177.163 83.9067 176.427 84.248 175.808C84.6 175.189 85.0747 174.715 85.672 174.384C86.28 174.053 86.9627 173.888 87.72 173.888C88.4773 173.888 89.1547 174.053 89.752 174.384C90.36 174.715 90.8347 175.189 91.176 175.808C91.528 176.416 91.704 177.141 91.704 177.984C91.704 178.837 91.528 179.573 91.176 180.192C90.824 180.811 90.344 181.285 89.736 181.616C89.128 181.947 88.4453 182.112 87.688 182.112ZM87.672 180.976C88.1413 180.976 88.584 180.875 89 180.672C89.416 180.459 89.752 180.133 90.008 179.696C90.2747 179.248 90.408 178.683 90.408 178C90.408 177.307 90.28 176.741 90.024 176.304C89.768 175.867 89.432 175.547 89.016 175.344C88.6107 175.131 88.1733 175.024 87.704 175.024C87.2347 175.024 86.7973 175.131 86.392 175.344C85.9867 175.547 85.656 175.872 85.4 176.32C85.1547 176.757 85.032 177.317 85.032 178C85.032 178.693 85.1547 179.259 85.4 179.696C85.6453 180.133 85.9653 180.459 86.36 180.672C86.7653 180.875 87.2027 180.976 87.672 180.976ZM93.1695 174H94.2735L94.3375 175.168C94.5508 174.88 94.8068 174.635 95.1055 174.432C95.4148 174.229 95.7508 174.091 96.1135 174.016C96.4868 173.931 96.8815 173.925 97.2975 174V175.2C96.8495 175.115 96.4442 175.115 96.0815 175.2C95.7295 175.285 95.4255 175.445 95.1695 175.68C94.9135 175.915 94.7162 176.213 94.5775 176.576C94.4388 176.928 94.3695 177.339 94.3695 177.808V182H93.1695V174ZM104.611 175.616L104.483 175.632V170.48H105.683V182H104.579L104.499 180.512C104.254 180.96 103.886 181.339 103.395 181.648C102.915 181.957 102.318 182.112 101.603 182.112C100.867 182.112 100.222 181.947 99.6671 181.616C99.1231 181.275 98.6965 180.795 98.3871 180.176C98.0885 179.557 97.9391 178.832 97.9391 178C97.9391 177.168 98.0885 176.448 98.3871 175.84C98.6965 175.221 99.1231 174.741 99.6671 174.4C100.222 174.059 100.867 173.888 101.603 173.888C102.36 173.888 102.99 174.053 103.491 174.384C103.992 174.715 104.366 175.125 104.611 175.616ZM99.2351 178C99.2351 178.917 99.4698 179.648 99.9391 180.192C100.408 180.725 101.048 180.992 101.859 180.992C102.36 180.992 102.808 180.875 103.203 180.64C103.598 180.405 103.907 180.064 104.131 179.616C104.366 179.168 104.483 178.629 104.483 178C104.483 177.371 104.366 176.837 104.131 176.4C103.907 175.952 103.598 175.611 103.203 175.376C102.808 175.131 102.36 175.008 101.859 175.008C101.059 175.008 100.419 175.28 99.9391 175.824C99.4698 176.357 99.2351 177.083 99.2351 178ZM108.358 182.08C108.113 182.08 107.905 181.995 107.734 181.824C107.574 181.653 107.494 181.445 107.494 181.2C107.494 180.955 107.574 180.747 107.734 180.576C107.905 180.405 108.113 180.32 108.358 180.32C108.593 180.32 108.796 180.405 108.966 180.576C109.137 180.747 109.222 180.955 109.222 181.2C109.222 181.445 109.137 181.653 108.966 181.824C108.796 181.995 108.593 182.08 108.358 182.08ZM108.358 175.168C108.113 175.168 107.905 175.083 107.734 174.912C107.574 174.741 107.494 174.533 107.494 174.288C107.494 174.043 107.574 173.835 107.734 173.664C107.905 173.493 108.113 173.408 108.358 173.408C108.593 173.408 108.796 173.493 108.966 173.664C109.137 173.835 109.222 174.043 109.222 174.288C109.222 174.533 109.137 174.741 108.966 174.912C108.796 175.083 108.593 175.168 108.358 175.168Z" fill="#D1D1D1"/>
<path d="M12.592 206.4C12.592 205.557 12.736 204.789 13.024 204.096C13.3227 203.392 13.728 202.789 14.24 202.288C14.7627 201.776 15.3653 201.381 16.048 201.104C16.7413 200.827 17.4827 200.688 18.272 200.688C19.3707 200.688 20.3627 200.949 21.248 201.472C22.144 201.995 22.8267 202.747 23.296 203.728L21.744 204.256C21.4987 203.787 21.184 203.408 20.8 203.12C20.416 202.832 20.0107 202.624 19.584 202.496C19.1573 202.368 18.736 202.304 18.32 202.304C17.5947 202.304 16.944 202.475 16.368 202.816C15.792 203.147 15.3387 203.621 15.008 204.24C14.688 204.848 14.528 205.568 14.528 206.4C14.528 207.221 14.688 207.941 15.008 208.56C15.3387 209.168 15.792 209.643 16.368 209.984C16.944 210.325 17.5947 210.496 18.32 210.496C18.7467 210.496 19.1787 210.432 19.616 210.304C20.064 210.165 20.4853 209.931 20.88 209.6C21.2853 209.259 21.6213 208.805 21.888 208.24L23.424 208.736C22.9333 209.888 22.2347 210.741 21.328 211.296C20.4213 211.84 19.4027 212.112 18.272 212.112C17.4827 212.112 16.7413 211.973 16.048 211.696C15.3653 211.419 14.7627 211.024 14.24 210.512C13.728 210 13.3227 209.397 13.024 208.704C12.736 208 12.592 207.232 12.592 206.4ZM28.3275 212.112C27.5595 212.112 26.8715 211.947 26.2635 211.616C25.6555 211.275 25.1808 210.8 24.8395 210.192C24.4982 209.573 24.3275 208.848 24.3275 208.016C24.3275 207.173 24.5035 206.443 24.8555 205.824C25.2075 205.205 25.6928 204.731 26.3115 204.4C26.9302 204.059 27.6182 203.888 28.3755 203.888C29.1435 203.888 29.8315 204.059 30.4395 204.4C31.0582 204.731 31.5488 205.205 31.9115 205.824C32.2742 206.432 32.4555 207.152 32.4555 207.984C32.4555 208.827 32.2688 209.557 31.8955 210.176C31.5328 210.795 31.0368 211.275 30.4075 211.616C29.7888 211.947 29.0955 212.112 28.3275 212.112ZM28.3115 210.496C28.6848 210.496 29.0368 210.405 29.3675 210.224C29.7088 210.043 29.9862 209.771 30.1995 209.408C30.4128 209.035 30.5195 208.56 30.5195 207.984C30.5195 207.429 30.4182 206.971 30.2155 206.608C30.0128 206.235 29.7462 205.957 29.4155 205.776C29.0848 205.595 28.7275 205.504 28.3435 205.504C27.9702 205.504 27.6235 205.595 27.3035 205.776C26.9942 205.957 26.7435 206.235 26.5515 206.608C26.3595 206.971 26.2635 207.44 26.2635 208.016C26.2635 208.571 26.3542 209.035 26.5355 209.408C26.7275 209.771 26.9782 210.043 27.2875 210.224C27.5968 210.405 27.9382 210.496 28.3115 210.496ZM33.6501 204H35.2821L35.4101 204.784C35.6768 204.507 35.9915 204.288 36.3541 204.128C36.7275 203.968 37.1275 203.888 37.5541 203.888C38.1835 203.888 38.7221 204.021 39.1701 204.288C39.6288 204.544 39.9808 204.928 40.2261 205.44C40.4715 205.941 40.5941 206.571 40.5941 207.328V212H38.7861V207.568C38.7861 206.896 38.6475 206.389 38.3701 206.048C38.1035 205.707 37.6981 205.536 37.1541 205.536C36.5995 205.536 36.1781 205.712 35.8901 206.064C35.6021 206.405 35.4581 206.912 35.4581 207.584V212H33.6501V204ZM42.5996 204V201.76H44.4396V204H46.3116V205.584H44.4396V209.136C44.4396 209.616 44.5303 209.952 44.7116 210.144C44.893 210.325 45.1276 210.427 45.4156 210.448C45.7143 210.459 46.013 210.443 46.3116 210.4V211.936C45.853 212.032 45.3996 212.059 44.9516 212.016C44.5143 211.984 44.1196 211.867 43.7676 211.664C43.4156 211.451 43.133 211.141 42.9196 210.736C42.7063 210.331 42.5996 209.797 42.5996 209.136V205.584H41.4796V204H42.5996ZM50.5689 202.528L52.3929 201.12L53.1289 202.416L50.9529 203.232L53.1289 204.032L52.3769 205.376L50.5689 203.936L50.9209 206.24H49.4009L49.7209 203.936L47.9129 205.408L47.1289 204.016L49.2889 203.216L47.1289 202.432L47.8809 201.104L49.7369 202.528L49.4009 200.224H50.9369L50.5689 202.528ZM57.7095 202.528L59.5335 201.12L60.2695 202.416L58.0935 203.232L60.2695 204.032L59.5175 205.376L57.7095 203.936L58.0615 206.24H56.5415L56.8615 203.936L55.0535 205.408L54.2695 204.016L56.4295 203.216L54.2695 202.432L55.0215 201.104L56.8775 202.528L56.5415 200.224H58.0775L57.7095 202.528ZM64.8501 202.528L66.6741 201.12L67.4101 202.416L65.2341 203.232L67.4101 204.032L66.6581 205.376L64.8501 203.936L65.2021 206.24H63.6821L64.0021 203.936L62.1941 205.408L61.4101 204.016L63.5701 203.216L61.4101 202.432L62.1621 201.104L64.0181 202.528L63.6821 200.224H65.2181L64.8501 202.528ZM71.9908 202.528L73.8148 201.12L74.5508 202.416L72.3748 203.232L74.5508 204.032L73.7988 205.376L71.9908 203.936L72.3428 206.24H70.8228L71.1428 203.936L69.3348 205.408L68.5508 204.016L70.7108 203.216L68.5508 202.432L69.3028 201.104L71.1588 202.528L70.8228 200.224H72.3588L71.9908 202.528ZM79.1314 202.528L80.9554 201.12L81.6914 202.416L79.5154 203.232L81.6914 204.032L80.9394 205.376L79.1314 203.936L79.4834 206.24H77.9634L78.2834 203.936L76.4754 205.408L75.6914 204.016L77.8514 203.216L75.6914 202.432L76.4434 201.104L78.2994 202.528L77.9634 200.224H79.4994L79.1314 202.528ZM86.272 202.528L88.096 201.12L88.832 202.416L86.656 203.232L88.832 204.032L88.08 205.376L86.272 203.936L86.624 206.24H85.104L85.424 203.936L83.616 205.408L82.832 204.016L84.992 203.216L82.832 202.432L83.584 201.104L85.44 202.528L85.104 200.224H86.64L86.272 202.528ZM89.9566 210.624L93.1566 207.648C93.7433 207.083 94.2126 206.603 94.5646 206.208C94.9166 205.813 95.1673 205.451 95.3166 205.12C95.466 204.779 95.5406 204.427 95.5406 204.064C95.5406 203.552 95.402 203.131 95.1246 202.8C94.8473 202.469 94.3726 202.304 93.7006 202.304C93.2953 202.304 92.9486 202.395 92.6606 202.576C92.3833 202.757 92.1646 203.019 92.0046 203.36C91.8553 203.701 91.7753 204.101 91.7646 204.56H89.9406C89.962 203.675 90.138 202.949 90.4686 202.384C90.81 201.808 91.2633 201.381 91.8286 201.104C92.4046 200.827 93.034 200.688 93.7166 200.688C94.5166 200.688 95.194 200.832 95.7486 201.12C96.314 201.397 96.7406 201.792 97.0286 202.304C97.3273 202.805 97.4766 203.387 97.4766 204.048C97.4766 204.528 97.386 204.997 97.2046 205.456C97.034 205.904 96.7406 206.384 96.3246 206.896C95.9086 207.408 95.338 207.995 94.6126 208.656L92.6766 210.416H97.7486V212H89.9566V210.624ZM100.237 202.384H98.7326V200.8H102.125V212H100.237V202.384ZM105.261 208.928C105.325 209.227 105.447 209.499 105.629 209.744C105.821 209.979 106.071 210.165 106.381 210.304C106.701 210.443 107.079 210.512 107.516 210.512C108.189 210.512 108.69 210.357 109.021 210.048C109.351 209.728 109.517 209.355 109.517 208.928C109.517 208.576 109.41 208.283 109.197 208.048C108.994 207.813 108.706 207.616 108.333 207.456C107.959 207.285 107.533 207.125 107.053 206.976C106.615 206.848 106.194 206.715 105.789 206.576C105.383 206.427 105.015 206.245 104.685 206.032C104.365 205.808 104.109 205.525 103.917 205.184C103.725 204.832 103.634 204.395 103.645 203.872C103.645 203.189 103.805 202.613 104.125 202.144C104.445 201.664 104.893 201.301 105.469 201.056C106.045 200.811 106.706 200.688 107.453 200.688C108.082 200.688 108.647 200.779 109.149 200.96C109.661 201.131 110.093 201.387 110.445 201.728C110.797 202.059 111.058 202.469 111.229 202.96L109.485 203.536C109.421 203.301 109.293 203.093 109.101 202.912C108.909 202.72 108.669 202.571 108.381 202.464C108.103 202.357 107.799 202.299 107.469 202.288C107.106 202.277 106.781 202.331 106.493 202.448C106.215 202.565 105.991 202.736 105.821 202.96C105.65 203.173 105.565 203.424 105.565 203.712C105.565 204.043 105.661 204.304 105.853 204.496C106.045 204.677 106.295 204.832 106.605 204.96C106.925 205.077 107.277 205.2 107.661 205.328C108.109 205.456 108.551 205.605 108.989 205.776C109.437 205.936 109.842 206.144 110.205 206.4C110.578 206.645 110.877 206.96 111.101 207.344C111.325 207.728 111.437 208.208 111.437 208.784C111.437 209.403 111.293 209.963 111.005 210.464C110.727 210.965 110.301 211.365 109.725 211.664C109.149 211.963 108.434 212.112 107.581 212.112C106.887 212.112 106.253 212.011 105.677 211.808C105.111 211.595 104.637 211.296 104.253 210.912C103.879 210.517 103.634 210.053 103.517 209.52L105.261 208.928Z" fill="white"/>
<path d="M156 200C156 193.373 161.373 188 168 188H292C298.627 188 304 193.373 304 200V212C304 218.627 298.627 224 292 224H168C161.373 224 156 218.627 156 212V200Z" fill="#00545D"/>
<path d="M177.945 202.174C176.735 202.174 175.755 203.159 175.755 204.369V204.789C175.125 204.949 174.655 205.514 174.655 206.194V208.394C174.655 209.194 175.31 209.849 176.115 209.849H179.775C180.58 209.849 181.235 209.194 181.235 208.394V206.194C181.235 205.514 180.765 204.949 180.135 204.789V204.369C180.135 203.159 179.155 202.174 177.945 202.174ZM178.68 204.734H177.21V204.369C177.21 203.959 177.54 203.629 177.945 203.629C178.35 203.629 178.68 203.959 178.68 204.369V204.734Z" fill="white"/>
<path d="M177.877 198.5C175.606 198.5 173.469 199.551 172.058 201.271L171.932 200.772C171.834 200.383 171.439 200.148 171.05 200.244C170.66 200.342 170.424 200.738 170.522 201.127L171.056 203.248C171.125 203.498 171.32 203.704 171.576 203.766C171.584 203.855 173.954 203.604 174.059 203.609C174.46 203.576 174.757 203.225 174.724 202.824C174.691 202.424 174.343 202.133 173.939 202.16L173.15 202.225C176.705 197.801 183.926 200.309 183.937 206.014C183.937 209.355 181.218 212.073 177.877 212.073C175.368 212.073 173.154 210.564 172.236 208.229C171.871 207.345 170.547 207.868 170.882 208.761C173.999 216.422 185.27 214.282 185.391 206.013C185.391 201.87 182.02 198.5 177.877 198.5Z" fill="white"/>
<path d="M202.705 204.154C202.705 203.669 202.561 203.286 202.271 203.006C201.982 202.726 201.534 202.586 200.927 202.586H198.757V205.736H200.927C201.338 205.736 201.669 205.675 201.921 205.554C202.183 205.423 202.379 205.241 202.509 205.008C202.64 204.765 202.705 204.481 202.705 204.154ZM200.927 201.2C201.711 201.2 202.355 201.335 202.859 201.606C203.373 201.867 203.755 202.227 204.007 202.684C204.259 203.132 204.385 203.622 204.385 204.154C204.385 204.509 204.325 204.859 204.203 205.204C204.082 205.549 203.886 205.871 203.615 206.17C203.345 206.459 202.985 206.693 202.537 206.87C202.099 207.038 201.562 207.122 200.927 207.122H198.757V211H197.091V201.2H200.927ZM201.921 206.576L204.595 211H202.719L200.143 206.576H201.921ZM208.694 211.098C207.994 211.098 207.378 210.944 206.846 210.636C206.323 210.328 205.913 209.899 205.614 209.348C205.325 208.797 205.18 208.163 205.18 207.444C205.18 206.763 205.325 206.156 205.614 205.624C205.903 205.092 206.305 204.672 206.818 204.364C207.331 204.056 207.915 203.902 208.568 203.902C209.231 203.902 209.814 204.047 210.318 204.336C210.822 204.625 211.214 205.031 211.494 205.554C211.783 206.067 211.928 206.665 211.928 207.346C211.928 207.458 211.923 207.579 211.914 207.71C211.905 207.831 211.891 207.962 211.872 208.102H206.888C206.935 208.429 207.037 208.713 207.196 208.956C207.364 209.189 207.574 209.371 207.826 209.502C208.078 209.633 208.367 209.698 208.694 209.698C209.086 209.698 209.436 209.619 209.744 209.46C210.061 209.301 210.281 209.091 210.402 208.83L211.788 209.292C211.508 209.852 211.093 210.295 210.542 210.622C209.991 210.939 209.375 211.098 208.694 211.098ZM210.206 206.814C210.197 206.525 210.117 206.263 209.968 206.03C209.819 205.797 209.623 205.615 209.38 205.484C209.137 205.344 208.867 205.274 208.568 205.274C208.307 205.274 208.059 205.339 207.826 205.47C207.593 205.601 207.392 205.783 207.224 206.016C207.065 206.24 206.963 206.506 206.916 206.814H210.206ZM213.927 208.746C213.993 209.007 214.105 209.208 214.263 209.348C214.431 209.488 214.613 209.586 214.809 209.642C215.005 209.689 215.192 209.712 215.369 209.712C215.733 209.712 216.018 209.642 216.223 209.502C216.438 209.353 216.545 209.166 216.545 208.942C216.545 208.755 216.475 208.611 216.335 208.508C216.195 208.405 216.013 208.326 215.789 208.27C215.575 208.205 215.351 208.139 215.117 208.074C214.865 208.009 214.595 207.934 214.305 207.85C214.025 207.766 213.759 207.649 213.507 207.5C213.255 207.351 213.05 207.159 212.891 206.926C212.733 206.693 212.653 206.403 212.653 206.058C212.653 205.619 212.775 205.241 213.017 204.924C213.26 204.597 213.591 204.345 214.011 204.168C214.431 203.991 214.903 203.902 215.425 203.902C216.051 203.902 216.592 204.033 217.049 204.294C217.507 204.555 217.838 204.938 218.043 205.442L216.657 205.89C216.592 205.759 216.494 205.647 216.363 205.554C216.242 205.461 216.093 205.395 215.915 205.358C215.747 205.311 215.575 205.288 215.397 205.288C215.099 205.288 214.847 205.349 214.641 205.47C214.436 205.591 214.333 205.764 214.333 205.988C214.333 206.1 214.366 206.198 214.431 206.282C214.506 206.366 214.604 206.436 214.725 206.492C214.847 206.539 214.991 206.585 215.159 206.632C215.327 206.669 215.505 206.716 215.691 206.772C215.99 206.856 216.284 206.949 216.573 207.052C216.872 207.145 217.143 207.267 217.385 207.416C217.637 207.565 217.833 207.761 217.973 208.004C218.123 208.247 218.207 208.555 218.225 208.928C218.225 209.329 218.109 209.698 217.875 210.034C217.642 210.361 217.306 210.622 216.867 210.818C216.438 211.005 215.925 211.098 215.327 211.098C214.637 211.098 214.044 210.949 213.549 210.65C213.055 210.351 212.719 209.871 212.541 209.208L213.927 208.746ZM222.35 211.098C221.65 211.098 221.034 210.944 220.502 210.636C219.98 210.328 219.569 209.899 219.27 209.348C218.981 208.797 218.836 208.163 218.836 207.444C218.836 206.763 218.981 206.156 219.27 205.624C219.56 205.092 219.961 204.672 220.474 204.364C220.988 204.056 221.571 203.902 222.224 203.902C222.887 203.902 223.47 204.047 223.974 204.336C224.478 204.625 224.87 205.031 225.15 205.554C225.44 206.067 225.584 206.665 225.584 207.346C225.584 207.458 225.58 207.579 225.57 207.71C225.561 207.831 225.547 207.962 225.528 208.102H220.544C220.591 208.429 220.694 208.713 220.852 208.956C221.02 209.189 221.23 209.371 221.482 209.502C221.734 209.633 222.024 209.698 222.35 209.698C222.742 209.698 223.092 209.619 223.4 209.46C223.718 209.301 223.937 209.091 224.058 208.83L225.444 209.292C225.164 209.852 224.749 210.295 224.198 210.622C223.648 210.939 223.032 211.098 222.35 211.098ZM223.862 206.814C223.853 206.525 223.774 206.263 223.624 206.03C223.475 205.797 223.279 205.615 223.036 205.484C222.794 205.344 222.523 205.274 222.224 205.274C221.963 205.274 221.716 205.339 221.482 205.47C221.249 205.601 221.048 205.783 220.88 206.016C220.722 206.24 220.619 206.506 220.572 206.814H223.862ZM227.024 204V202.04H228.634V204H230.272V205.386H228.634V208.494C228.634 208.914 228.713 209.208 228.872 209.376C229.03 209.535 229.236 209.623 229.488 209.642C229.749 209.651 230.01 209.637 230.272 209.6V210.944C229.87 211.028 229.474 211.051 229.082 211.014C228.699 210.986 228.354 210.883 228.046 210.706C227.738 210.519 227.49 210.249 227.304 209.894C227.117 209.539 227.024 209.073 227.024 208.494V205.386H226.044V204H227.024ZM235.958 209.964L236.14 209.922V213.8H234.558V204H235.986L236.098 204.868C236.331 204.597 236.635 204.369 237.008 204.182C237.381 203.995 237.834 203.902 238.366 203.902C238.973 203.902 239.509 204.051 239.976 204.35C240.452 204.649 240.821 205.069 241.082 205.61C241.353 206.142 241.488 206.772 241.488 207.5C241.488 208.219 241.353 208.849 241.082 209.39C240.821 209.931 240.457 210.351 239.99 210.65C239.523 210.949 238.982 211.098 238.366 211.098C237.806 211.098 237.321 210.991 236.91 210.776C236.499 210.552 236.182 210.281 235.958 209.964ZM239.794 207.5C239.794 206.856 239.621 206.333 239.276 205.932C238.94 205.531 238.506 205.33 237.974 205.33C237.638 205.33 237.33 205.414 237.05 205.582C236.779 205.75 236.56 205.993 236.392 206.31C236.224 206.627 236.14 207.024 236.14 207.5C236.14 207.967 236.224 208.363 236.392 208.69C236.56 209.007 236.779 209.25 237.05 209.418C237.33 209.586 237.638 209.67 237.974 209.67C238.506 209.67 238.94 209.469 239.276 209.068C239.621 208.667 239.794 208.144 239.794 207.5ZM246.638 211L246.498 210.146C246.274 210.445 246.008 210.673 245.7 210.832C245.392 210.991 244.982 211.07 244.468 211.07C243.983 211.07 243.563 210.991 243.208 210.832C242.854 210.664 242.578 210.435 242.382 210.146C242.196 209.847 242.102 209.502 242.102 209.11C242.102 208.522 242.317 208.032 242.746 207.64C243.185 207.239 243.824 206.991 244.664 206.898L246.498 206.702V206.156C246.498 205.932 246.4 205.731 246.204 205.554C246.008 205.367 245.696 205.274 245.266 205.274C244.893 205.274 244.566 205.367 244.286 205.554C244.016 205.731 243.834 206.002 243.74 206.366L242.368 205.862C242.546 205.246 242.896 204.765 243.418 204.42C243.95 204.075 244.594 203.902 245.35 203.902C246.265 203.902 246.951 204.131 247.408 204.588C247.866 205.045 248.094 205.629 248.094 206.338V211H246.638ZM246.498 207.92L244.818 208.13C244.464 208.177 244.198 208.279 244.02 208.438C243.843 208.587 243.754 208.779 243.754 209.012C243.754 209.227 243.838 209.413 244.006 209.572C244.184 209.721 244.422 209.796 244.72 209.796C245.103 209.796 245.425 209.726 245.686 209.586C245.957 209.446 246.158 209.245 246.288 208.984C246.428 208.723 246.498 208.401 246.498 208.018V207.92ZM250.357 208.746C250.422 209.007 250.534 209.208 250.693 209.348C250.861 209.488 251.043 209.586 251.239 209.642C251.435 209.689 251.622 209.712 251.799 209.712C252.163 209.712 252.448 209.642 252.653 209.502C252.868 209.353 252.975 209.166 252.975 208.942C252.975 208.755 252.905 208.611 252.765 208.508C252.625 208.405 252.443 208.326 252.219 208.27C252.004 208.205 251.78 208.139 251.547 208.074C251.295 208.009 251.024 207.934 250.735 207.85C250.455 207.766 250.189 207.649 249.937 207.5C249.685 207.351 249.48 207.159 249.321 206.926C249.162 206.693 249.083 206.403 249.083 206.058C249.083 205.619 249.204 205.241 249.447 204.924C249.69 204.597 250.021 204.345 250.441 204.168C250.861 203.991 251.332 203.902 251.855 203.902C252.48 203.902 253.022 204.033 253.479 204.294C253.936 204.555 254.268 204.938 254.473 205.442L253.087 205.89C253.022 205.759 252.924 205.647 252.793 205.554C252.672 205.461 252.522 205.395 252.345 205.358C252.177 205.311 252.004 205.288 251.827 205.288C251.528 205.288 251.276 205.349 251.071 205.47C250.866 205.591 250.763 205.764 250.763 205.988C250.763 206.1 250.796 206.198 250.861 206.282C250.936 206.366 251.034 206.436 251.155 206.492C251.276 206.539 251.421 206.585 251.589 206.632C251.757 206.669 251.934 206.716 252.121 206.772C252.42 206.856 252.714 206.949 253.003 207.052C253.302 207.145 253.572 207.267 253.815 207.416C254.067 207.565 254.263 207.761 254.403 208.004C254.552 208.247 254.636 208.555 254.655 208.928C254.655 209.329 254.538 209.698 254.305 210.034C254.072 210.361 253.736 210.622 253.297 210.818C252.868 211.005 252.354 211.098 251.757 211.098C251.066 211.098 250.474 210.949 249.979 210.65C249.484 210.351 249.148 209.871 248.971 209.208L250.357 208.746ZM256.652 208.746C256.717 209.007 256.829 209.208 256.988 209.348C257.156 209.488 257.338 209.586 257.534 209.642C257.73 209.689 257.917 209.712 258.094 209.712C258.458 209.712 258.743 209.642 258.948 209.502C259.163 209.353 259.27 209.166 259.27 208.942C259.27 208.755 259.2 208.611 259.06 208.508C258.92 208.405 258.738 208.326 258.514 208.27C258.299 208.205 258.075 208.139 257.842 208.074C257.59 208.009 257.319 207.934 257.03 207.85C256.75 207.766 256.484 207.649 256.232 207.5C255.98 207.351 255.775 207.159 255.616 206.926C255.457 206.693 255.378 206.403 255.378 206.058C255.378 205.619 255.499 205.241 255.742 204.924C255.985 204.597 256.316 204.345 256.736 204.168C257.156 203.991 257.627 203.902 258.15 203.902C258.775 203.902 259.317 204.033 259.774 204.294C260.231 204.555 260.563 204.938 260.768 205.442L259.382 205.89C259.317 205.759 259.219 205.647 259.088 205.554C258.967 205.461 258.817 205.395 258.64 205.358C258.472 205.311 258.299 205.288 258.122 205.288C257.823 205.288 257.571 205.349 257.366 205.47C257.161 205.591 257.058 205.764 257.058 205.988C257.058 206.1 257.091 206.198 257.156 206.282C257.231 206.366 257.329 206.436 257.45 206.492C257.571 206.539 257.716 206.585 257.884 206.632C258.052 206.669 258.229 206.716 258.416 206.772C258.715 206.856 259.009 206.949 259.298 207.052C259.597 207.145 259.867 207.267 260.11 207.416C260.362 207.565 260.558 207.761 260.698 208.004C260.847 208.247 260.931 208.555 260.95 208.928C260.95 209.329 260.833 209.698 260.6 210.034C260.367 210.361 260.031 210.622 259.592 210.818C259.163 211.005 258.649 211.098 258.052 211.098C257.361 211.098 256.769 210.949 256.274 210.65C255.779 210.351 255.443 209.871 255.266 209.208L256.652 208.746ZM265.033 211H263.479L261.323 204H262.933L264.249 209.124L265.607 204H267.147L268.449 209.11L269.751 204H271.333L269.191 211H267.609L266.335 206.268L265.033 211ZM275.198 211.098C274.526 211.098 273.924 210.953 273.392 210.664C272.86 210.365 272.444 209.95 272.146 209.418C271.847 208.877 271.698 208.242 271.698 207.514C271.698 206.777 271.852 206.137 272.16 205.596C272.468 205.055 272.892 204.639 273.434 204.35C273.975 204.051 274.577 203.902 275.24 203.902C275.912 203.902 276.514 204.051 277.046 204.35C277.587 204.639 278.016 205.055 278.334 205.596C278.651 206.128 278.81 206.758 278.81 207.486C278.81 208.223 278.646 208.863 278.32 209.404C278.002 209.945 277.568 210.365 277.018 210.664C276.476 210.953 275.87 211.098 275.198 211.098ZM275.184 209.684C275.51 209.684 275.818 209.605 276.108 209.446C276.406 209.287 276.649 209.049 276.836 208.732C277.022 208.405 277.116 207.99 277.116 207.486C277.116 207.001 277.027 206.599 276.85 206.282C276.672 205.955 276.439 205.713 276.15 205.554C275.86 205.395 275.548 205.316 275.212 205.316C274.885 205.316 274.582 205.395 274.302 205.554C274.031 205.713 273.812 205.955 273.644 206.282C273.476 206.599 273.392 207.01 273.392 207.514C273.392 207.999 273.471 208.405 273.63 208.732C273.798 209.049 274.017 209.287 274.288 209.446C274.558 209.605 274.857 209.684 275.184 209.684ZM279.792 204H281.22L281.346 204.868C281.533 204.635 281.752 204.443 282.004 204.294C282.256 204.135 282.527 204.028 282.816 203.972C283.115 203.916 283.414 203.925 283.712 204V205.456C283.47 205.372 283.208 205.353 282.928 205.4C282.658 205.437 282.406 205.54 282.172 205.708C281.939 205.867 281.748 206.095 281.598 206.394C281.449 206.683 281.374 207.043 281.374 207.472V211H279.792V204ZM289.612 205.036L289.43 205.078V200.92H291.012V211H289.584L289.472 210.132C289.23 210.403 288.922 210.631 288.548 210.818C288.175 211.005 287.732 211.098 287.218 211.098C286.593 211.098 286.042 210.949 285.566 210.65C285.1 210.351 284.736 209.931 284.474 209.39C284.213 208.849 284.082 208.219 284.082 207.5C284.082 206.781 284.213 206.151 284.474 205.61C284.736 205.069 285.1 204.649 285.566 204.35C286.042 204.051 286.593 203.902 287.218 203.902C287.769 203.902 288.25 204.014 288.66 204.238C289.071 204.453 289.388 204.719 289.612 205.036ZM285.776 207.5C285.776 208.144 285.944 208.667 286.28 209.068C286.616 209.469 287.055 209.67 287.596 209.67C287.923 209.67 288.222 209.586 288.492 209.418C288.772 209.25 288.996 209.007 289.164 208.69C289.342 208.363 289.43 207.967 289.43 207.5C289.43 207.033 289.342 206.641 289.164 206.324C288.996 205.997 288.772 205.75 288.492 205.582C288.222 205.414 287.923 205.33 287.596 205.33C287.055 205.33 286.616 205.531 286.28 205.932C285.944 206.333 285.776 206.856 285.776 207.5Z" fill="white"/>
<path d="M110.078 236.016C110.6 236.016 111.025 235.937 111.352 235.778C111.678 235.619 111.916 235.395 112.066 235.106C112.224 234.817 112.304 234.481 112.304 234.098C112.304 233.491 112.126 233.02 111.772 232.684C111.426 232.348 110.862 232.18 110.078 232.18H107.74V236.016H110.078ZM113.41 234.098C113.41 234.481 113.344 234.849 113.214 235.204C113.092 235.549 112.896 235.857 112.626 236.128C112.355 236.399 112.01 236.613 111.59 236.772C111.17 236.921 110.666 236.996 110.078 236.996H107.74V241H106.62V231.2H110.078C110.843 231.2 111.468 231.331 111.954 231.592C112.448 231.853 112.812 232.203 113.046 232.642C113.288 233.081 113.41 233.566 113.41 234.098ZM118.962 241L118.878 239.74C118.682 240.169 118.393 240.505 118.01 240.748C117.627 240.981 117.142 241.098 116.554 241.098C116.05 241.098 115.621 241.019 115.266 240.86C114.911 240.701 114.636 240.477 114.44 240.188C114.253 239.889 114.16 239.539 114.16 239.138C114.16 238.55 114.379 238.069 114.818 237.696C115.257 237.313 115.891 237.08 116.722 236.996L118.878 236.758V236.198C118.878 235.806 118.733 235.493 118.444 235.26C118.155 235.017 117.763 234.896 117.268 234.896C116.783 234.896 116.377 235.008 116.05 235.232C115.733 235.456 115.513 235.778 115.392 236.198L114.44 235.862C114.627 235.246 114.967 234.765 115.462 234.42C115.966 234.075 116.577 233.902 117.296 233.902C118.127 233.902 118.771 234.117 119.228 234.546C119.695 234.966 119.928 235.54 119.928 236.268V241H118.962ZM118.878 237.654L116.708 237.906C116.241 237.962 115.887 238.093 115.644 238.298C115.401 238.494 115.28 238.755 115.28 239.082C115.28 239.409 115.397 239.67 115.63 239.866C115.873 240.062 116.218 240.16 116.666 240.16C117.179 240.16 117.599 240.057 117.926 239.852C118.253 239.647 118.491 239.371 118.64 239.026C118.799 238.671 118.878 238.289 118.878 237.878V237.654ZM122.05 238.858C122.106 239.138 122.209 239.371 122.358 239.558C122.508 239.735 122.699 239.871 122.932 239.964C123.175 240.057 123.455 240.104 123.772 240.104C124.267 240.104 124.64 240.011 124.892 239.824C125.154 239.628 125.284 239.385 125.284 239.096C125.284 238.853 125.205 238.657 125.046 238.508C124.897 238.359 124.696 238.237 124.444 238.144C124.192 238.041 123.912 237.953 123.604 237.878C123.362 237.822 123.1 237.757 122.82 237.682C122.54 237.598 122.274 237.486 122.022 237.346C121.77 237.206 121.565 237.024 121.406 236.8C121.248 236.576 121.168 236.282 121.168 235.918C121.168 235.517 121.276 235.167 121.49 234.868C121.714 234.56 122.018 234.322 122.4 234.154C122.792 233.986 123.24 233.902 123.744 233.902C124.323 233.902 124.836 234.028 125.284 234.28C125.742 234.532 126.059 234.924 126.236 235.456L125.256 235.792C125.191 235.549 125.07 235.363 124.892 235.232C124.724 235.101 124.533 235.013 124.318 234.966C124.113 234.919 123.908 234.896 123.702 234.896C123.282 234.896 122.942 234.98 122.68 235.148C122.428 235.307 122.302 235.549 122.302 235.876C122.302 236.053 122.344 236.203 122.428 236.324C122.512 236.436 122.629 236.529 122.778 236.604C122.928 236.679 123.105 236.744 123.31 236.8C123.516 236.847 123.74 236.903 123.982 236.968C124.253 237.033 124.528 237.117 124.808 237.22C125.088 237.313 125.35 237.439 125.592 237.598C125.835 237.747 126.031 237.943 126.18 238.186C126.339 238.419 126.418 238.713 126.418 239.068C126.418 239.479 126.306 239.838 126.082 240.146C125.858 240.445 125.546 240.678 125.144 240.846C124.752 241.014 124.295 241.098 123.772 241.098C123.054 241.098 122.456 240.939 121.98 240.622C121.514 240.295 121.201 239.819 121.042 239.194L122.05 238.858ZM128.195 238.858C128.251 239.138 128.354 239.371 128.503 239.558C128.652 239.735 128.844 239.871 129.077 239.964C129.32 240.057 129.6 240.104 129.917 240.104C130.412 240.104 130.785 240.011 131.037 239.824C131.298 239.628 131.429 239.385 131.429 239.096C131.429 238.853 131.35 238.657 131.191 238.508C131.042 238.359 130.841 238.237 130.589 238.144C130.337 238.041 130.057 237.953 129.749 237.878C129.506 237.822 129.245 237.757 128.965 237.682C128.685 237.598 128.419 237.486 128.167 237.346C127.915 237.206 127.71 237.024 127.551 236.8C127.392 236.576 127.313 236.282 127.313 235.918C127.313 235.517 127.42 235.167 127.635 234.868C127.859 234.56 128.162 234.322 128.545 234.154C128.937 233.986 129.385 233.902 129.889 233.902C130.468 233.902 130.981 234.028 131.429 234.28C131.886 234.532 132.204 234.924 132.381 235.456L131.401 235.792C131.336 235.549 131.214 235.363 131.037 235.232C130.869 235.101 130.678 235.013 130.463 234.966C130.258 234.919 130.052 234.896 129.847 234.896C129.427 234.896 129.086 234.98 128.825 235.148C128.573 235.307 128.447 235.549 128.447 235.876C128.447 236.053 128.489 236.203 128.573 236.324C128.657 236.436 128.774 236.529 128.923 236.604C129.072 236.679 129.25 236.744 129.455 236.8C129.66 236.847 129.884 236.903 130.127 236.968C130.398 237.033 130.673 237.117 130.953 237.22C131.233 237.313 131.494 237.439 131.737 237.598C131.98 237.747 132.176 237.943 132.325 238.186C132.484 238.419 132.563 238.713 132.563 239.068C132.563 239.479 132.451 239.838 132.227 240.146C132.003 240.445 131.69 240.678 131.289 240.846C130.897 241.014 130.44 241.098 129.917 241.098C129.198 241.098 128.601 240.939 128.125 240.622C127.658 240.295 127.346 239.819 127.187 239.194L128.195 238.858ZM136.202 241H135.25L133.052 234H134.116L135.726 239.698L137.532 234H138.484L140.262 239.684L141.858 234H142.894L140.71 241H139.744L137.98 235.568L136.202 241ZM146.844 241.098C146.182 241.098 145.589 240.953 145.066 240.664C144.544 240.375 144.133 239.964 143.834 239.432C143.536 238.891 143.386 238.251 143.386 237.514C143.386 236.767 143.536 236.123 143.834 235.582C144.142 235.041 144.558 234.625 145.08 234.336C145.612 234.047 146.21 233.902 146.872 233.902C147.535 233.902 148.128 234.047 148.65 234.336C149.182 234.625 149.598 235.041 149.896 235.582C150.204 236.114 150.358 236.749 150.358 237.486C150.358 238.233 150.204 238.877 149.896 239.418C149.588 239.959 149.168 240.375 148.636 240.664C148.104 240.953 147.507 241.098 146.844 241.098ZM146.83 240.104C147.241 240.104 147.628 240.015 147.992 239.838C148.356 239.651 148.65 239.367 148.874 238.984C149.108 238.592 149.224 238.097 149.224 237.5C149.224 236.893 149.112 236.399 148.888 236.016C148.664 235.633 148.37 235.353 148.006 235.176C147.652 234.989 147.269 234.896 146.858 234.896C146.448 234.896 146.065 234.989 145.71 235.176C145.356 235.353 145.066 235.638 144.842 236.03C144.628 236.413 144.52 236.903 144.52 237.5C144.52 238.107 144.628 238.601 144.842 238.984C145.057 239.367 145.337 239.651 145.682 239.838C146.037 240.015 146.42 240.104 146.83 240.104ZM151.578 234H152.544L152.6 235.022C152.787 234.77 153.011 234.555 153.272 234.378C153.543 234.201 153.837 234.079 154.154 234.014C154.481 233.939 154.826 233.935 155.19 234V235.05C154.798 234.975 154.443 234.975 154.126 235.05C153.818 235.125 153.552 235.265 153.328 235.47C153.104 235.675 152.931 235.937 152.81 236.254C152.689 236.562 152.628 236.921 152.628 237.332V241H151.578V234ZM161.527 235.414L161.415 235.428V230.92H162.465V241H161.499L161.429 239.698C161.214 240.09 160.892 240.421 160.463 240.692C160.043 240.963 159.52 241.098 158.895 241.098C158.251 241.098 157.686 240.953 157.201 240.664C156.725 240.365 156.352 239.945 156.081 239.404C155.82 238.863 155.689 238.228 155.689 237.5C155.689 236.772 155.82 236.142 156.081 235.61C156.352 235.069 156.725 234.649 157.201 234.35C157.686 234.051 158.251 233.902 158.895 233.902C159.558 233.902 160.108 234.047 160.547 234.336C160.986 234.625 161.312 234.985 161.527 235.414ZM156.823 237.5C156.823 238.303 157.028 238.942 157.439 239.418C157.85 239.885 158.41 240.118 159.119 240.118C159.558 240.118 159.95 240.015 160.295 239.81C160.64 239.605 160.911 239.306 161.107 238.914C161.312 238.522 161.415 238.051 161.415 237.5C161.415 236.949 161.312 236.483 161.107 236.1C160.911 235.708 160.64 235.409 160.295 235.204C159.95 234.989 159.558 234.882 159.119 234.882C158.419 234.882 157.859 235.12 157.439 235.596C157.028 236.063 156.823 236.697 156.823 237.5ZM167.747 234H168.783V241H167.747V234ZM168.279 232.6C168.064 232.6 167.887 232.53 167.747 232.39C167.607 232.25 167.537 232.077 167.537 231.872C167.537 231.657 167.607 231.48 167.747 231.34C167.887 231.2 168.064 231.13 168.279 231.13C168.475 231.13 168.643 231.2 168.783 231.34C168.932 231.48 169.007 231.657 169.007 231.872C169.007 232.077 168.932 232.25 168.783 232.39C168.643 232.53 168.475 232.6 168.279 232.6ZM171.22 238.858C171.276 239.138 171.379 239.371 171.528 239.558C171.678 239.735 171.869 239.871 172.102 239.964C172.345 240.057 172.625 240.104 172.942 240.104C173.437 240.104 173.81 240.011 174.062 239.824C174.324 239.628 174.454 239.385 174.454 239.096C174.454 238.853 174.375 238.657 174.216 238.508C174.067 238.359 173.866 238.237 173.614 238.144C173.362 238.041 173.082 237.953 172.774 237.878C172.532 237.822 172.27 237.757 171.99 237.682C171.71 237.598 171.444 237.486 171.192 237.346C170.94 237.206 170.735 237.024 170.576 236.8C170.418 236.576 170.338 236.282 170.338 235.918C170.338 235.517 170.446 235.167 170.66 234.868C170.884 234.56 171.188 234.322 171.57 234.154C171.962 233.986 172.41 233.902 172.914 233.902C173.493 233.902 174.006 234.028 174.454 234.28C174.912 234.532 175.229 234.924 175.406 235.456L174.426 235.792C174.361 235.549 174.24 235.363 174.062 235.232C173.894 235.101 173.703 235.013 173.488 234.966C173.283 234.919 173.078 234.896 172.872 234.896C172.452 234.896 172.112 234.98 171.85 235.148C171.598 235.307 171.472 235.549 171.472 235.876C171.472 236.053 171.514 236.203 171.598 236.324C171.682 236.436 171.799 236.529 171.948 236.604C172.098 236.679 172.275 236.744 172.48 236.8C172.686 236.847 172.91 236.903 173.152 236.968C173.423 237.033 173.698 237.117 173.978 237.22C174.258 237.313 174.52 237.439 174.762 237.598C175.005 237.747 175.201 237.943 175.35 238.186C175.509 238.419 175.588 238.713 175.588 239.068C175.588 239.479 175.476 239.838 175.252 240.146C175.028 240.445 174.716 240.678 174.314 240.846C173.922 241.014 173.465 241.098 172.942 241.098C172.224 241.098 171.626 240.939 171.15 240.622C170.684 240.295 170.371 239.819 170.212 239.194L171.22 238.858ZM183.239 241.098C182.576 241.098 181.983 240.953 181.461 240.664C180.938 240.375 180.527 239.964 180.229 239.432C179.93 238.891 179.781 238.251 179.781 237.514C179.781 236.767 179.93 236.123 180.229 235.582C180.537 235.041 180.952 234.625 181.475 234.336C182.007 234.047 182.604 233.902 183.267 233.902C183.929 233.902 184.522 234.047 185.045 234.336C185.577 234.625 185.992 235.041 186.291 235.582C186.599 236.114 186.753 236.749 186.753 237.486C186.753 238.233 186.599 238.877 186.291 239.418C185.983 239.959 185.563 240.375 185.031 240.664C184.499 240.953 183.901 241.098 183.239 241.098ZM183.225 240.104C183.635 240.104 184.023 240.015 184.387 239.838C184.751 239.651 185.045 239.367 185.269 238.984C185.502 238.592 185.619 238.097 185.619 237.5C185.619 236.893 185.507 236.399 185.283 236.016C185.059 235.633 184.765 235.353 184.401 235.176C184.046 234.989 183.663 234.896 183.253 234.896C182.842 234.896 182.459 234.989 182.105 235.176C181.75 235.353 181.461 235.638 181.237 236.03C181.022 236.413 180.915 236.903 180.915 237.5C180.915 238.107 181.022 238.601 181.237 238.984C181.451 239.367 181.731 239.651 182.077 239.838C182.431 240.015 182.814 240.104 183.225 240.104ZM187.973 234H188.939L188.995 234.994C189.219 234.649 189.513 234.383 189.877 234.196C190.241 234 190.665 233.902 191.151 233.902C191.683 233.902 192.149 234.019 192.551 234.252C192.952 234.476 193.265 234.817 193.489 235.274C193.713 235.722 193.825 236.287 193.825 236.968V241H192.775V237.094C192.775 236.366 192.616 235.815 192.299 235.442C191.991 235.059 191.543 234.868 190.955 234.868C190.348 234.868 189.872 235.069 189.527 235.47C189.191 235.871 189.023 236.464 189.023 237.248V241H187.973V234ZM195.361 230.92H196.411V241H195.361V230.92ZM202.793 234H203.885L199.881 243.8H198.873L200.063 240.902L197.235 234H198.383L200.623 239.656L202.793 234ZM208.554 234L210.766 239.824L212.992 234H214.098L211.298 241H210.206L207.434 234H208.554ZM215.241 234H216.277V241H215.241V234ZM215.773 232.6C215.558 232.6 215.381 232.53 215.241 232.39C215.101 232.25 215.031 232.077 215.031 231.872C215.031 231.657 215.101 231.48 215.241 231.34C215.381 231.2 215.558 231.13 215.773 231.13C215.969 231.13 216.137 231.2 216.277 231.34C216.426 231.48 216.501 231.657 216.501 231.872C216.501 232.077 216.426 232.25 216.277 232.39C216.137 232.53 215.969 232.6 215.773 232.6ZM218.715 238.858C218.771 239.138 218.873 239.371 219.023 239.558C219.172 239.735 219.363 239.871 219.597 239.964C219.839 240.057 220.119 240.104 220.437 240.104C220.931 240.104 221.305 240.011 221.557 239.824C221.818 239.628 221.949 239.385 221.949 239.096C221.949 238.853 221.869 238.657 221.711 238.508C221.561 238.359 221.361 238.237 221.109 238.144C220.857 238.041 220.577 237.953 220.269 237.878C220.026 237.822 219.765 237.757 219.485 237.682C219.205 237.598 218.939 237.486 218.687 237.346C218.435 237.206 218.229 237.024 218.071 236.8C217.912 236.576 217.833 236.282 217.833 235.918C217.833 235.517 217.94 235.167 218.155 234.868C218.379 234.56 218.682 234.322 219.065 234.154C219.457 233.986 219.905 233.902 220.409 233.902C220.987 233.902 221.501 234.028 221.949 234.28C222.406 234.532 222.723 234.924 222.901 235.456L221.921 235.792C221.855 235.549 221.734 235.363 221.557 235.232C221.389 235.101 221.197 235.013 220.983 234.966C220.777 234.919 220.572 234.896 220.367 234.896C219.947 234.896 219.606 234.98 219.345 235.148C219.093 235.307 218.967 235.549 218.967 235.876C218.967 236.053 219.009 236.203 219.093 236.324C219.177 236.436 219.293 236.529 219.443 236.604C219.592 236.679 219.769 236.744 219.975 236.8C220.18 236.847 220.404 236.903 220.647 236.968C220.917 237.033 221.193 237.117 221.473 237.22C221.753 237.313 222.014 237.439 222.257 237.598C222.499 237.747 222.695 237.943 222.845 238.186C223.003 238.419 223.083 238.713 223.083 239.068C223.083 239.479 222.971 239.838 222.747 240.146C222.523 240.445 222.21 240.678 221.809 240.846C221.417 241.014 220.959 241.098 220.437 241.098C219.718 241.098 219.121 240.939 218.645 240.622C218.178 240.295 217.865 239.819 217.707 239.194L218.715 238.858ZM224.495 234H225.531V241H224.495V234ZM225.027 232.6C224.812 232.6 224.635 232.53 224.495 232.39C224.355 232.25 224.285 232.077 224.285 231.872C224.285 231.657 224.355 231.48 224.495 231.34C224.635 231.2 224.812 231.13 225.027 231.13C225.223 231.13 225.391 231.2 225.531 231.34C225.68 231.48 225.755 231.657 225.755 231.872C225.755 232.077 225.68 232.25 225.531 232.39C225.391 232.53 225.223 232.6 225.027 232.6ZM228.332 235.414C228.538 234.985 228.86 234.625 229.298 234.336C229.737 234.047 230.292 233.902 230.964 233.902C231.608 233.902 232.168 234.051 232.644 234.35C233.13 234.649 233.503 235.069 233.764 235.61C234.035 236.142 234.17 236.772 234.17 237.5C234.17 238.228 234.035 238.863 233.764 239.404C233.494 239.945 233.116 240.365 232.63 240.664C232.154 240.953 231.599 241.098 230.964 241.098C230.33 241.098 229.802 240.963 229.382 240.692C228.962 240.421 228.645 240.09 228.43 239.698L228.36 241H227.394V230.92H228.444V235.428L228.332 235.414ZM233.036 237.5C233.036 236.697 232.826 236.063 232.406 235.596C231.996 235.12 231.44 234.882 230.74 234.882C230.302 234.882 229.905 234.989 229.55 235.204C229.205 235.409 228.934 235.708 228.738 236.1C228.542 236.483 228.444 236.949 228.444 237.5C228.444 238.051 228.542 238.522 228.738 238.914C228.934 239.306 229.205 239.605 229.55 239.81C229.905 240.015 230.302 240.118 230.74 240.118C231.44 240.118 231.996 239.885 232.406 239.418C232.826 238.942 233.036 238.303 233.036 237.5ZM235.385 230.92H236.435V241H235.385V230.92ZM241.01 241.098C240.357 241.098 239.774 240.939 239.26 240.622C238.756 240.305 238.36 239.871 238.07 239.32C237.781 238.769 237.636 238.139 237.636 237.43C237.636 236.749 237.781 236.142 238.07 235.61C238.36 235.078 238.756 234.663 239.26 234.364C239.764 234.056 240.338 233.902 240.982 233.902C241.617 233.902 242.182 234.042 242.676 234.322C243.18 234.602 243.572 234.989 243.852 235.484C244.132 235.979 244.263 236.543 244.244 237.178C244.244 237.281 244.24 237.388 244.23 237.5C244.221 237.612 244.212 237.733 244.202 237.864H238.784C238.803 238.303 238.91 238.69 239.106 239.026C239.302 239.362 239.559 239.628 239.876 239.824C240.203 240.011 240.572 240.104 240.982 240.104C241.524 240.104 241.981 240.001 242.354 239.796C242.737 239.591 243.012 239.297 243.18 238.914L244.09 239.278C243.81 239.866 243.404 240.319 242.872 240.636C242.34 240.944 241.72 241.098 241.01 241.098ZM243.096 236.954C243.106 236.553 243.017 236.198 242.83 235.89C242.653 235.582 242.401 235.339 242.074 235.162C241.748 234.985 241.37 234.896 240.94 234.896C240.567 234.896 240.226 234.985 239.918 235.162C239.61 235.339 239.354 235.587 239.148 235.904C238.952 236.212 238.836 236.562 238.798 236.954H243.096ZM249.302 234L251.514 239.824L253.74 234H254.846L252.046 241H250.954L248.182 234H249.302ZM255.989 234H257.025V241H255.989V234ZM256.521 232.6C256.307 232.6 256.129 232.53 255.989 232.39C255.849 232.25 255.779 232.077 255.779 231.872C255.779 231.657 255.849 231.48 255.989 231.34C256.129 231.2 256.307 231.13 256.521 231.13C256.717 231.13 256.885 231.2 257.025 231.34C257.175 231.48 257.249 231.657 257.249 231.872C257.249 232.077 257.175 232.25 257.025 232.39C256.885 232.53 256.717 232.6 256.521 232.6ZM263.271 241L263.187 239.74C262.991 240.169 262.701 240.505 262.319 240.748C261.936 240.981 261.451 241.098 260.863 241.098C260.359 241.098 259.929 241.019 259.575 240.86C259.22 240.701 258.945 240.477 258.749 240.188C258.562 239.889 258.469 239.539 258.469 239.138C258.469 238.55 258.688 238.069 259.127 237.696C259.565 237.313 260.2 237.08 261.031 236.996L263.187 236.758V236.198C263.187 235.806 263.042 235.493 262.753 235.26C262.463 235.017 262.071 234.896 261.577 234.896C261.091 234.896 260.685 235.008 260.359 235.232C260.041 235.456 259.822 235.778 259.701 236.198L258.749 235.862C258.935 235.246 259.276 234.765 259.771 234.42C260.275 234.075 260.886 233.902 261.605 233.902C262.435 233.902 263.079 234.117 263.537 234.546C264.003 234.966 264.237 235.54 264.237 236.268V241H263.271ZM263.187 237.654L261.017 237.906C260.55 237.962 260.195 238.093 259.953 238.298C259.71 238.494 259.589 238.755 259.589 239.082C259.589 239.409 259.705 239.67 259.939 239.866C260.181 240.062 260.527 240.16 260.975 240.16C261.488 240.16 261.908 240.057 262.235 239.852C262.561 239.647 262.799 239.371 262.949 239.026C263.107 238.671 263.187 238.289 263.187 237.878V237.654ZM272.149 241.098C271.496 241.098 270.912 240.939 270.399 240.622C269.895 240.305 269.498 239.871 269.209 239.32C268.92 238.769 268.775 238.139 268.775 237.43C268.775 236.749 268.92 236.142 269.209 235.61C269.498 235.078 269.895 234.663 270.399 234.364C270.903 234.056 271.477 233.902 272.121 233.902C272.756 233.902 273.32 234.042 273.815 234.322C274.319 234.602 274.711 234.989 274.991 235.484C275.271 235.979 275.402 236.543 275.383 237.178C275.383 237.281 275.378 237.388 275.369 237.5C275.36 237.612 275.35 237.733 275.341 237.864H269.923C269.942 238.303 270.049 238.69 270.245 239.026C270.441 239.362 270.698 239.628 271.015 239.824C271.342 240.011 271.71 240.104 272.121 240.104C272.662 240.104 273.12 240.001 273.493 239.796C273.876 239.591 274.151 239.297 274.319 238.914L275.229 239.278C274.949 239.866 274.543 240.319 274.011 240.636C273.479 240.944 272.858 241.098 272.149 241.098ZM274.235 236.954C274.244 236.553 274.156 236.198 273.969 235.89C273.792 235.582 273.54 235.339 273.213 235.162C272.886 234.985 272.508 234.896 272.079 234.896C271.706 234.896 271.365 234.985 271.057 235.162C270.749 235.339 270.492 235.587 270.287 235.904C270.091 236.212 269.974 236.562 269.937 236.954H274.235ZM276.611 234H277.577L277.647 235.008C277.853 234.672 278.128 234.406 278.473 234.21C278.828 234.005 279.248 233.902 279.733 233.902C280.228 233.902 280.676 234.023 281.077 234.266C281.488 234.499 281.805 234.849 282.029 235.316C282.244 234.84 282.571 234.485 283.009 234.252C283.448 234.019 283.933 233.902 284.465 233.902C284.988 233.902 285.45 234.019 285.851 234.252C286.253 234.476 286.565 234.817 286.789 235.274C287.013 235.722 287.125 236.287 287.125 236.968V241H286.075V237.094C286.075 236.366 285.917 235.815 285.599 235.442C285.291 235.059 284.848 234.868 284.269 234.868C283.681 234.868 283.215 235.073 282.869 235.484C282.524 235.885 282.351 236.483 282.351 237.276V241H281.301V237.094C281.301 236.366 281.152 235.815 280.853 235.442C280.555 235.059 280.116 234.868 279.537 234.868C278.949 234.868 278.487 235.073 278.151 235.484C277.825 235.885 277.661 236.483 277.661 237.276V241H276.611V234ZM293.044 241L292.96 239.74C292.764 240.169 292.475 240.505 292.092 240.748C291.709 240.981 291.224 241.098 290.636 241.098C290.132 241.098 289.703 241.019 289.348 240.86C288.993 240.701 288.718 240.477 288.522 240.188C288.335 239.889 288.242 239.539 288.242 239.138C288.242 238.55 288.461 238.069 288.9 237.696C289.339 237.313 289.973 237.08 290.804 236.996L292.96 236.758V236.198C292.96 235.806 292.815 235.493 292.526 235.26C292.237 235.017 291.845 234.896 291.35 234.896C290.865 234.896 290.459 235.008 290.132 235.232C289.815 235.456 289.595 235.778 289.474 236.198L288.522 235.862C288.709 235.246 289.049 234.765 289.544 234.42C290.048 234.075 290.659 233.902 291.378 233.902C292.209 233.902 292.853 234.117 293.31 234.546C293.777 234.966 294.01 235.54 294.01 236.268V241H293.044ZM292.96 237.654L290.79 237.906C290.323 237.962 289.969 238.093 289.726 238.298C289.483 238.494 289.362 238.755 289.362 239.082C289.362 239.409 289.479 239.67 289.712 239.866C289.955 240.062 290.3 240.16 290.748 240.16C291.261 240.16 291.681 240.057 292.008 239.852C292.335 239.647 292.573 239.371 292.722 239.026C292.881 238.671 292.96 238.289 292.96 237.878V237.654ZM295.768 234H296.804V241H295.768V234ZM296.3 232.6C296.086 232.6 295.908 232.53 295.768 232.39C295.628 232.25 295.558 232.077 295.558 231.872C295.558 231.657 295.628 231.48 295.768 231.34C295.908 231.2 296.086 231.13 296.3 231.13C296.496 231.13 296.664 231.2 296.804 231.34C296.954 231.48 297.028 231.657 297.028 231.872C297.028 232.077 296.954 232.25 296.804 232.39C296.664 232.53 296.496 232.6 296.3 232.6ZM298.668 230.92H299.718V241H298.668V230.92ZM301.927 241.07C301.713 241.07 301.531 240.995 301.381 240.846C301.241 240.697 301.171 240.515 301.171 240.3C301.171 240.085 301.241 239.903 301.381 239.754C301.531 239.605 301.713 239.53 301.927 239.53C302.133 239.53 302.31 239.605 302.459 239.754C302.609 239.903 302.683 240.085 302.683 240.3C302.683 240.515 302.609 240.697 302.459 240.846C302.31 240.995 302.133 241.07 301.927 241.07Z" fill="#FCB900"/>
<defs>
<clipPath id="clip0_2001_4298">
<rect width="20" height="20" fill="white" transform="translate(12 10)"/>
</clipPath>
<clipPath id="clip1_2001_4298">
<rect width="20" height="20" fill="white" transform="translate(12 122)"/>
</clipPath>
<clipPath id="clip2_2001_4298">
<rect width="20" height="20" fill="white" transform="translate(12 166)"/>
</clipPath>
</defs>
</svg>
