<svg width="32" height="32" viewBox="0 0 32 32" fill="none" xmlns="http://www.w3.org/2000/svg">
<path d="M30.5318 16.1166L13.2418 26.1642C12.3483 26.6841 10.8914 26.6841 9.99057 26.1631L1.47876 21.2485C1.02552 20.9877 0.798609 20.6434 0.800302 20.2997V23.7828C0.799173 24.1266 1.02608 24.4709 1.47876 24.7322L9.99114 29.6468C10.8926 30.1673 12.3483 30.1673 13.2418 29.648L30.5318 19.6003C30.976 19.3424 31.199 19.0043 31.1995 18.665V15.1813C31.1984 15.5205 30.9755 15.8592 30.5318 16.1171V16.1166Z" fill="#568210"/>
<path opacity="0.6" d="M1.47876 21.4505L9.99114 26.3652C10.8926 26.8856 12.3483 26.8856 13.2418 26.3663L30.5318 16.3186C30.9743 16.0618 31.1973 15.7243 31.1995 15.3862V15.1813C31.1995 15.5205 30.976 15.8586 30.5318 16.1171L13.2418 26.1648C12.3483 26.6846 10.8914 26.6846 9.99057 26.1637L1.47876 21.2485C1.02552 20.9877 0.798609 20.6434 0.800302 20.2997V20.5012C0.799173 20.8443 1.02608 21.1892 1.47876 21.4505Z" fill="#ABE055"/>
<path d="M30.5211 14.2324C31.4225 14.7529 31.4253 15.5973 30.5318 16.1166L13.2418 26.1642C12.3483 26.6841 10.8914 26.6841 9.99059 26.1631L1.47878 21.2485C0.579057 20.7298 0.572284 19.8848 1.4658 19.3661L18.7558 9.31783C19.6493 8.79855 21.109 8.79855 22.0087 9.31783L30.5211 14.2324Z" fill="#7AB816"/>
<path d="M19.7764 19.9203C17.7054 21.1243 14.3351 21.1243 12.2506 19.9203C10.165 18.7164 10.1543 16.7645 12.2258 15.5606C14.2973 14.3572 17.667 14.3566 19.7521 15.5606C21.8372 16.7645 21.8484 18.7158 19.7764 19.9198M18.5606 10.6127L3.70215 19.2475C4.71476 19.8323 4.7221 20.7806 3.714 21.367L9.78008 24.8694C10.7882 24.2829 12.4256 24.2846 13.4388 24.8688L28.2978 16.234C27.2852 15.6492 27.2795 14.6998 28.2859 14.115L22.2198 10.6132C21.2134 11.198 19.5737 11.198 18.5606 10.6132" fill="#ABE055"/>
<path d="M13.1455 12.5786L24.9215 19.3773L29.012 17.0005L17.236 10.2018L13.1455 12.5786Z" fill="#E8943E"/>
<path d="M24.9214 22.8605L29.0119 20.4837V17.0005L24.9214 19.3773V22.8605Z" fill="#A4542B"/>
<g style="mix-blend-mode:overlay" opacity="0.6">
<path d="M24.9214 19.5789L29.0119 17.202V17.0005L24.9214 19.3773V19.5789Z" fill="white"/>
</g>
<path d="M30.5318 12.6339L13.2418 22.6822C12.3483 23.2015 10.8914 23.2015 9.99057 22.681L1.47876 17.7653C1.02552 17.5045 0.798609 17.1602 0.800302 16.817V20.3002C0.799173 20.644 1.02608 20.9883 1.47876 21.2496L9.99114 26.1642C10.8926 26.6846 12.3483 26.6846 13.2418 26.1653L30.5318 16.1177C30.976 15.8597 31.199 15.5216 31.1995 15.1824V11.6987C31.1984 12.0379 30.9755 12.376 30.5318 12.6339Z" fill="#568210"/>
<g style="mix-blend-mode:multiply" opacity="0.6">
<path d="M1.47876 21.2496L9.99114 26.1642C10.8926 26.6846 12.3483 26.6846 13.2418 26.1653L30.5318 16.1177C30.9743 15.8609 31.1973 15.5233 31.1995 15.1852V14.9803C31.1995 15.319 30.976 15.6577 30.5318 15.9162L13.2418 25.9638C12.3483 26.4831 10.8914 26.4831 9.99057 25.9627L1.47876 21.0475C1.02552 20.7868 0.798609 20.4425 0.800302 20.0987V20.3002C0.799173 20.644 1.02608 20.9883 1.47876 21.2496Z" fill="#568210"/>
</g>
<path opacity="0.6" d="M1.47876 17.9679L9.99114 22.8825C10.8926 23.403 12.3483 23.403 13.2418 22.8837L30.5318 12.836C30.9743 12.5792 31.1973 12.2417 31.1995 11.9036V11.6987C31.1995 12.0379 30.976 12.376 30.5318 12.6345L13.2418 22.6822C12.3483 23.2015 10.8914 23.2015 9.99057 22.681L1.47876 17.7653C1.02552 17.5045 0.798609 17.1602 0.800302 16.817V17.0185C0.799173 17.3623 1.02608 17.7066 1.47876 17.9679Z" fill="#ABE055"/>
<path d="M30.5211 10.7498C31.4225 11.2702 31.4253 12.1147 30.5318 12.6339L13.2418 22.6822C12.3483 23.2015 10.8914 23.2015 9.99059 22.681L1.47878 17.7653C0.579057 17.2466 0.572284 16.4016 1.4658 15.8829L18.7558 5.83466C19.6493 5.31537 21.109 5.31537 22.0087 5.83466L30.5211 10.7493V10.7498Z" fill="#7AB816"/>
<path d="M19.7764 16.4377C17.7054 17.6417 14.3351 17.6417 12.2506 16.4377C10.165 15.2338 10.1543 13.2819 12.2258 12.078C14.2973 10.8746 17.667 10.874 19.7521 12.078C21.8372 13.2819 21.8484 15.2338 19.7764 16.4377ZM18.5606 7.12949L3.70215 15.7643C4.71476 16.3491 4.7221 17.2979 3.714 17.8838L9.78008 21.3862C10.7882 20.8003 12.4256 20.8014 13.4388 21.3862L28.2978 12.7513C27.2852 12.1666 27.2795 11.2172 28.2859 10.6319L22.2198 7.13005C21.2134 7.71481 19.5737 7.71481 18.5606 7.13005" fill="#ABE055"/>
<path d="M13.1455 9.09545L24.9215 15.8942L29.012 13.5173L17.236 6.71857L13.1455 9.09545Z" fill="#E8943E"/>
<path d="M24.9214 19.3779L29.0119 17.001V13.5173L24.9214 15.8942V19.3779Z" fill="#A4542B"/>
<g style="mix-blend-mode:multiply" opacity="0.7">
<path d="M24.9214 19.3779L29.0119 17.001V16.7995L24.9214 19.1764V19.3779Z" fill="#A4542B"/>
</g>
<g style="mix-blend-mode:overlay" opacity="0.6">
<path d="M24.9214 16.0962L29.0119 13.7188V13.5173L24.9214 15.8947V16.0962Z" fill="white"/>
</g>
<path d="M30.5318 9.15076L13.2418 19.1984C12.3483 19.7177 10.8914 19.7177 9.99057 19.1973L1.47876 14.2827C1.02552 14.0219 0.798609 13.6776 0.800302 13.3339V16.817C0.799173 17.1608 1.02608 17.5051 1.47876 17.7664L9.99114 22.681C10.8926 23.2015 12.3483 23.2015 13.2418 22.6822L30.5318 12.6339C30.976 12.376 31.199 12.0379 31.1995 11.6987V8.21491C31.1984 8.55414 30.9755 8.89281 30.5318 9.15076Z" fill="#568210"/>
<g style="mix-blend-mode:multiply" opacity="0.6">
<path d="M1.47876 17.7664L9.99114 22.681C10.8926 23.2015 12.3483 23.2015 13.2418 22.6822L30.5318 12.6339C30.9743 12.3771 31.1973 12.0396 31.1995 11.7015V11.4966C31.1995 11.8358 30.976 12.1739 30.5318 12.4324L13.2418 22.4801C12.3483 22.9994 10.8914 22.9994 9.99057 22.479L1.47876 17.5644C1.02552 17.3036 0.798609 16.9593 0.800302 16.6155V16.817C0.799173 17.1608 1.02608 17.5051 1.47876 17.7664Z" fill="#568210"/>
</g>
<path opacity="0.6" d="M1.47876 14.4848L9.99114 19.3994C10.8926 19.9198 12.3483 19.9198 13.2418 19.4005L30.5318 9.35283C30.9743 9.09601 31.1973 8.75847 31.1995 8.42037V8.21548C31.1995 8.55471 30.976 8.89281 30.5318 9.15132L13.2418 19.199C12.3483 19.7183 10.8914 19.7183 9.99057 19.1979L1.47876 14.2827C1.02552 14.0219 0.798609 13.6776 0.800302 13.3339V13.5354C0.799173 13.8791 1.02608 14.2234 1.47876 14.4848Z" fill="#ABE055"/>
<path d="M30.5211 7.26665C31.4225 7.78706 31.4253 8.63147 30.5318 9.15076L13.2418 19.1984C12.3483 19.7177 10.8914 19.7177 9.99059 19.1973L1.47878 14.2827C0.579057 13.764 0.572284 12.919 1.4658 12.4003L18.7558 2.35204C19.6493 1.83275 21.109 1.83275 22.0087 2.35204L30.5211 7.26665Z" fill="#7AB816"/>
<path d="M19.7764 12.9545C17.7054 14.1585 14.3351 14.1585 12.2506 12.9545C10.165 11.7506 10.1543 9.79874 12.2258 8.59479C14.2973 7.39139 17.667 7.39083 19.7521 8.59479C21.8372 9.79874 21.8484 11.7506 19.7764 12.954M18.5606 3.64631L3.70215 12.2817C4.71476 12.8671 4.7221 13.8153 3.714 14.4012L9.78008 17.9036C10.7882 17.3171 12.4256 17.3183 13.4388 17.903L28.2978 9.26817C27.2852 8.6834 27.2795 7.73401 28.2859 7.14925L22.2198 3.64687C21.2134 4.23164 19.5737 4.23164 18.5606 3.64687" fill="#ABE055"/>
<path d="M13.1455 5.61283L24.9215 12.411L29.012 10.0347L17.236 3.23539L13.1455 5.61283Z" fill="#E8943E"/>
<path d="M24.9214 15.8947L29.0119 13.5179V10.0347L24.9214 12.411V15.8947Z" fill="#A4542B"/>
<g style="mix-blend-mode:multiply" opacity="0.7">
<path d="M24.9214 15.8947L29.0119 13.5179V13.3164L24.9214 15.6932V15.8947Z" fill="#A4542B"/>
</g>
<g style="mix-blend-mode:overlay" opacity="0.6">
<path d="M24.9214 12.6131L29.0119 10.2362V10.0347L24.9214 12.4115V12.6131Z" fill="white"/>
</g>
</svg>
