<svg width="12" height="14" viewBox="0 0 12 14" fill="none" xmlns="http://www.w3.org/2000/svg">
<path d="M2.53333 8L6 10L9.46667 8L6.66667 6.38333V8.66667H5.33333V6.38333L2.53333 8ZM5.33333 4.85V4.56667C4.84444 4.42222 4.44444 4.14722 4.13333 3.74167C3.82222 3.33611 3.66667 2.86667 3.66667 2.33333C3.66667 1.68889 3.89444 1.13889 4.35 0.683333C4.80556 0.227778 5.35556 0 6 0C6.64444 0 7.19444 0.227778 7.65 0.683333C8.10556 1.13889 8.33333 1.68889 8.33333 2.33333C8.33333 2.86667 8.17778 3.33611 7.86667 3.74167C7.55556 4.14722 7.15556 4.42222 6.66667 4.56667V4.85L11.3333 7.53333C11.5444 7.65556 11.7083 7.81944 11.825 8.025C11.9417 8.23056 12 8.45556 12 8.7V9.96667C12 10.2111 11.9417 10.4361 11.825 10.6417C11.7083 10.8472 11.5444 11.0111 11.3333 11.1333L6.66667 13.8167C6.45556 13.9389 6.23333 14 6 14C5.76667 14 5.54444 13.9389 5.33333 13.8167L0.666667 11.1333C0.455556 11.0111 0.291667 10.8472 0.175 10.6417C0.0583333 10.4361 0 10.2111 0 9.96667V8.7C0 8.45556 0.0583333 8.23056 0.175 8.025C0.291667 7.81944 0.455556 7.65556 0.666667 7.53333L5.33333 4.85ZM5.33333 11.15L1.33333 8.85V9.96667L6 12.6667L10.6667 9.96667V8.85L6.66667 11.15C6.45556 11.2722 6.23333 11.3333 6 11.3333C5.76667 11.3333 5.54444 11.2722 5.33333 11.15ZM6 3.33333C6.27778 3.33333 6.51389 3.23611 6.70833 3.04167C6.90278 2.84722 7 2.61111 7 2.33333C7 2.05556 6.90278 1.81944 6.70833 1.625C6.51389 1.43056 6.27778 1.33333 6 1.33333C5.72222 1.33333 5.48611 1.43056 5.29167 1.625C5.09722 1.81944 5 2.05556 5 2.33333C5 2.61111 5.09722 2.84722 5.29167 3.04167C5.48611 3.23611 5.72222 3.33333 6 3.33333Z" fill="#7600FF"/>
</svg>
